<ttFont>
          <CharString index="0">
            380 568 rmoveto
            -49 vlineto
            61 -11 rlineto
            12 -2 5 -48 callgsubr
            -282 vlineto
            -99 -32 -64 -93 -85 -38 55 109 vhcurveto
            280 vlineto
            12 6 8 12 2 vhcurveto
            60 12 rlineto
            49 -255 -49 vlineto
            38 -10 rlineto
            11 -3 37 callgsubr
            -271 vlineto
            -157 72 -68 154 136 84 61 158 vhcurveto
            -74 callsubr
            vlineto
            return
          </CharString>
          <CharString index="1">
            -49 hlineto
            -84 callsubr
            -48 callgsubr
            -407 -11 callsubr
            return
          </CharString>
          <CharString index="2">
            303 568 rmoveto
            -268 -106 callsubr
            268 47 vlineto
            -57 11 1 callsubr
            13 vvcurveto
            406 vlineto
            12 5 -33 callsubr
            return
          </CharString>
          <CharString index="3">
            281 -11 rmoveto
            168 95 112 193 176 -77 109 -167 -167 -95 -111 -194 -176 77 -109 166 hvcurveto
            11 538 rmoveto
            82 39 -72 -167 -173 -44 -74 -80 -81 -40 74 166 172 44 74 80 hvcurveto
            return
          </CharString>
          <CharString index="4">
            44 vlineto
            -37 5 rlineto
            -13 1 -7 6 15 35 callsubr
            104 -49 53 -111 -92 -62 -36 -61 -22 vhcurveto
            26 -24 rlineto
            31 33 39 14 45 hhcurveto
            54 29 -22 -64 hvcurveto
            -44 vlineto
            -77 -5 rlineto
            -82 -5 -79 -34 -81 vvcurveto
            return
          </CharString>
          <CharString index="5">
            rmoveto
            43 1 -28 30 -37 hhcurveto
            -28 -22 -20 -26 -19 11 -9 8 -8 hvcurveto
            7 -4 9 -6 -15 vvcurveto
            -17 -16 -18 -17 -13 vhcurveto
            25 -28 47 22 39 38 1 50 rlinecurve
            endchar
          </CharString>
          <CharString index="6">
            515 8 rmoveto
            226 vlineto
            39 6 rlineto
            52 -233 -52 vlineto
            80 -8 rlineto
            -151 vlineto
            -18 -23 -30 -9 -35 hhcurveto
            -104 -33 86 139 174 51 75 90 32 23 -8 -11 15 hvcurveto
            10 -7 5 -6 4 -15 19 -80 rcurveline
            72 hlineto
            6 49 4 48 -3 46 rrcurveto
            22 -49 -66 12 -64 hhcurveto
            -179 -108 -96 -204 -178 83 -111 155 68 51 23 34 33 hvcurveto
            return
          </CharString>
          <CharString index="7">
            573 508 rmoveto
            52 11 rlineto
            49 -216 -49 vlineto
            60 20 callgsubr
            -12 vvcurveto
            -325 vlineto
            -256 407 -89 callsubr
            12 vvcurveto
            355 vlineto
            271 -434 rlineto
            106 486 hlineto
            12 6 7 12 3 vhcurveto
            return
          </CharString>
          <CharString index="8">
            44 vlineto
            -38 5 rlineto
            -12 1 -7 5 16 vvcurveto
            331 vlineto
            -15 15 rlineto
            -49 -64 -6 -12 -49 hvcurveto
            -48 vlineto
            46 -9 rlineto
            11 -2 6 -48 callgsubr
            return
          </CharString>
          <CharString index="9">
            -45 callsubr
            -426 -106 callsubr
            return
          </CharString>
          <CharString index="10">
            rmoveto
            35 -22 22 -33 -35 -22 -22 -35 -35 22 -23 35 33 22 23 35 vhcurveto
            171 hmoveto
            35 -21 22 -34 -34 -23 -22 -35 -35 23 -23 34 34 21 40 callsubr
          </CharString>
          <CharString index="11">
            rmoveto
            -51 73 -186 -122 20 -40 71 21 96 32 50 36 rlinecurve
            return
          </CharString>
          <CharString index="12">
            rmoveto
            70 40 72 53 34 44 -65 60 rcurveline
            -141 -162 rlineto
            endchar
          </CharString>
          <CharString index="13">
            rmoveto
            -48 -1 -65 -6 -48 -14 rrcurveto
            -48 vlineto
            47 -8 rlineto
            11 -2 6 -48 callgsubr
            -291 vlineto
            -92 -23 -42 -86 -47 vhcurveto
            21 -48 53 14 51 19 36 30 rlinecurve
            41 34 19 43 94 vvcurveto
            370 vlineto
            return
          </CharString>
          <CharString index="14">
            47 callsubr
            -88 callgsubr
            return
          </CharString>
          <CharString index="15">
            24 42 rmoveto
            20 -42 rlineto
            343 hlineto
            6 46 1 49 -4 47 -52 6 rcurveline
            -25 -78 -3 -11 -7 -4 -13 -2 rlinecurve
            -4 -20 -25 -1 -24 hhcurveto
            -59 hlineto
            235 324 -19 42 rlineto
            -329 hlineto
            -4 -43 2 -52 6 -47 rrcurveto
            53 hlineto
            17 71 4 14 7 4 12 2 rlinecurve
            2 15 22 1 20 hhcurveto
            59 hlineto
            return
          </CharString>
          <CharString index="16">
            rlineto
            26 -1 19 -10 -22 vvcurveto
            -26 -26 -19 -49 -4 vhcurveto
            6 -39 rlineto
            -1 7 6 0 8 hhcurveto
            81 58 37 56 38 -28 25 -40 3 hvcurveto
            -13 hlineto
            return
          </CharString>
          <CharString index="17">
            rmoveto
            49 11 rlineto
            49 -260 -49 vlineto
            56 20 callgsubr
            -12 vvcurveto
            -365 vlineto
            -125 -17 -40 -95 -56 vhcurveto
            22 -49 rlineto
            174 54 35 63 169 vvcurveto
            349 vlineto
            12 6 7 12 3 vhcurveto
            return
          </CharString>
          <CharString index="18">
            rlineto
            -196 -106 callsubr
            227 47 vlineto
            -66 34 callgsubr
            return
          </CharString>
          <CharString index="19">
            rmoveto
            37 -26 24 -39 -41 -26 -24 -37 -37 26 -24 41 39 26 24 37 vhcurveto
            return
          </CharString>
          <CharString index="20">
            rmoveto
            -41 24 rlineto
            -43 -26 -38 -18 -41 hhcurveto
            -44 -37 19 42 -24 hvcurveto
            -47 -24 rlineto
            -63 13 57 -52 78 hhcurveto
            75 58 50 65 17 hvcurveto
            return
          </CharString>
          <CharString index="21">
            rmoveto
            107 96 117 -95 38 35 -118 146 -73 -7 -107 -142 rlineto
            endchar
          </CharString>
          <CharString index="22">
            186 409 rmoveto
            -18 15 -43 -1 -54 -7 -44 -13 -53 callsubr
            257 47 vlineto
            -65 7 -39 callgsubr
            -7 7 13 vvcurveto
            return
          </CharString>
          <CharString index="23">
            -64 callgsubr
            7 return
          </CharString>
          <CharString index="24">
            127 -6 52 -46 46 216 56 206 49 -5 -20 20 callsubr
            216 129 hintmask 10110110
            40 262 rmoveto
            70 hlineto
            hintmask 01110110
            -185 vlineto
            -10 -6 -7 -10 30 callsubr
            134 vlineto
            31 55 -5 -1 34 hvcurveto
            hintmask 10110110
            178 -3 106 109 202 vvcurveto
            184 -89 87 -186 vhcurveto
            hintmask 10101110
            -43 -39 -5 -49 hhcurveto
            -132 -49 hlineto
            59 -12 rlineto
            9 -2 6 -7 -9 vvcurveto
            -171 -70 vlineto
            189 -264 rmoveto
            208 105 56 -105 vlineto
            hintmask 10110110
            199 vlineto
            1 9 22 6 26 hhcurveto
            112 47 -85 -155 -175 -56 -61 -96 -2 hvcurveto
            hintmask 10101110
            -20 -28 2 6 -16 hvcurveto
            endchar
          </CharString>
          <CharString index="25">
            60 14 35 callgsubr
            45 -11 10 -2 7 -5 5 -9 rlinecurve
            155 -271 rlineto
            -140 vlineto
            -12 -7 -6 -11 -2 vhcurveto
            -70 -14 rlineto
            -47 vlineto
            return
          </CharString>
          <CharString index="26">
            151 rmoveto
            71 -58 37 -84 40 vhcurveto
            hintmask 10011101
            -68 32 -49 18 45 vvcurveto
            31 22 23 47 25 21 -6 -10 12 vhcurveto
            hintmask 11000101
            9 -6 4 -7 1 -11 15 -67 rcurveline
            65 hlineto
            hintmask 10100011
            8 41 2 45 -3 42 -29 12 -39 9 -40 4 rrcurveto
            hintmask 10010011
            84 -66 vlineto
            hintmask 10101011
            -83 vlineto
            -108 -8 -53 -57 -70 vvcurveto
            -76 65 -36 72 -33 vhcurveto
            hintmask 10010101
            66 -31 50 -21 -46 vvcurveto
            -36 -28 -25 -48 -37 -28 14 13 -14 vhcurveto
            -7 6 -5 6 -2 11 -13 74 rcurveline
            -68 hlineto
            -6 -38 -4 -52 2 -45 32 -15 48 -16 55 -6 rrcurveto
            -84 65 83 vlineto
            121 8 50 69 67 vvcurveto
            endchar
          </CharString>
          <CharString index="27">
            -8 65 -64 60.5 return
          </CharString>
          <CharString index="28">
            -14 callgsubr
            1 callgsubr
            hintmask 01011110
            -71 callsubr
            hintmask 10111110
            15 callgsubr
            hintmask 10011110
            -52 callgsubr
            hintmask 01111110
            -110 402 rlineto
            hintmask 01011110
            -63 callgsubr
            return
          </CharString>
          <CharString index="29">
            -13 -100 callgsubr
            return
          </CharString>
          <CharString index="30">
            34 -80 callsubr
            370.5 -20 return
          </CharString>
          <CharString index="31">
            122 rmoveto
            -84 79 -49 116 vhcurveto
            hintmask 11100100
            122 81 55 90 74 -56 38 -61 31 hvcurveto
            hintmask 11011000
            53 21 38 43 53 vvcurveto
            71 -69 47 -100 -108 -70 -55 -82 -58 36 -38 42 -27 vhcurveto
            hintmask 11101000
            -63 -21 -40 -49 -60 vvcurveto
            hintmask 11011000
            129 280 rmoveto
            36 26 24 42 45 30 -27 -51 -27 -10 -32 -31 -24 vhcurveto
            -57 28 -45 26 47 vvcurveto
            hintmask 11100100
            71 -362 rmoveto
            -51 -46 30 62 37 16 33 32 23 hvcurveto
            3 -2 4 -2 4 -2 rrcurveto
            63 -32 55 -23 -54 vvcurveto
            -39 -29 -31 -51 vhcurveto
            endchar
          </CharString>
          <CharString index="32">
            458 hmoveto
            10 53 6 78 -2 50 -64 8 rcurveline
            -35 -103 -3 -12 -7 -7 -10 -4 rlinecurve
            -5 -15 -25 -3 -31 hhcurveto
            -114 hlineto
            306 472 -18 42 rlineto
            -387 hlineto
            return
          </CharString>
          <CharString index="33">
            277 vlineto
            11 5 8 12 3 vhcurveto
            41 10 rlineto
            49 return
          </CharString>
          <CharString index="34">
            3 -11 -15 4 -13 hhcurveto
            -25 -25 -15 -25 -19 hvcurveto
            26 -29 -45 13 -56 hhcurveto
            -117 -71 -53 -97 -55 23 -44 53 -23 hvcurveto
            return
          </CharString>
          <CharString index="35">
            5 callgsubr
            hstemhm
            215 122 5 198 hintmask 10110000
            -46 callsubr
            hintmask 10101000
            -68 callsubr
            hintmask 11110000
            -111 212 rlineto
            hintmask 10110000
            -82 callsubr
            return
          </CharString>
          <CharString index="36">
            520 -3 rmoveto
            107 hlineto
            140 492 3 11 6 5 10 3 rlinecurve
            49 11 rlineto
            49 -198 -49 vlineto
            66 -14 rlineto
            return
          </CharString>
          <CharString index="37">
            rmoveto
            -65 -60 35 -45 66 -52 68 -40 rlinecurve
            32 37 rlineto
            endchar
          </CharString>
          <CharString index="38">
            -203 0 18 callsubr
            return
          </CharString>
          <CharString index="39">
            139 273 4 9 8 4 9 3 rlinecurve
            43 10 rlineto
            49 -198 -49 vlineto
            66 -14 -105 -212 rlineto
            return
          </CharString>
          <CharString index="40">
            rmoveto
            44 37 57 68 27 47 -73 42 rcurveline
            -91 -166 rlineto
            187 -28 rmoveto
            46 35 60 65 30 47 -70 45 rcurveline
            -101 -162 rlineto
            endchar
          </CharString>
          <CharString index="41">
            -108 -95 -115 94 -38 -35 117 -146 73 7 rlineto
            return
          </CharString>
          <CharString index="42">
            26 0 55 334 180 -51 51 hstemhm
            20 454 hintmask 10110000
            -75 callsubr
            hintmask 11010000
            -10 -56 -4 -65 3 -59 rrcurveto
            66 hlineto
            hintmask 10110000
            -42 callgsubr
            return
          </CharString>
          <CharString index="43">
            -51 -34 -5 -43 hhcurveto
            -131 -49 hlineto
            -84 callsubr
            -7 -12 vvcurveto
            -408 vlineto
            -12 -7 -7 -11 -2 vhcurveto
            -50 callgsubr
            vlineto
            return
          </CharString>
          <CharString index="44">
            -7 -57 callgsubr
            return
          </CharString>
          <CharString index="45">
            214 rmoveto
            hintmask 10101000
            -106 50 -85 101 -17 vhcurveto
            -82 65 80 vlineto
            67 8 53 33 21 46 -28 27 rcurveline
            -22 -20 -32 -22 -49 hhcurveto
            hintmask 10111000
            -69 -37 56 104 99 37 52 52 19 17 -6 -9 10 hvcurveto
            7 -6 5 -8 3 -16 17 -69 rcurveline
            58 hlineto
            hintmask 11000100
            8 42 3 46 -3 46 -24 13 -39 12 -41 5 rrcurveto
            hintmask 10100100
            79 -66 -79 vlineto
            hintmask 10111000
            -111 -12 -74 -78 -131 vvcurveto
            endchar
          </CharString>
          <CharString index="46">
            450 hmoveto
            47 vlineto
            -85 14 -39 callgsubr
            -6 6 12 vvcurveto
            436 34 vlineto
            24 21 -3 -4 13 hvcurveto
            10 -4 5 -6 2 -10 rrcurveto
            return
          </CharString>
          <CharString index="47">
            43 7 41 30 48 vvcurveto
            54 -54 36 -70 -51 -54 -19 -45 -21 vhcurveto
            21 -23 rlineto
            20 23 27 8 27 hhcurveto
            35 29 -15 -33 return
          </CharString>
          <CharString index="48">
            hvcurveto
            11 -5 7 -6 3 -12 18 -68 rcurveline
            return
          </CharString>
          <CharString index="49">
            251 hmoveto
            47 vlineto
            -40 7 -77 callgsubr
            59 vlineto
            55 55 8 -14 8 -16 9 -17 rlinecurve
            35 -75 rlineto
            -37 18 13 -31 23 hhcurveto
            138 47 hlineto
            -42 11 -12 3 -7 4 -6 14 rlinecurve
            -64 116 -16 30 -13 21 -16 20 rlinecurve
            76 76 11 10 7 3 19 3 rlinecurve
            42 11 rlineto
            44 -211 -44 vlineto
            68 -12 -143 -154 rlineto
            return
          </CharString>
          <CharString index="50">
            270 -28 callsubr
            hintmask 11011000
            -60 callsubr
            hvcurveto
            hintmask 10111000
            -34 -28 -24 -60 vhcurveto
            -10 hlineto
            hintmask 11010100
            -43 38 vlineto
            -13 callsubr
            endchar
          </CharString>
          <CharString index="51">
            rmoveto
            -53 -72 48 -37 91 -35 70 -24 rlinecurve
            23 41 rlineto
            return
          </CharString>
          <CharString index="52">
            -74 429 rmoveto
            71 25 25 42 46 20 -28 -69 -65 -19 -32 -46 -46 -22 31 67 vhcurveto
            return
          </CharString>
          <CharString index="53">
            0 -74 callgsubr
            302.5 70 return
          </CharString>
          <CharString index="54">
            -100 callgsubr
            -12 -2 vhcurveto
            -41 -51 callsubr
            return
          </CharString>
          <CharString index="55">
            hmoveto
            10 48 5 62 51 vvcurveto
            -59 7 -31 -69 -4 -11 -7 -5 -15 -3 rlinecurve
            -4 -16 -32 -3 -32 hhcurveto
            -89 hlineto
            181 115 78 78 97 vvcurveto
            93 -70 56 -92 -94 -61 -55 -64 -25 vhcurveto
            36 -31 rlineto
            41 29 34 22 39 hhcurveto
            44 37 -27 -54 -70 -61 -61 -174 -152 hvcurveto
            21 -61 rlineto
            endchar
          </CharString>
          <CharString index="56">
            -7 rlineto
            -47 return
          </CharString>
          <CharString index="57">
            -60 31 -34 44 36 26 25 36 26 -14 17 -15 10 vhcurveto
            -13 8 -10 3 20 vvcurveto
            32 29 37 35 28 vhcurveto
            -23 29 rlineto
            -66 -34 -60 -65 -78 vvcurveto
            return
          </CharString>
          <CharString index="58">
            37 -27 25 -40 -40 -27 -25 -37 -38 27 -25 40 40 27 25 38 vhcurveto
            endchar
          </CharString>
          <CharString index="59">
            1 -6 7 12 vvcurveto
            275 return
          </CharString>
          <CharString index="60">
            91 0 47 122 56 252 93 0 -20 return
          </CharString>
          <CharString index="61">
            424 hmoveto
            47 vlineto
            -69 14 -39 callgsubr
            -6 6 12 vvcurveto
            139 vlineto
            return
          </CharString>
          <CharString index="62">
            4 52 0 49 -5 49 rrcurveto
            return
          </CharString>
          <CharString index="63">
            91 rmoveto
            218 hlineto
            hintmask 10110000
            -91 106 vlineto
            hintmask 01110000
            91 78 71 vlineto
            -78 -4 rlineto
            115 vlineto
            -93 -5 -12 -114 -154 -8 75 63 57 103 90 170 rlinecurve
            -16 22 rlineto
            -100 hlineto
            -61 -129 -64 -119 -71 -113 rrcurveto
            endchar
          </CharString>
          <CharString index="64">
            -133 -49 hlineto
            59 -12 rlineto
            10 -2 6 -7 -9 vvcurveto
            -412 vlineto
            -10 -7 -7 -9 -2 vhcurveto
            -59 -11 rlineto
            -47 134 vlineto
            return
          </CharString>
          <CharString index="65">
            238 508 -90 callsubr
            return
          </CharString>
          <CharString index="66">
            rmoveto
            24 60 22 78 9 67 -88 10 rcurveline
            -15 -205 rlineto
            endchar
          </CharString>
          <CharString index="67">
            503 rmoveto
            hintmask 10110000
            -58 10 -35 -30 -68 -35 -56 -13 rlinecurve
            8 -49 29 1 48 7 21 6 rlinecurve
            -320 vlineto
            -13 -7 -7 -12 -1 vhcurveto
            -85 -13 rlineto
            -46 304 46 vlineto
            -71 12 -39 callgsubr
            -6 7 12 vvcurveto
            endchar
          </CharString>
          <CharString index="68">
            620 91 rmoveto
            -28 19 rlineto
            -31 -24 -42 -16 -41 hhcurveto
            -69 -39 43 120 hvcurveto
            1 240 vlineto
            3 17 3 22 17 vvcurveto
            86 -55 55 -105 -59 -46 -18 -32 -33 vhcurveto
            32 -23 -37 18 -57 hhcurveto
            -79 -67 -35 -62 -22 hvcurveto
            return
          </CharString>
          <CharString index="69">
            59 0 73 409 88 0 -20 hstemhm
            23 499 hintmask 10110000
            500 hmoveto
            22 56 -194 514 rlineto
            -113 hlineto
            -192 -514 22 -56 rlineto
            57 73 rmoveto
            hintmask 11010000
            142 409 148 -409 rlineto
            endchar
          </CharString>
          <CharString index="70">
            21 21 29 17 33 hhcurveto
            42 23 -26 -38 -64 -66 -58 -109 -78 hvcurveto
            endchar
          </CharString>
          <CharString index="71">
            0 -74 callgsubr
            299.5 63 return
          </CharString>
          <CharString index="72">
            -161 rmoveto
            -17 28 callgsubr
            -21 13 26 36 41 38 58 17 hvcurveto
            -45 9 -34 -12 rlineto
            -62 -23 -48 -42 -50 vvcurveto
            -50 43 -24 55 -1 vhcurveto
            35 39 11 17 27 hvcurveto
            endchar
          </CharString>
          <CharString index="73">
            -17 16 -25 -5 -32 -10 -30 -13 rlinecurve
            16 -30 -33 11 -31 hhcurveto
            -103 -111 -104 -106 hvcurveto
            -31 -194 vlineto
            return
          </CharString>
          <CharString index="74">
            8 12 2 vhcurveto
            57 11 rlineto
            return
          </CharString>
          <CharString index="75">
            -4 -10 30 vhcurveto
            -473 vlineto
            -12 -7 -7 -11 -2 vhcurveto
            -41 -51 callsubr
            return
          </CharString>
          <CharString index="76">
            -67 -12 -24 callgsubr
          </CharString>
          <CharString index="77">
            -17 16 -25 -5 -32 -10 -30 -14 rlinecurve
            17 -30 -34 11 -31 hhcurveto
            -103 -111 -104 -106 hvcurveto
            -30 vlineto
            return
          </CharString>
          <CharString index="78">
            -56 -9 72 164 45 103 49 return
          </CharString>
          <CharString index="79">
            rmoveto
            -29 29 48 -19 59 hhcurveto
            95 56 48 58 59 -52 29 -57 hvcurveto
            return
          </CharString>
          <CharString index="80">
            85 vstem
            182 65 -14 callsubr
            return
          </CharString>
          <CharString index="81">
            219 vlineto
            12 6 -33 callsubr
            49 -268 -49 vlineto
            -84 callsubr
            -7 -13 vvcurveto
            -407 vlineto
            -12 -7 -7 -11 -2 vhcurveto
            -50 callgsubr
            vlineto
            return
          </CharString>
          <CharString index="82">
            571 rmoveto
            49 -31 29 -35 -30 -27 -22 -33 -20 10 -14 12 -10 vhcurveto
            9 -7 6 -4 -14 vvcurveto
            -24 -21 -29 -30 -21 vhcurveto
            22 -30 rlineto
            70 32 45 55 63 vvcurveto
            endchar
          </CharString>
          <CharString index="83">
            -113 -117 rlineto
            endchar
          </CharString>
          <CharString index="84">
            83 -65 vlineto
            -14 -88 -110 -6 44 39 43 55 72 137 rlinecurve
            -13 16 rlineto
            -78 hlineto
            return
          </CharString>
          <CharString index="85">
            -19 -167 -21 30 -21 200 -21 368 46 return
          </CharString>
          <CharString index="86">
            -48 -18 -30 -29 -49 vvcurveto
            -66 55 -48 126 vhcurveto
            return
          </CharString>
          <CharString index="87">
            hstemhm
            90 112 191 112 -109 108 return
          </CharString>
          <CharString index="88">
            hmoveto
            -16 callgsubr
          </CharString>
          <CharString index="89">
            rmoveto
            -35 20 rlineto
            -26 -15 -19 -21 -23 hhcurveto
            return
          </CharString>
          <CharString index="90">
            rmoveto
            -35 19 rlineto
            -24 -16 -20 -21 -24 hhcurveto
            return
          </CharString>
          <CharString index="91">
            344 570 rmoveto
            -112 hlineto
            return
          </CharString>
          <CharString index="92">
            rmoveto
            56 vlineto
            -213 167 -32 -40 124 -155 -126 -152 34 -40 rlineto
            return
          </CharString>
          <CharString index="93">
            rmoveto
            -80 callgsubr
            return
          </CharString>
          <CharString index="94">
            51 28 -15 -34 -36 -31 -20 -46 -35 -36 12 15 -23 hvcurveto
            return
          </CharString>
          <CharString index="95">
            26 -24 rlineto
            31 33 41 14 40 hhcurveto
            54 32 -23 -63 hvcurveto
            -43 vlineto
            -77 -6 rlineto
            -82 -4 -79 -36 -81 vvcurveto
            -62 46 -38 77 64 54 26 45 32 vhcurveto
            return
          </CharString>
          <CharString index="96">
            vlineto
            -12 -72 callgsubr
            -50 callgsubr
            return
          </CharString>
          <CharString index="97">
            -16 15 -49 -1 -66 -9 -49 4 callgsubr
            -482 vlineto
            -12 -7 -8 -11 -2 vhcurveto
            -41 -51 callsubr
            vlineto
            return
          </CharString>
          <CharString index="98">
            rmoveto
            -42 22 rlineto
            -45 -25 -32 -19 -39 hhcurveto
            -39 -32 20 44 -22 hvcurveto
            -47 -22 rlineto
            -66 14 50 -52 72 hhcurveto
            72 51 49 69 19 hvcurveto
            endchar
          </CharString>
          <CharString index="99">
            -58 hlineto
            -5 -35 -2 -42 5 -39 rrcurveto
            return
          </CharString>
          <CharString index="100">
            -46 30 50 -26 71 hhcurveto
            80 68 34 66 20 hvcurveto
            -168 284 rmoveto
            43 22 -36 -50 hvcurveto
            -17 -138 vlineto
            75 8 27 28 38 hhcurveto
            return
          </CharString>
          <CharString index="101">
            rlineto
            -47 205 47 vlineto
            return
          </CharString>
          <CharString index="102">
            92 -15 -20 hstemhm
            90 112 -109 108 193 112 return
          </CharString>
          <CharString index="103">
            196 -51 51 28 callsubr
            return
          </CharString>
          <CharString index="104">
            -7 -69 1 -57 7 -70 rrcurveto
            59 hlineto
            return
          </CharString>
          <CharString index="105">
            137 21 callsubr
            return
          </CharString>
          <CharString index="106">
            -11 -9 50 334 50 return
          </CharString>
          <CharString index="107">
            96 -11 52 486 52 return
          </CharString>
          <CharString index="108">
            -39 callgsubr
            -5 7 return
          </CharString>
          <CharString index="109">
            -55 -6 134 134 -51 51 -219 -218 219 -218 51 51 -134 134 55 -5 rlineto
            return
          </CharString>
          <CharString index="110">
            -4 47 -22 -21 253 47 -32 47 209 47 -3 -20 hstemhm
            27 91 112 92 93 92 111 93 return
          </CharString>
          <CharString index="111">
            -204 hmoveto
            72 19 34 33 39 21 -41 -77 -72 -19 -34 -33 -38 -22 40 78 vhcurveto
            593 -257 rmoveto
            return
          </CharString>
          <CharString index="112">
            27 callsubr
            39 callsubr
            return
          </CharString>
          <CharString index="113">
            -40 -86 -47 -86 -56 -85 rrcurveto
            endchar
          </CharString>
          <CharString index="114">
            32 callgsubr
            110 return
          </CharString>
          <CharString index="115">
            -44 -90 -61 -18 -113 -15 rrcurveto
            return
          </CharString>
          <CharString index="116">
            -7 -11 -2 vhcurveto
            -42 -8 rlineto
            -46 249 46 vlineto
            -58 8 rlineto
            -12 1 -6 8 11 vvcurveto
            return
          </CharString>
          <CharString index="117">
            30 -4 -9 28 vhcurveto
            -529 vlineto
            -12 29 65 -16 63 hhcurveto
            148 80 88 148 hvcurveto
            return
          </CharString>
          <CharString index="118">
            -187 -151 62.5 return
          </CharString>
          <CharString index="119">
            hstem
            2 callgsubr
            return
          </CharString>
          <CharString index="120">
            4 -6 5 13 vvcurveto
            return
          </CharString>
          <CharString index="121">
            vhcurveto
            hintmask 01111010
            11 -8 3 -9 2 -10 15 -72 rcurveline
            64 hlineto
            hintmask 01110110
            8 46 3 43 return
          </CharString>
          <CharString index="122">
            -41 -51 callsubr
            113 -2 vlineto
            -53 -19 -49 -41 -52 vvcurveto
            -50 43 -24 56 -1 vhcurveto
            return
          </CharString>
          <CharString index="123">
            rmoveto
            58 -39 37 -61 -61 -39 -37 -58 -57 39 -37 61 61 39 37 57 vhcurveto
            endchar
          </CharString>
          <CharString index="124">
            vlineto
            -12 -7 -8 -57 callgsubr
            -90 -9 rlineto
            -47 vlineto
            -7 61 78 -4 55 hhcurveto
            endchar
          </CharString>
          <CharString index="125">
            -74 callgsubr
            373.5 -20 return
          </CharString>
          <CharString index="126">
            rmoveto
            268 68 -268 hlineto
            return
          </CharString>
          <CharString index="127">
            hstemhm
            2 callgsubr
            return
          </CharString>
          <CharString index="128">
            -9 48 callsubr
            return
          </CharString>
          <CharString index="129">
            107 141 rlineto
            endchar
          </CharString>
          <CharString index="130">
            112 59 112 return
          </CharString>
          <CharString index="131">
            vlineto
            hintmask 01110110
            47 vlineto
            -87 12 rlineto
            -8 1 -9 8 9 vvcurveto
            47 return
          </CharString>
          <CharString index="132">
            170 -9 72 -71 65 114 45 11 45 76 76 -49 49 return
          </CharString>
          <CharString index="133">
            rmoveto
            68 hlineto
            18 305 rlineto
            -104 hlineto
            return
          </CharString>
          <CharString index="134">
            47 197 47 234 48 -5 -20 return
          </CharString>
          <CharString index="135">
            hstemhm
            23 65 140 119 return
          </CharString>
          <CharString index="136">
            -73 -9 72 310 52 return
          </CharString>
          <CharString index="137">
            -2 43 callgsubr
            return
          </CharString>
          <CharString index="138">
            -174 -21 36 -21 171 73 -73 94 339 -20 hstemhm
            return
          </CharString>
          <CharString index="139">
            71 vlineto
            27 25 -3 -5 14 hvcurveto
            11 -5 7 -6 3 -12 return
          </CharString>
          <CharString index="140">
            -15 -4 -14 hhcurveto
            -28 -20 13 26 33 34 34 50 19 hvcurveto
            return
          </CharString>
          <CharString index="141">
            -75 41 -47 95 -8 vhcurveto
            -3 29 34 -2 25 hhcurveto
            endchar
          </CharString>
          <CharString index="142">
            vvcurveto
            189 vlineto
            return
          </CharString>
          <CharString index="143">
            0 170 -46 46 56 47 186 42 -42 47 hstemhm
            return
          </CharString>
          <CharString index="144">
            -227 -174 -21 619 -20 return
          </CharString>
          <CharString index="145">
            60 callsubr
            7 return
          </CharString>
          <CharString index="146">
            hstemhm
            110 118 return
          </CharString>
          <CharString index="147">
            23 35 vhcurveto
            endchar
          </CharString>
          <CharString index="148">
            7 49 285 153 -46 47 -47 130 hstemhm
            return
          </CharString>
          <CharString index="149">
            vlineto
            15 -14 rlineto
            54 78 4 7 61 hvcurveto
            endchar
          </CharString>
          <CharString index="150">
            132 -116 114 return
          </CharString>
          <CharString index="151">
            11 38 callsubr
            return
          </CharString>
          <CharString index="152">
            -56 0 48 318 48 return
          </CharString>
          <CharString index="153">
            -85 -11 47 343 45 return
          </CharString>
          <CharString index="154">
            hstem
            90 114 return
          </CharString>
          <CharString index="155">
            50 478 49 return
          </CharString>
          <CharString index="156">
            103 -78 104 143 100 -92 118 hintmask 11101000
            return
          </CharString>
          <CharString index="157">
            -18 -49 -41 -50 vvcurveto
            -50 42 -24 56 -1 vhcurveto
            return
          </CharString>
          <CharString index="158">
            68 62 60 vlineto
            -62 -3 rlineto
            return
          </CharString>
          <CharString index="159">
            hstemhm
            110 68 309 68 return
          </CharString>
          <CharString index="160">
            246 77 179 -20 hstem
            return
          </CharString>
          <CharString index="161">
            hstemhm
            38 63 -60 106 return
          </CharString>
          <CharString index="162">
            112 78 112 return
          </CharString>
          <CharString index="163">
            hstemhm
            28 117 return
          </CharString>
          <CharString index="164">
            222 56 105 33 -33 43 106 59 hstemhm
            return
          </CharString>
          <CharString index="165">
            -76 150 311 50 -50 129 hstemhm
            return
          </CharString>
          <CharString index="166">
            -5 -20 199 -21 24 -21 hstemhm
            110 return
          </CharString>
          <CharString index="167">
            rlineto
            -11 2 -6 return
          </CharString>
        <CharString name=".notdef">
          158 0 92 329 94 hstem
          64 96 325 94 vstem
          160 141 rmoveto
          125 115 -125 123 41 42 121 -128 119 128 44 -42 -127 -122 127 -124 -41 -41 -123 128 -118 -128 rlineto
          -139 -92 rmoveto
          515 515 -515 hlineto
          endchar
        </CharString>
        <CharString name="A">
          -47 callsubr
          -5 callgsubr
          hintmask 11010100
          -16 callsubr
          hintmask 11101000
          -168 -493 -96 callgsubr
          -172 148 -30 callgsubr
        </CharString>
        <CharString name="AE">
          -79 callgsubr
          endchar
        </CharString>
        <CharString name="Aacute">
          -47 callsubr
          -5 callgsubr
          hintmask 11010100
          -16 callsubr
          hintmask 11101000
          -168 -493 -96 callgsubr
          -79 619 -96 callsubr
          -93 -471 -30 callgsubr
        </CharString>
        <CharString name="Abreve">
          -47 callsubr
          63 78 58 -21 -5 callgsubr
          hintmask 11011101
          -16 callsubr
          hintmask 11101110
          -168 -493 -96 callgsubr
          -77 651 -87 callsubr
          -95 -503 -30 callgsubr
        </CharString>
        <CharString name="Acircumflex">
          -47 callsubr
          89 -20 23 -20 -5 callgsubr
          hintmask 11010101
          -16 callsubr
          hintmask 11010110
          -168 -493 -96 callgsubr
          -349 526 -81 callgsubr
          rlineto
          hintmask 11101010
          -113 -117 rlineto
          209 -414 -30 callgsubr
        </CharString>
        <CharString name="Adieresis">
          -47 callsubr
          65 116 63 callgsubr
          -63 55 callsubr
          hintmask 11011011
          -16 callsubr
          hintmask 11011101
          -168 -493 -96 callgsubr
          hintmask 11101011
          -265 596 -90 callgsubr
          -97 -448 -30 callgsubr
        </CharString>
        <CharString name="Agrave">
          -47 callsubr
          96 -20 -5 callgsubr
          hintmask 11011010
          -16 callsubr
          hintmask 11101100
          -168 -493 -96 callgsubr
          -311 696 -56 callsubr
          -40 -421 -30 callgsubr
        </CharString>
        <CharString name="Amacron">
          -47 callsubr
          86 68 -5 callgsubr
          -425 268 hintmask 11011010
          -16 callsubr
          hintmask 11011100
          -168 -493 -96 callgsubr
          hintmask 11101001
          -360 559 19 callsubr
          188 -479 -30 callgsubr
        </CharString>
        <CharString name="Aogonek">
          91 -189 63 126 47 122 56 252 93 0 -20 63 callgsubr
          155 91 hintmask 11101110
          557 -161 rmoveto
          -18 55 callgsubr
          -16 -4 -13 hhcurveto
          -28 -21 13 26 33 36 36 53 18 hvcurveto
          44 47 hlineto
          -44 12 -11 3 -6 5 -4 10 rlinecurve
          -171 493 rlineto
          -112 hlineto
          -168 -493 -3 -10 -7 -5 -10 -3 rlinecurve
          -48 -12 -6 callsubr
          -70 13 34 109 rlineto
          197 hlineto
          35 -109 -71 -13 rlineto
          -47 133 -2 vlineto
          -54 -19 -49 -41 -52 vvcurveto
          -50 43 -24 55 -1 vhcurveto
          35 41 11 17 27 hvcurveto
          -214 386 rmoveto
          -160 hlineto
          hintmask 11110110
          78 252 rlineto
          endchar
        </CharString>
        <CharString name="Aring">
          91 0 47 122 56 344 -20 151 45 63 callgsubr
          -23 64 94 63 hintmask 11110110
          399 39 callgsubr
          -40 18 -30 35 -15 vhcurveto
          hintmask 11111010
          -167 -490 -96 callgsubr
          -171 492 rlineto
          hintmask 11110110
          33 15 22 29 38 vvcurveto
          7 callgsubr
          101 -428 -30 callgsubr
        </CharString>
        <CharString name="Atilde">
          -47 callsubr
          65 76 -53 -20 46 76 -5 callgsubr
          hintmask 1101010010000000
          -16 callsubr
          hintmask 1101100100000000
          -168 -493 -96 callgsubr
          -61 640 -17 callsubr
          hintmask 1101011010000000
          -37 -33 49 -56 hhcurveto
          hintmask 1101010010000000
          -55 -39 -50 -52 -15 hvcurveto
          35 -19 rlineto
          hintmask 1101011010000000
          24 16 19 21 25 hhcurveto
          hintmask 1101100010000000
          37 33 -49 56 hhcurveto
          hintmask 1101100100000000
          55 39 50 52 15 hvcurveto
          -111 -492 rmoveto
          -160 hlineto
          hintmask 1110010010000000
          78 252 rlineto
          endchar
        </CharString>
        <CharString name="B">
          82 -4 49 -45 45 221 53 207 42 -42 47 39 callsubr
          151 118 -93 131 hintmask 10101110
          497 440 rmoveto
          87 -46 46 -152 vhcurveto
          hintmask 01110101
          -49 -35 -5 -47 hhcurveto
          -43 callsubr
          50 27 -4 49 hhcurveto
          hintmask 10101101
          185 55 74 98 83 -57 46 -81 6 hvcurveto
          hintmask 10101110
          62 17 38 47 73 vvcurveto
          -205 -121 rmoveto
          -14 -25 0 1 -25 hvcurveto
          202 vlineto
          2 10 30 2 15 hhcurveto
          68 28 -29 -69 -71 -28 -38 -59 hvcurveto
          hintmask 10101101
          -2 -274 rmoveto
          -21 -25 2 3 -16 hvcurveto
          215 vlineto
          27 27 1 18 hhcurveto
          70 34 -27 -77 -76 -32 -41 -82 hvcurveto
          endchar
        </CharString>
        <CharString name="C">
          33 callgsubr
          hstem
          38 134 vstem
          298 -12 rmoveto
          63 -99 callgsubr
          -182 84 -103 176 hvcurveto
          endchar
        </CharString>
        <CharString name="Cacute">
          33 callgsubr
          hstem
          38 134 vstem
          298 -12 rmoveto
          63 -99 callgsubr
          -182 84 -103 176 hvcurveto
          154 708 -96 callsubr
          endchar
        </CharString>
        <CharString name="Ccaron">
          33 callgsubr
          169 -21 24 -21 hstemhm
          38 134 hintmask 11011000
          298 -12 rmoveto
          63 -99 callgsubr
          -182 84 -103 176 hvcurveto
          hintmask 11101000
          129 777 -65 callgsubr
          hintmask 11011000
          -4 callgsubr
        </CharString>
        <CharString name="Ccedilla">
          42 42 callgsubr
          22 49 489 50 hstemhm
          38 134 115 91 vstemhm
          378 -98 rmoveto
          38 -28 25 -40 3 vhcurveto
          -13 hlineto
          hintmask 10111100
          6 20 rlineto
          58 -99 callgsubr
          -169 73 -101 151 -13 hvcurveto
          hintmask 11111100
          -20 -59 rlineto
          26 -1 19 -10 -22 vvcurveto
          -26 -26 -19 -49 -4 vhcurveto
          6 -39 rlineto
          -1 7 6 0 8 hhcurveto
          81 58 37 56 hvcurveto
          endchar
        </CharString>
        <CharString name="Ccircumflex">
          33 callgsubr
          61 44 callgsubr
          38 134 hintmask 11011000
          298 -12 rmoveto
          63 -99 callgsubr
          -182 84 -103 176 hvcurveto
          -116 615 -81 callgsubr
          rlineto
          hintmask 11101000
          -24 callsubr
        </CharString>
        <CharString name="Cdotaccent">
          33 callgsubr
          42 124 hstem
          38 134 66 134 vstem
          298 -12 rmoveto
          63 -99 callgsubr
          -182 84 -103 176 hvcurveto
          74 694 -53 callgsubr
        </CharString>
        <CharString name="D">
          126 -6 52 -46 46 478 49 -5 -20 20 callsubr
          215 130 hintmask 10101100
          168 568 rmoveto
          hintmask 01011100
          -43 callsubr
          32 55 -5 -1 33 hvcurveto
          hintmask 10101100
          -34 callgsubr
          endchar
        </CharString>
        <CharString name="Dcaron">
          126 -6 52 -46 46 478 49 59 callsubr
          119 215 130 hintmask 10100111
          168 568 rmoveto
          hintmask 01010111
          -43 callsubr
          32 55 -5 -1 33 hvcurveto
          hintmask 10100111
          -34 callgsubr
          hintmask 10101011
          189 711 -65 callgsubr
          hintmask 10100111
          -4 callgsubr
        </CharString>
        <CharString name="Dcroat">
          -83 callsubr
        </CharString>
        <CharString name="E">
          -33 callgsubr
          12 callsubr
          176 57 vstem
          -107 callgsubr
          endchar
        </CharString>
        <CharString name="Eacute">
          -33 callgsubr
          12 callsubr
          176 57 vstem
          -107 callgsubr
          12 278 -96 callsubr
          endchar
        </CharString>
        <CharString name="Ebreve">
          -33 callgsubr
          45 78 58 -21 12 callsubr
          176 57 vstem
          -107 callgsubr
          14 310 -87 callsubr
          endchar
        </CharString>
        <CharString name="Ecaron">
          -33 callgsubr
          179 -21 24 -21 20 callsubr
          176 57 hintmask 11101110
          -107 callgsubr
          hintmask 11110110
          -13 347 -65 callgsubr
          hintmask 11101110
          -4 callgsubr
        </CharString>
        <CharString name="Ecircumflex">
          -33 callgsubr
          71 -20 23 -20 20 callsubr
          176 57 hintmask 11101110
          -107 callgsubr
          -258 185 -81 callgsubr
          rlineto
          hintmask 11110110
          -24 callsubr
        </CharString>
        <CharString name="Edieresis">
          -33 callgsubr
          47 116 20 callsubr
          -110 55 callsubr
          -16 57 hintmask 11101001
          -107 callgsubr
          hintmask 11110110
          -174 255 -90 callgsubr
          endchar
        </CharString>
        <CharString name="Edotaccent">
          -33 callgsubr
          52 124 20 callsubr
          -26 134 68 57 hintmask 11101010
          -107 callgsubr
          hintmask 11110110
          -68 264 -53 callgsubr
        </CharString>
        <CharString name="Egrave">
          -33 callgsubr
          78 -20 12 callsubr
          176 57 vstem
          -107 callgsubr
          -220 355 -56 callsubr
          endchar
        </CharString>
        <CharString name="Emacron">
          -33 callgsubr
          68 68 20 callsubr
          -93 268 1 57 hintmask 11111010
          -107 callgsubr
          -269 218 rmoveto
          hintmask 11110100
          268 68 hlineto
          hintmask 11111010
          -268 hlineto
          endchar
        </CharString>
        <CharString name="Eng">
          168 -188 59 -38 -21 27 -21 182 47 -37 -21 530 49 52 callsubr
          hintmask 01010111
          555 34 rmoveto
          452 vlineto
          12 6 7 12 3 vhcurveto
          52 11 rlineto
          49 -216 -49 vlineto
          60 20 callgsubr
          -12 vvcurveto
          -316 vlineto
          -256 398 -89 callsubr
          13 vvcurveto
          356 vlineto
          hintmask 10001111
          293 -447 -12 -47 -22 -26 -27 -16 rlinecurve
          -26 -17 -36 -9 -29 -3 rrcurveto
          hintmask 00110111
          3 -53 rlineto
          hintmask 01010111
          -3 21 18 -3 26 hhcurveto
          129 39 90 132 hvcurveto
          endchar
        </CharString>
        <CharString name="Eogonek">
          36 -189 63 126 54 204 64 195 51 20 callsubr
          57 91 28 57 hintmask 11111100
          487 -161 rmoveto
          -18 28 callgsubr
          -21 13 26 35 44 38 58 14 hvcurveto
          9 56 6 52 55 vvcurveto
          -57 9 -30 -86 -4 -13 -5 -7 -10 -4 rlinecurve
          -5 -14 -30 -3 -27 hhcurveto
          -88 206 hlineto
          163 -4 rlineto
          69 vlineto
          -163 -6 rlineto
          198 71 vlineto
          hintmask 11111110
          -73 callgsubr
          57 hlineto
          -98 callsubr
          356 -2 vlineto
          hintmask 11111100
          -56 -20 -49 -40 -52 vvcurveto
          -49 43 -25 55 -1 vhcurveto
          36 39 11 17 28 hvcurveto
          endchar
        </CharString>
        <CharString name="Eth">
          -83 callsubr
        </CharString>
        <CharString name="Euro">
          64 52 callgsubr
          110 123 vstem
          493 19 rmoveto
          7 46 2 46 -3 38 -64 5 rcurveline
          -25 -70 -4 -11 -5 -8 -7 -6 rlinecurve
          -10 -11 -24 -11 -24 hhcurveto
          -57 -30 46 85 -11 hvcurveto
          137 48 -140 hlineto
          -1 10 0 11 11 9 0 9 8 vvcurveto
          147 48 -143 hlineto
          98 10 35 41 56 hhcurveto
          21 21 -6 -9 12 hvcurveto
          10 -7 5 -8 4 -17 16 -71 rcurveline
          63 hlineto
          8 50 3 46 -3 41 rrcurveto
          18 -44 -56 9 -48 hhcurveto
          -120 -86 -59 -126 -26 hvcurveto
          -82 -48 75 hlineto
          -1 -12 0 -13 -13 -7 0 -6 -7 vvcurveto
          -79 -48 84 hlineto
          -117 19 72 -61 128 hhcurveto
          52 65 10 18 42 hvcurveto
          endchar
        </CharString>
        <CharString name="Euro.tf">
          -34 52 callgsubr
          62 119 vstem
          -2 169 rmoveto
          68 hlineto
          -121 16 66 -57 122 hhcurveto
          49 61 11 17 42 hvcurveto
          8 45 0 48 -3 38 -64 6 rcurveline
          -21 -68 -4 -15 -6 -9 -8 -7 rlinecurve
          -11 -12 -20 -8 -22 hhcurveto
          -50 -27 44 87 -9 hvcurveto
          121 48 -124 hlineto
          9 0 10 10 10 0 10 9 vvcurveto
          127 48 -124 hlineto
          100 10 32 39 50 hhcurveto
          17 17 -5 -10 11 hvcurveto
          7 -8 2 -7 5 -17 15 -71 rcurveline
          64 hlineto
          8 50 3 46 -3 41 rrcurveto
          19 -42 -52 8 -43 hhcurveto
          -114 -79 -55 -130 -23 hvcurveto
          -68 -48 62 hlineto
          -1 -12 0 -13 -14 -7 0 -6 -6 vvcurveto
          -64 hlineto
          endchar
        </CharString>
        <CharString name="F">
          -2 0 47 202.5 63 204.5 51 12 callsubr
          176 57 vstem
          392 247 rmoveto
          68 vlineto
          -163 -5 rlineto
          207 71 vlineto
          -73 callgsubr
          57 hlineto
          -45 callsubr
          -426 -49 hlineto
          -84 callsubr
          -48 callgsubr
          -408 vlineto
          -11 -6 -7 -11 30 callsubr
          303 47 vlineto
          -93 12 rlineto
          -9 1 -7 8 9 vvcurveto
          175 vlineto
          endchar
        </CharString>
        <CharString name="G">
          94 -11 -3 callgsubr
          40 callgsubr
          hintmask 10111100
          -101 callsubr
          hintmask 01111100
          63 -51 rlineto
          endchar
        </CharString>
        <CharString name="Gbreve">
          94 -11 -3 callgsubr
          35 78 58 -21 40 callgsubr
          hintmask 10111111
          -101 callsubr
          hintmask 01111111
          63 -51 rlineto
          -20 733 -87 callsubr
          endchar
        </CharString>
        <CharString name="Gcircumflex">
          94 -11 -3 callgsubr
          61 -20 23 -20 40 callgsubr
          hintmask 10110111
          -101 callsubr
          hintmask 01110111
          63 -51 rlineto
          -292 608 -81 callgsubr
          rlineto
          hintmask 10111011
          -24 callsubr
        </CharString>
        <CharString name="Gcommaaccent">
          94 -172 -21 182 -3 callgsubr
          hstemhm
          38 138 101 79 45 114 hintmask 11011101
          -101 callsubr
          hintmask 10111111
          63 -51 rlineto
          -135 -106 -102 callsubr
        </CharString>
        <CharString name="Gdotaccent">
          94 -11 -3 callgsubr
          42 124 hstemhm
          38 138 79 134 12 114 hintmask 10110101
          -101 callsubr
          hintmask 01110101
          63 -51 rlineto
          hintmask 10111111
          -102 687 -53 callgsubr
        </CharString>
        <CharString name="H">
          193 0 47 212 60 200 49 callgsubr
          222 119 vstem
          -66 callgsubr
          endchar
        </CharString>
        <CharString name="Hbar">
          193 0 47 194 60 71 48 -48 196 -49 49 20 callsubr
          222 119 hintmask 11101110
          39 372 rmoveto
          71 -293 hlineto
          -12 -72 callgsubr
          -56 -11 rlineto
          -47 258 47 vlineto
          -48 44 callsubr
          12 vvcurveto
          162 222 -162 vlineto
          -12 -6 -7 -11 -2 vhcurveto
          -44 -11 rlineto
          -47 255 47 vlineto
          -58 44 callsubr
          12 vvcurveto
          293 71 48 -71 66 vlineto
          11 6 9 11 2 vhcurveto
          58 11 rlineto
          hintmask 11010110
          49 -255 vlineto
          hintmask 11101110
          -49 vlineto
          44 -11 rlineto
          11 -3 6 -7 -12 vvcurveto
          -66 -222 66 vlineto
          12 5 8 12 2 vhcurveto
          48 11 rlineto
          hintmask 11010110
          49 -258 vlineto
          hintmask 11101110
          -49 vlineto
          -64 callgsubr
          6 -48 callgsubr
          -66 -71 vlineto
          190 -119 rmoveto
          71 222 -71 vlineto
          endchar
        </CharString>
        <CharString name="Hcircumflex">
          193 0 47 212 60 200 49 71 -20 23 -20 20 callsubr
          222 119 hintmask 11101110
          -66 callgsubr
          -427 84 -81 callgsubr
          rlineto
          hintmask 11110110
          -24 callsubr
        </CharString>
        <CharString name="I">
          -1 callgsubr
          -69 callgsubr
          endchar
        </CharString>
        <CharString name="IJ">
          161 0 47 472 49 callgsubr
          202 119 vstem
          -105 callsubr
          265 -11 -90 callsubr
          endchar
        </CharString>
        <CharString name="Iacute">
          -1 callgsubr
          -69 callgsubr
          13 177 -96 callsubr
          endchar
        </CharString>
        <CharString name="Iacute_J.NLD">
          170 0 47 472 49 callgsubr
          210 119 vstem
          -105 callsubr
          13 177 -96 callsubr
          260 -188 -90 callsubr
          66 188 -96 callsubr
          endchar
        </CharString>
        <CharString name="Ibreve">
          -1 callgsubr
          45 78 58 -21 -69 callgsubr
          15 209 -87 callsubr
          endchar
        </CharString>
        <CharString name="Icircumflex">
          -1 callgsubr
          71 -20 23 -20 20 callsubr
          hintmask 11011000
          -105 callsubr
          -257 84 -81 callgsubr
          rlineto
          hintmask 11101000
          -24 callsubr
        </CharString>
        <CharString name="Idieresis">
          -1 callgsubr
          47 116 hstemhm
          18 112 -20 119 -21 112 hintmask 11101000
          -105 callsubr
          hintmask 11110100
          -173 154 -90 callgsubr
          endchar
        </CharString>
        <CharString name="Idotaccent">
          -1 callgsubr
          52 124 hstemhm
          102 134 -126 119 hintmask 11101000
          -105 callsubr
          hintmask 11110000
          -67 163 -53 callgsubr
        </CharString>
        <CharString name="Igrave">
          -1 callgsubr
          78 -20 -69 callgsubr
          -219 254 -56 callsubr
          endchar
        </CharString>
        <CharString name="Imacron">
          -1 callgsubr
          68 68 hstemhm
          35 268 -193 119 hintmask 11101000
          -105 callsubr
          hintmask 11110000
          -268 117 19 callsubr
          endchar
        </CharString>
        <CharString name="Iogonek">
          -148 -189 63 126 47 472 49 hstemhm
          66 91 -47 119 hintmask 11101000
          266 -161 rmoveto
          hintmask 11110000
          -17 45 rlineto
          -6 -15 -15 -4 -15 hhcurveto
          -27 -20 13 26 33 34 36 52 18 hvcurveto
          hintmask 11101000
          60 47 hlineto
          -57 11 1 callsubr
          13 vvcurveto
          406 vlineto
          12 5 -33 callsubr
          49 -268 -49 vlineto
          -84 callsubr
          -48 callgsubr
          -407 vlineto
          -12 -72 callgsubr
          hintmask 11110000
          -50 callgsubr
          130 -2 vlineto
          -52 -19 -47 -41 -52 vvcurveto
          -50 43 -24 55 -1 vhcurveto
          hintmask 11101000
          35 40 11 17 27 hvcurveto
          endchar
        </CharString>
        <CharString name="Itilde">
          -1 callgsubr
          47 50 callgsubr
          110 119 hintmask 11010100
          -105 callsubr
          hintmask 11100100
          31 198 -17 callsubr
          hintmask 11011100
          -37 -33 49 -56 hhcurveto
          hintmask 11010100
          -55 -39 -50 -52 -15 hvcurveto
          35 -19 rlineto
          hintmask 11011100
          24 16 19 21 25 hhcurveto
          hintmask 11100100
          37 33 -49 56 hhcurveto
          55 39 50 52 15 hvcurveto
          endchar
        </CharString>
        <CharString name="J">
          -168 519 49 hstem
          101 119 vstem
          -42 callsubr
          endchar
        </CharString>
        <CharString name="Jacute">
          -168 519 49 hstem
          101 119 vstem
          -42 callsubr
          66 188 -96 callsubr
          endchar
        </CharString>
        <CharString name="Jcircumflex">
          -168 519 49 71 44 callgsubr
          101 119 hintmask 10110000
          -42 callsubr
          -204 95 -81 callgsubr
          rlineto
          hintmask 11010000
          -24 callsubr
        </CharString>
        <CharString name="K">
          113 0 47 460 -20 32 49 39 callsubr
          136 215 hintmask 10111000
          -46 callgsubr
          hintmask 11111000
          65 -12 -201 -240 rlineto
          hintmask 10111000
          -26 callsubr
          endchar
        </CharString>
        <CharString name="Kcommaaccent">
          113 16 callgsubr
          47 460 -20 32 49 39 callsubr
          84 79 -27 215 hintmask 11011010
          -46 callgsubr
          hintmask 11111010
          65 -12 -201 -240 rlineto
          hintmask 11011100
          -26 callsubr
          356 -111 -102 callsubr
        </CharString>
        <CharString name="L">
          23 0 55 464 49 callgsubr
          -92 callgsubr
          endchar
        </CharString>
        <CharString name="Lacute">
          23 0 55 464 49 callgsubr
          -92 callgsubr
          -73 498 -96 callsubr
          endchar
        </CharString>
        <CharString name="Lcaron">
          25 0 55 464 49 callgsubr
          -92 callgsubr
          -28 192 -41 callsubr
        </CharString>
        <CharString name="Lcommaaccent">
          23 16 callgsubr
          55 464 49 callgsubr
          33 79 -92 callgsubr
          -90 -309 -102 callsubr
        </CharString>
        <CharString name="Ldot">
          27 0 55 208 125 131 49 callgsubr
          121 134 -92 callgsubr
          53 128 rmoveto
          -49 callsubr
        </CharString>
        <CharString name="Lslash">
          24 0 55 464 49 hstem
          111 119 vstem
          34 189 rmoveto
          77 30 rlineto
          -140 vlineto
          -12 -6 -7 -13 -2 vhcurveto
          -56 -11 rlineto
          -47 441 vlineto
          13 65 1 66 59 vvcurveto
          -59 8 -34 -111 -4 -12 -7 -7 -11 -4 rlinecurve
          -6 -13 -25 -3 -32 hhcurveto
          -76 207 hlineto
          148 59 rlineto
          62 vlineto
          -148 -62 rlineto
          165 vlineto
          12 6 7 11 2 vhcurveto
          75 12 rlineto
          49 -286 -49 vlineto
          57 20 callgsubr
          -11 vvcurveto
          -209 vlineto
          -77 -30 rlineto
          endchar
        </CharString>
        <CharString name="M">
          335 0 47 439 82 -49 49 hstemhm
          18 218 -218 790 hintmask 10101000
          673 485 rmoveto
          -2 12 6 9 13 2 65 11 rcurveline
          49 -242 vlineto
          -99 -394 -112 394 rlineto
          -241 -49 hlineto
          63 -11 12 -2 6 -9 -2 -12 rlinecurve
          hintmask 11010000
          -49 -406 -1 -11 -6 -7 -11 -2 rlinecurve
          -55 -12 rlineto
          -47 218 47 vlineto
          -78 11 48 424 140 -461 rlineto
          93 hlineto
          118 465 61 -428 -67 -11 rlineto
          -47 257 47 vlineto
          -54 12 -11 2 -6 7 -2 11 rlinecurve
          endchar
        </CharString>
        <CharString name="N">
          168 36 callgsubr
          hstem
          110 68 309 68 vstem
          -100 callsubr
          endchar
        </CharString>
        <CharString name="Nacute">
          168 36 callgsubr
          hstem
          110 68 309 68 vstem
          -100 callsubr
          -97 188 -96 callsubr
          endchar
        </CharString>
        <CharString name="Ncaron">
          168 36 callgsubr
          179 -21 24 -21 52 callsubr
          hintmask 11011100
          -100 callsubr
          hintmask 11101100
          -122 257 -65 callgsubr
          hintmask 11011100
          -4 callgsubr
        </CharString>
        <CharString name="Ncommaaccent">
          168 16 callgsubr
          47 472 49 hstem
          110 68 150 79 80 68 vstem
          -100 callsubr
          -166 -619 -102 callsubr
        </CharString>
        <CharString name="Ntilde">
          168 36 callgsubr
          47 76 -53 -20 46 76 52 callsubr
          hintmask 11010110
          -100 callsubr
          hintmask 11100110
          -79 209 -61 callgsubr
        </CharString>
        <CharString name="O">
          0 callsubr
          hstem
          -10 callgsubr
          vstem
          -104 callsubr
          endchar
        </CharString>
        <CharString name="OE">
          299 -8 49 -41 54 204 64 195 51 -42 49 hstemhm
          38 130 205 118 177 56 hintmask 10101110
          297 41 rmoveto
          -87 -42 70 170 174 44 71 88 24 27 -6 -16 22 hvcurveto
          -439 vlineto
          -18 -23 -26 -6 -27 hhcurveto
          hintmask 01110111
          445 -41 rmoveto
          9 56 5 52 55 vvcurveto
          -56 9 -30 -86 -5 -13 -4 -6 -11 -5 rlinecurve
          -5 -14 -30 -3 -26 hhcurveto
          -89 206 hlineto
          163 -4 rlineto
          69 vlineto
          -163 -6 rlineto
          198 32 callsubr
          19 -68 rcurveline
          56 hlineto
          5 52 0 49 -6 49 rrcurveto
          -347 hlineto
          hintmask 10101110
          5 -25 -26 2 -24 hhcurveto
          -168 -95 -110 -192 -180 79 -101 171 30 28 3 6 27 hvcurveto
          -1 vlineto
          endchar
        </CharString>
        <CharString name="Oacute">
          0 callsubr
          hstem
          -10 callgsubr
          vstem
          -104 callsubr
          146 169 -96 callsubr
          endchar
        </CharString>
        <CharString name="Obreve">
          0 callsubr
          34 78 58 -21 hstem
          -10 callgsubr
          vstem
          -104 callsubr
          148 201 -87 callsubr
          endchar
        </CharString>
        <CharString name="Ocircumflex">
          0 callsubr
          60 44 callgsubr
          -10 callgsubr
          hintmask 11011100
          -104 callsubr
          -124 76 -81 callgsubr
          rlineto
          hintmask 11101100
          -24 callsubr
        </CharString>
        <CharString name="Odieresis">
          0 callsubr
          36 116 hstemhm
          38 130 -28 55 callsubr
          -29 131 hintmask 11010010
          -104 callsubr
          hintmask 11101100
          -40 146 -90 callgsubr
          endchar
        </CharString>
        <CharString name="Ograve">
          0 callsubr
          67 -20 hstem
          -10 callgsubr
          vstem
          -104 callsubr
          -86 246 -56 callsubr
          endchar
        </CharString>
        <CharString name="Ohungarumlaut">
          0 callsubr
          52 -20 22 -20 hstemhm
          -10 callgsubr
          hintmask 11011100
          -104 callsubr
          -103 72 -23 callgsubr
        </CharString>
        <CharString name="Omacron">
          0 callsubr
          57 68 hstemhm
          38 130 -11 268 -12 131 hintmask 11110100
          -104 callsubr
          hintmask 11101000
          -135 109 19 callsubr
          endchar
        </CharString>
        <CharString name="Oslash">
          96 -11 50 -16 -21 526 51 56 -20 hstemhm
          36 124 257 125 hintmask 10111100
          542 294 rmoveto
          112 -31 85 -66 47 vhcurveto
          34 69 -53 28 -34 -70 rlineto
          9 -28 -31 5 -35 hhcurveto
          -167 -95 -111 -194 hvcurveto
          hintmask 01111100
          -113 32 -86 67 -47 vhcurveto
          -40 -80 53 -27 41 81 rlineto
          hintmask 10111100
          -9 26 30 -4 34 hhcurveto
          168 95 112 193 hvcurveto
          -382 -13 rmoveto
          176 45 71 85 31 25 -9 -20 19 vhcurveto
          -181 -387 rlineto
          -16 39 -8 56 74 vvcurveto
          127 -242 rmoveto
          -30 -24 9 18 -19 hvcurveto
          181 387 rlineto
          15 -39 7 -54 -72 vvcurveto
          -176 -46 -73 -84 vhcurveto
          endchar
        </CharString>
        <CharString name="Otilde">
          0 callsubr
          36 50 callgsubr
          -10 callgsubr
          hintmask 11010110
          -104 callsubr
          hintmask 11100110
          164 190 -61 callgsubr
        </CharString>
        <CharString name="P">
          40 0 47 160 49 268 44 -44 48 20 callsubr
          155 122 hintmask 11011100
          229 520 rmoveto
          1 12 12 3 28 hhcurveto
          68 35 -35 -84 -115 -45 -34 -57 -22 -14 1 2 -17 hvcurveto
          106 -212 rmoveto
          -90 12 rlineto
          -9 1 -7 8 9 vvcurveto
          132 vlineto
          -1 18 18 -1 19 hhcurveto
          140 82 74 127 105 -48 59 -161 hvcurveto
          hintmask 11101100
          -58 -32 -4 -36 hhcurveto
          -136 -49 hlineto
          59 -12 rlineto
          10 -2 6 -8 -8 vvcurveto
          -412 vlineto
          -10 -7 -7 -10 30 callsubr
          300 vlineto
          endchar
        </CharString>
        <CharString name="Q">
          96 -153 81 95 -21 525 52 hstem
          -10 callgsubr
          vstem
          498 -153 rmoveto
          46 43 24 20 19 hvcurveto
          -11 40 rlineto
          -1 -11 -13 -2 -16 hhcurveto
          -40 -33 14 24 -38 hvcurveto
          -25 15 -22 12 -27 9 rrcurveto
          110 35 64 104 153 vvcurveto
          173 -77 112 -167 -167 -95 -114 -191 -171 75 -111 160 -3 vhcurveto
          -42 85 31 -100 109 hhcurveto
          -206 680 rmoveto
          82 39 -72 -167 -173 -44 -74 -80 -81 -40 72 168 173 43 73 81 hvcurveto
          endchar
        </CharString>
        <CharString name="R">
          104 0 5 callsubr
          160 125 hintmask 11101100
          -94 callgsubr
          hintmask 11011100
          -64 callsubr
          endchar
        </CharString>
        <CharString name="Racute">
          104 0 5 callsubr
          160 125 hintmask 11101100
          -94 callgsubr
          hintmask 11011100
          -64 callsubr
          395 696 -96 callsubr
          endchar
        </CharString>
        <CharString name="Rcaron">
          104 0 47 197 47 234 48 59 callsubr
          118 160 125 hintmask 11100111
          -94 callgsubr
          hintmask 11011011
          -64 callsubr
          370 765 -65 callgsubr
          hintmask 11100111
          -4 callgsubr
        </CharString>
        <CharString name="Rcommaaccent">
          104 16 callgsubr
          5 callsubr
          80 79 1 125 hintmask 11110101
          -94 callgsubr
          hintmask 11101110
          -64 callsubr
          352 -111 -102 callsubr
        </CharString>
        <CharString name="S">
          -10 -12 49 494 48 hstem
          50 112 160 119 vstem
          -102 callgsubr
          -23 44 67 -21 76 hhcurveto
          151 59 88 82 hvcurveto
          endchar
        </CharString>
        <CharString name="Sacute">
          -10 -12 49 494 48 hstem
          50 112 160 119 vstem
          -102 callgsubr
          -23 44 67 -21 76 hhcurveto
          151 59 88 82 hvcurveto
          -50 538 -96 callsubr
          endchar
        </CharString>
        <CharString name="Scaron">
          -10 -12 49 494 48 168 -21 24 -21 hstemhm
          50 112 160 119 hintmask 11011100
          -102 callgsubr
          -23 44 67 -21 76 hhcurveto
          151 59 88 82 hvcurveto
          hintmask 11101100
          -75 607 -65 callgsubr
          hintmask 11011100
          -4 callgsubr
        </CharString>
        <CharString name="Scedilla">
          -10 42 callgsubr
          20 49 494 48 hstemhm
          50 112 58 91 11 119 hintmask 10111010
          -102 callgsubr
          hintmask 10111110
          37 -19 53 -18 61 -5 rrcurveto
          hintmask 11111110
          -20 -59 -91 callsubr
          hintmask 10111110
          6 20 rlineto
          hintmask 10111010
          146 59 88 82 hvcurveto
          endchar
        </CharString>
        <CharString name="Scircumflex">
          -10 -12 49 494 48 60 44 callgsubr
          50 112 160 119 hintmask 11011100
          -102 callgsubr
          -23 44 67 -21 76 hhcurveto
          151 59 88 82 hvcurveto
          -320 445 -81 callgsubr
          rlineto
          hintmask 11101100
          -24 callsubr
        </CharString>
        <CharString name="Scommaaccent">
          -10 -172 -21 181 49 494 48 hstem
          50 112 44 79 37 119 vstem
          -102 callgsubr
          -23 44 67 -21 76 hhcurveto
          151 59 88 82 hvcurveto
          -156 -269 -102 callsubr
        </CharString>
        <CharString name="T">
          88 0 47 325 -4 callsubr
          139 65 hintmask 10101100
          -61 callsubr
          hintmask 11001100
          31 callgsubr
          hintmask 10111100
          -11 callgsubr
          hintmask 11011100
          -3 callsubr
          hintmask 10101100
          -54 callgsubr
          endchar
        </CharString>
        <CharString name="Tbar">
          88 0 47 176 56 93 -4 callsubr
          139 65 hintmask 11010110
          137 223 rmoveto
          91 -142 hlineto
          -12 41 callgsubr
          -86 -14 rlineto
          -47 326 47 vlineto
          -85 14 -39 callgsubr
          -6 6 12 vvcurveto
          142 90 56 -90 238 34 vlineto
          24 21 -3 -4 13 hvcurveto
          10 -4 5 -6 2 -10 rrcurveto
          hintmask 11100110
          31 callgsubr
          hintmask 11011110
          -11 callgsubr
          hintmask 11101110
          -3 callsubr
          hintmask 11010110
          29 117 2 11 5 6 11 4 rlinecurve
          4 12 22 3 24 hhcurveto
          35 -238 -91 hlineto
          endchar
        </CharString>
        <CharString name="Tcaron">
          88 0 47 325 196 -51 51 179 -21 24 -21 28 callsubr
          139 65 hintmask 10101011
          -61 callsubr
          hintmask 11001011
          31 callgsubr
          hintmask 10101111
          -11 callgsubr
          hintmask 11001111
          -3 callsubr
          hintmask 10110011
          -54 callgsubr
          286 765 -65 callgsubr
          hintmask 10101011
          -4 callgsubr
        </CharString>
        <CharString name="Thorn">
          40 0 47 72 48 230 51 71 49 hstem
          106 117 151 125 vstem
          301 hmoveto
          47 vlineto
          -60 11 -77 callgsubr
          43 vlineto
          -3 24 25 -1 33 hhcurveto
          125 69 54 121 106 -57 48 -113 -33 -37 -4 -3 -36 hvcurveto
          45 vlineto
          12 6 8 12 2 vhcurveto
          60 11 rlineto
          49 -263 -49 vlineto
          50 -11 rlineto
          11 -3 7 -7 -12 vvcurveto
          -407 vlineto
          -12 -72 callgsubr
          -50 -11 rlineto
          -47 vlineto
          247 167 rmoveto
          -18 -22 1 3 -22 hvcurveto
          222 vlineto
          3 20 20 1 19 hhcurveto
          68 24 -46 -62 -88 -35 -34 -54 hvcurveto
          endchar
        </CharString>
        <CharString name="U">
          138 21 callsubr
          hstem
          88 122 248 76 vstem
          -107 callsubr
          endchar
        </CharString>
        <CharString name="Uacute">
          -2 callsubr
          hstem
          88 122 248 76 vstem
          -107 callsubr
          -124 128 -96 callsubr
          endchar
        </CharString>
        <CharString name="Ubreve">
          -2 callsubr
          45 78 58 -21 hstem
          88 122 248 76 vstem
          -107 callsubr
          -122 160 -87 callsubr
          endchar
        </CharString>
        <CharString name="Ucircumflex">
          -2 callsubr
          71 44 callgsubr
          88 122 248 76 hintmask 11011100
          -107 callsubr
          -394 35 -81 callgsubr
          rlineto
          hintmask 11101100
          -24 callsubr
        </CharString>
        <CharString name="Udieresis">
          -2 callsubr
          47 116 hstemhm
          88 122 -40 55 callsubr
          -14 76 hintmask 11110010
          -107 callsubr
          hintmask 11101100
          -310 105 -90 callgsubr
          endchar
        </CharString>
        <CharString name="Ugrave">
          -2 callsubr
          78 -20 hstem
          88 122 248 76 vstem
          -107 callsubr
          -356 205 -56 callsubr
          endchar
        </CharString>
        <CharString name="Uhungarumlaut">
          -2 callsubr
          63 -20 22 -20 hstemhm
          88 122 248 76 hintmask 11011100
          -107 callsubr
          -373 31 -23 callgsubr
        </CharString>
        <CharString name="Umacron">
          -2 callsubr
          68 68 hstemhm
          88 122 -23 101 92 75 3 76 hintmask 11110100
          380 568 rmoveto
          -49 vlineto
          hintmask 11110010
          61 -11 rlineto
          12 -2 5 -48 callgsubr
          -282 vlineto
          -99 -32 -64 -93 -85 -38 55 109 vhcurveto
          280 vlineto
          12 6 8 12 2 vhcurveto
          hintmask 11101010
          60 12 rlineto
          49 vlineto
          hintmask 11110010
          -255 -49 hlineto
          38 -10 rlineto
          11 -3 37 callgsubr
          -271 vlineto
          -157 72 -68 154 136 84 61 158 vhcurveto
          -74 callsubr
          vlineto
          hintmask 11101100
          -405 68 19 callsubr
          endchar
        </CharString>
        <CharString name="Uogonek">
          137 -189 63 117 48 callsubr
          hstem
          88 122 47 91 110 76 vstem
          257 -114 rmoveto
          -49 43 -25 56 -1 vhcurveto
          34 40 11 17 28 hvcurveto
          -18 55 callgsubr
          -17 -4 -14 hhcurveto
          -28 -19 12 26 37 41 34 65 42 hvcurveto
          53 33 27 62 90 vvcurveto
          -74 callsubr
          -212 -49 vlineto
          61 -11 rlineto
          12 -2 5 -48 callgsubr
          -282 vlineto
          -99 -32 -64 -93 -85 -38 55 109 vhcurveto
          280 vlineto
          12 6 8 12 2 vhcurveto
          60 12 rlineto
          49 -255 -49 vlineto
          38 -10 rlineto
          11 -3 37 callgsubr
          -271 vlineto
          -157 72 -68 154 13 12 1 1 11 vhcurveto
          -2 vlineto
          -42 -18 -51 -35 -52 vvcurveto
          endchar
        </CharString>
        <CharString name="Uring">
          -2 callsubr
          29 47 95 47 hstemhm
          88 122 0 66 91 64 27 76 hintmask 11011001
          -107 callsubr
          hintmask 11110111
          -161 124 -29 callgsubr
        </CharString>
        <CharString name="Utilde">
          -2 callsubr
          47 50 callgsubr
          88 122 248 76 hintmask 11010110
          -107 callsubr
          hintmask 11100110
          -106 149 -61 callgsubr
        </CharString>
        <CharString name="V">
          91 -2 106 -85 -21 507 -20 34 49 hstemhm
          -6 584 -206 206 hintmask 01011000
          240 -2 rmoveto
          107 hlineto
          hintmask 10010100
          163 492 3 10 7 5 10 3 rlinecurve
          48 11 rlineto
          49 -206 -49 vlineto
          72 -14 -125 -401 rlineto
          hintmask 01111000
          -141 401 rlineto
          hintmask 01011000
          72 14 rlineto
          49 -256 -49 vlineto
          45 -11 10 -3 6 -5 4 -10 rlinecurve
          endchar
        </CharString>
        <CharString name="W">
          -79 callsubr
          endchar
        </CharString>
        <CharString name="Wacute">
          -79 callsubr
          148 349 -96 callsubr
          endchar
        </CharString>
        <CharString name="Wcircumflex">
          -14 callgsubr
          71 -20 23 -20 1 callgsubr
          hintmask 0101011110000000
          -71 callsubr
          hintmask 1011011110000000
          15 callgsubr
          hintmask 1001011110000000
          -52 callgsubr
          hintmask 0111011110000000
          -110 402 rlineto
          hintmask 0101011110000000
          -63 callgsubr
          -122 256 -81 callgsubr
          rlineto
          hintmask 0101101110000000
          -24 callsubr
        </CharString>
        <CharString name="Wdieresis">
          -14 callgsubr
          47 116 hstemhm
          -3 250 22 112 -62 243 -103 112 66 198 hintmask 0101101011000000
          -71 callsubr
          hintmask 1011100101000000
          15 callgsubr
          hintmask 1001110101000000
          -52 callgsubr
          hintmask 0111111011000000
          -110 402 rlineto
          hintmask 0101111011000000
          -63 callgsubr
          hintmask 0101101011000000
          -38 326 -90 callgsubr
          endchar
        </CharString>
        <CharString name="Wgrave">
          -14 callgsubr
          78 -20 1 callgsubr
          hintmask 01011111
          -71 callsubr
          hintmask 10111111
          15 callgsubr
          hintmask 10011111
          -52 callgsubr
          hintmask 01111111
          -110 402 rlineto
          hintmask 01011111
          -63 callgsubr
          -84 426 -56 callsubr
          endchar
        </CharString>
        <CharString name="X">
          73 0 47 459 -20 33 49 hstemhm
          7 209 -199 253 73 195 hintmask 10110100
          554 hmoveto
          47 vlineto
          -42 11 -9 2 -7 4 -5 9 rlinecurve
          -154 234 132 186 5 8 7 4 9 3 rlinecurve
          48 11 rlineto
          49 -195 -49 vlineto
          hintmask 11101100
          63 -13 -102 -155 -95 155 rlineto
          hintmask 10101100
          61 13 rlineto
          49 -253 -49 vlineto
          41 -11 10 -3 6 -5 5 -8 rlinecurve
          142 -219 rlineto
          hintmask 10110100
          -140 -200 -6 -10 -6 -3 -9 -2 rlinecurve
          -53 -11 rlineto
          -47 209 47 vlineto
          -70 12 110 168 104 -168 -60 -12 rlineto
          -47 vlineto
          endchar
        </CharString>
        <CharString name="Y">
          -72 callsubr
          endchar
        </CharString>
        <CharString name="Yacute">
          -72 callsubr
          301 696 -96 callsubr
          endchar
        </CharString>
        <CharString name="Ycircumflex">
          5 callgsubr
          71 44 callgsubr
          215 122 5 198 hintmask 10101100
          -46 callsubr
          hintmask 10101010
          -68 callsubr
          hintmask 11101100
          -111 212 rlineto
          hintmask 10101100
          -82 callsubr
          31 603 -81 callgsubr
          rlineto
          hintmask 10110100
          -24 callsubr
        </CharString>
        <CharString name="Ydieresis">
          5 callgsubr
          47 116 hstemhm
          130 112 -27 122 -17 112 -90 198 hintmask 10110100
          -46 callsubr
          hintmask 10110001
          -68 callsubr
          hintmask 11110100
          -111 212 rlineto
          hintmask 10110100
          -82 callsubr
          hintmask 10111010
          115 673 -90 callgsubr
          endchar
        </CharString>
        <CharString name="Ygrave">
          5 callgsubr
          78 -20 hstemhm
          215 122 5 198 hintmask 10111000
          -46 callsubr
          hintmask 10110100
          -68 callsubr
          hintmask 11111000
          -111 212 rlineto
          hintmask 10111000
          -82 callsubr
          69 773 -56 callsubr
          endchar
        </CharString>
        <CharString name="Z">
          -65 callsubr
          endchar
        </CharString>
        <CharString name="Zacute">
          -65 callsubr
          374 696 -96 callsubr
          endchar
        </CharString>
        <CharString name="Zcaron">
          26 0 55 334 180 -51 51 178 -21 24 -21 hstemhm
          20 454 hintmask 10101100
          -75 callsubr
          hintmask 11001100
          -10 -56 -4 -65 3 -59 rrcurveto
          66 hlineto
          hintmask 10110100
          -42 callgsubr
          349 765 -65 callgsubr
          hintmask 10101100
          -4 callgsubr
        </CharString>
        <CharString name="Zdotaccent">
          26 0 55 334 180 -51 51 51 124 hstemhm
          204 134 hintmask 10101000
          -75 callsubr
          hintmask 11001000
          -10 -56 -4 -65 3 -59 rrcurveto
          66 hlineto
          hintmask 10111000
          -42 callgsubr
          294 682 -53 callgsubr
        </CharString>
        <CharString name="__periodcentered.CAT">
          -405 213 124 hstem
          -30 134 vstem
          104 275 12 callgsubr
        </CharString>
        <CharString name="__periodcentered.CAT.case">
          -482 264 124 hstem
          -153 133 vstem
          -20 326 rmoveto
          37 -26 25 -40 -41 -26 -25 -37 -38 26 -24 41 40 26 24 38 vhcurveto
          endchar
        </CharString>
        <CharString name="a">
          -85 callgsubr
          7 callsubr
          hintmask 10111100
          -98 callgsubr
          hintmask 01111100
          -103 callsubr
          hintmask 10111100
          8 callgsubr
          endchar
        </CharString>
        <CharString name="aacute">
          -85 callgsubr
          229 -20 7 callsubr
          hintmask 10111110
          -98 callgsubr
          hintmask 01111110
          -103 callsubr
          hintmask 10111110
          8 callgsubr
          34 464 -95 callsubr
        </CharString>
        <CharString name="abreve">
          -85 callgsubr
          48 78 7 callsubr
          hintmask 10111110
          -98 callgsubr
          hintmask 01111110
          -103 callsubr
          hintmask 10111110
          8 callgsubr
          216 598 -84 callgsubr
        </CharString>
        <CharString name="acircumflex">
          -85 callgsubr
          217 -20 7 callsubr
          hintmask 10111110
          -98 callgsubr
          hintmask 01111110
          -103 callsubr
          hintmask 10111110
          8 callgsubr
          -43 467 -86 callsubr
        </CharString>
        <CharString name="acute">
          -122 653 -20 hstem
          116 206 vstem
          146 456 -95 callsubr
        </CharString>
        <CharString name="acutecomb">
          653 -20 hstem
          -66 206 vstem
          -36 456 -95 callsubr
        </CharString>
        <CharString name="acutecomb.case">
          607 162 hstem
          -90 237 vstem
          147 696 -96 callsubr
          endchar
        </CharString>
        <CharString name="adieresis">
          -85 callgsubr
          55 115 56 callsubr
          -70 23 callsubr
          -92 110 hintmask 1011110010000000
          -98 callgsubr
          hintmask 0111110010000000
          -103 callsubr
          hintmask 1011110010000000
          8 callgsubr
          hintmask 1011101100000000
          40 545 -97 callsubr
        </CharString>
        <CharString name="ae">
          25 callsubr
          32 callgsubr
          111 140 106 hintmask 1001011110000000
          -39 callsubr
          hintmask 0111101110000000
          -12 callsubr
          hintmask 1001011110000000
          -7 callsubr
          hintmask 0111011110000000
          -9 callgsubr
          endchar
        </CharString>
        <CharString name="agrave">
          -85 callgsubr
          229 -20 7 callsubr
          hintmask 10111110
          -98 callgsubr
          hintmask 01111110
          -103 callsubr
          hintmask 10111110
          8 callgsubr
          16 661 -70 callsubr
        </CharString>
        <CharString name="amacron">
          -85 callgsubr
          70 67 56 callsubr
          -58 259 -80 110 hintmask 10111101
          -98 callgsubr
          hintmask 01111101
          -103 callsubr
          hintmask 10111101
          8 callgsubr
          hintmask 10111010
          -60 502 -6 callgsubr
        </CharString>
        <CharString name="ampersand">
          115 -11 53 -49 65 -44 -21 274 50 221 40 hstemhm
          33 104 -51 107 112 98 -31 197 hintmask 1001101100000000
          193 458 rmoveto
          49 22 31 38 33 19 -27 -50 -45 -18 -47 -41 -35 vhcurveto
          -43 60 -10 31 33 vvcurveto
          56 -416 rmoveto
          hintmask 1001110100000000
          -70 -42 44 66 43 18 25 23 20 hvcurveto
          36 -47 63 -77 57 -52 rrcurveto
          hintmask 1001101100000000
          -16 -28 -31 -6 -26 hhcurveto
          hintmask 1001110010000000
          320 225 rmoveto
          50 -197 -50 vlineto
          57 -11 rlineto
          12 -3 2 -9 -11 vvcurveto
          -30 -7 -38 -20 -31 vhcurveto
          -48 50 -57 66 -40 50 rrcurveto
          hintmask 1001101100000000
          87 29 45 54 70 vvcurveto
          77 -53 48 -94 -104 -66 -60 -86 -51 23 -47 39 -54 vhcurveto
          hintmask 1001110100000000
          -53 -17 -62 -37 -90 vvcurveto
          -103 81 -44 107 56 54 15 29 40 vhcurveto
          hintmask 0011110100000000
          -30 39 31 -10 34 hhcurveto
          30 36 8 8 25 hvcurveto
          hintmask 0101110010000000
          49 vlineto
          -52 -22 5 40 -45 hvcurveto
          42 38 19 45 9 48 2 13 1 5 12 4 rrcurveto
          endchar
        </CharString>
        <CharString name="aogonek">
          -36 -189 63 118 65 -40 -21 175 44.5 132.5 76 56 callsubr
          82 90 -51 110 hintmask 10111001
          425 -161 rmoveto
          hintmask 10111010
          -16 45 rlineto
          -6 -15 33 callsubr
          hintmask 11011101
          13 3 11 3 8 2 rrcurveto
          -103 callsubr
          8 callgsubr
          hintmask 11011010
          52 44 18 33 29 hvcurveto
          hintmask 10111010
          10 -27 18 -15 26 -5 rrcurveto
          -1 vlineto
          -50 50 callsubr
          hintmask 10111001
          34 40 11 17 26 hvcurveto
          hintmask 11011101
          -231 218 rmoveto
          -34 -15 17 32 36 20 24 51 3 hvcurveto
          50 4 rlineto
          -92 vlineto
          -15 -19 -27 -9 -26 hhcurveto
          endchar
        </CharString>
        <CharString name="approxequal">
          -9 77 80 -30 80 32 80 -30 80 hstemhm
          46 381 hintmask 10011000
          427 175 rmoveto
          -33 27 rlineto
          -25 -20 -26 -20 -28 hhcurveto
          hintmask 01011000
          -15 callgsubr
          hintmask 10011000
          14 callgsubr
          hintmask 01101000
          162 vmoveto
          -33 27 rlineto
          -25 -20 -26 -20 -28 hhcurveto
          hintmask 01011000
          -15 callgsubr
          hintmask 01101000
          14 callgsubr
          endchar
        </CharString>
        <CharString name="aring">
          -85 callgsubr
          40 45 92 45 56 callsubr
          -36 64 88 64 -59 110 hintmask 1011111001000000
          -98 callgsubr
          hintmask 0111111001000000
          -103 callsubr
          hintmask 1011111001000000
          8 callgsubr
          hintmask 1011110110000000
          178 563 -67 callgsubr
        </CharString>
        <CharString name="asciicircum">
          -23 278 286 hstem
          31 403 vstem
          31 310 rmoveto
          41 -32 154 185 160 -185 48 32 -164 254 -87 -7 rlineto
          endchar
        </CharString>
        <CharString name="asciitilde">
          -11 158 80 -30 80 hstemhm
          45 381 hintmask 10100000
          426 256 rmoveto
          -33 27 rlineto
          -25 -20 -26 -20 -28 hhcurveto
          hintmask 01100000
          -15 callgsubr
          hintmask 10100000
          14 callgsubr
          endchar
        </CharString>
        <CharString name="asterisk">
          -44 422 -20 96 -20 174 -20 hstem
          179 84 vstem
          236 498 -38 callgsubr
        </CharString>
        <CharString name="at">
          286 -191 60 111 86 -80 71 273 62 115 60 hstemhm
          33 75 90 91 166 80 134 66 hintmask 1101111110000000
          334 -191 rmoveto
          76 71 21 34 41 hvcurveto
          -18 38 rlineto
          -19 -29 -67 -14 -54 hhcurveto
          -135 -111 89 196 214 134 139 178 118 131 -61 -180 hvcurveto
          hintmask 1011111110000000
          -137 -77 -72 -36 -15 -6 12 36 76 33 154 7 36 vhcurveto
          -63 20 -21 -25 rlineto
          19 -35 -29 7 -28 hhcurveto
          -125 -76 -133 -118 hvcurveto
          hintmask 1101111110000000
          -101 54 -60 58 70 54 89 91 32 vhcurveto
          hintmask 1011111110000000
          -7 -45 -4 -31 -19 vvcurveto
          -49 20 -30 35 66 159 102 203 177 -120 99 -165 -227 -192 -186 -255 2 vhcurveto
          hintmask 1101111110000000
          -191 2 111 -126 188 hhcurveto
          117 430 rmoveto
          -102 -31 -50 -71 -36 hhcurveto
          -31 -14 55 50 77 32 82 64 26 33 -14 -24 22 hvcurveto
          -4 -16 -5 -18 -6 -19 rrcurveto
          endchar
        </CharString>
        <CharString name="atilde">
          -85 callgsubr
          46 78 -27 78 -24 -20 7 callsubr
          hintmask 1011001110000000
          -98 callgsubr
          hintmask 0111001110000000
          -103 callsubr
          hintmask 1011001110000000
          8 callgsubr
          hintmask 1011100110000000
          229 583 -18 callsubr
          hintmask 1011010110000000
          -56 callgsubr
          hintmask 1011100110000000
          -32 callgsubr
        </CharString>
        <CharString name="b">
          -7 -8 48 316 69 215 -20 35 -20 hstemhm
          59 114 152 121 hintmask 11011100
          59 20 rmoveto
          -12 29 67 -16 63 hhcurveto
          148 80 88 148 60 callgsubr
          hvcurveto
          hintmask 11101100
          261 vlineto
          hintmask 11011100
          -16 15 -48 -1 -68 -9 -49 -13 rlinecurve
          -45 vlineto
          50 -8 rlineto
          11 -2 6 -7 -12 vvcurveto
          167 -518 rmoveto
          -22 -18 5 7 -13 hvcurveto
          284 vlineto
          13 19 22 7 24 hhcurveto
          56 33 -37 -114 -2 hvcurveto
          -116 -1 -34 -49 -64 hhcurveto
          endchar
        </CharString>
        <CharString name="backslash">
          -118 633 -20 hstem
          21 324 vstem
          345 -105 rmoveto
          -233 738 rlineto
          -91 hlineto
          233 -738 rlineto
          endchar
        </CharString>
        <CharString name="bar">
          -251 -114 806 hstem
          74 86.5 vstem
          74 -114 rmoveto
          86 hlineto
          1 806 rlineto
          -87 hlineto
          endchar
        </CharString>
        <CharString name="braceleft">
          58 callgsubr
          101 25 callgsubr
          50 9 69 53 vvcurveto
          68 -46 31 -66 13 vhcurveto
          66 13 46 28 67 53 -9 69 50 vvcurveto
          57 22 24 56 12 vhcurveto
          48 12 -7 50 rlineto
          -25 -34 -2 -3 -29 hvcurveto
          -95 -7 -41 -48 -75 vvcurveto
          hintmask 01100000
          -67 14 -63 -52 vvcurveto
          -47 -9 -31 -84 -7 vhcurveto
          -69 vlineto
          84 -8 9 -31 -47 -52 -14 -62 -68 vvcurveto
          34 callsubr
        </CharString>
        <CharString name="braceright">
          58 callgsubr
          129 99 hintmask 10100000
          107 -148 rmoveto
          94 8 42 47 76 vvcurveto
          hintmask 01100000
          67 -15 63 52 vvcurveto
          47 9 31 85 8 vhcurveto
          69 vlineto
          -85 7 -9 31 47 52 15 63 67 3 callgsubr
          -50 -8 -70 -53 vvcurveto
          -67 45 -30 66 -12 vhcurveto
          -66 -13 -45 -30 -68 -53 8 -69 -51 46 callgsubr
          hintmask 10100000
          25 34 2 2 29 hvcurveto
          endchar
        </CharString>
        <CharString name="bracketleft">
          11 callsubr
          746.5 52 10 callgsubr
          694 vlineto
          13 7 7 13 1 vhcurveto
          89 10 rlineto
          47 vlineto
          -61 8 -78 4 -54 -1 -15 -15 rcurveline
          -843 42 callsubr
        </CharString>
        <CharString name="bracketright">
          11 callsubr
          746.5 52 59 callgsubr
          843 vlineto
          -16 15 -55 1 -78 -4 -61 -8 rlinecurve
          -47 vlineto
          90 -10 rlineto
          12 -1 7 -7 -13 vvcurveto
          -694 17 callsubr
        </CharString>
        <CharString name="breve">
          -122 472 78 hstem
          36 292 vstem
          328 590 -84 callgsubr
        </CharString>
        <CharString name="brokenbar">
          -253 -114 806 hstem
          73 87 vstem
          73 345 rmoveto
          87 347 -87 hlineto
          -806 vmoveto
          87 346 -87 hlineto
          endchar
        </CharString>
        <CharString name="bullet">
          -148 136 189 hstem
          69 200 vstem
          269 230 16 callsubr
        </CharString>
        <CharString name="bulletoperator">
          -136 153 139 hstem
          105 142 vstem
          247 223 rmoveto
          42 -29 27 -43 -43 -27 -27 -42 -42 27 -28 43 43 29 28 42 vhcurveto
          endchar
        </CharString>
        <CharString name="c">
          29 callsubr
          hstem
          33 122 vstem
          -93 callgsubr
          endchar
        </CharString>
        <CharString name="cacute">
          29 callsubr
          228 -20 hstem
          33 122 vstem
          -93 callgsubr
          159 254 -95 callsubr
        </CharString>
        <CharString name="caron">
          -122 653 24 callgsubr
          39 297 hintmask 01100000
          300 654 rmoveto
          hintmask 10100000
          -66 callsubr
          hintmask 01100000
          22 callsubr
        </CharString>
        <CharString name="ccaron">
          29 callsubr
          228 24 callgsubr
          33 122 hintmask 11011000
          -93 callgsubr
          313 452 rmoveto
          hintmask 11101000
          -66 callsubr
          hintmask 11011000
          22 callsubr
        </CharString>
        <CharString name="ccedilla">
          -73 42 callgsubr
          23 72 310 52 hstemhm
          33 122 56 91 hintmask 10111100
          33 202 rmoveto
          -108 49 -85 105 -16 vhcurveto
          hintmask 11111100
          -21 -62 -91 callsubr
          hintmask 10111100
          7 23 rlineto
          78 57 36 52 19 hvcurveto
          -26 21 rlineto
          -18 -19 -34 -19 -43 hhcurveto
          -73 -32 52 105 108 33 45 48 19 14 -7 -8 10 hvcurveto
          8 -6 3 -8 4 -16 19 -69 rcurveline
          56 hlineto
          7 42 4 49 -3 45 rrcurveto
          17 -32 -54 13 -50 hhcurveto
          -126 -82 -83 -140 hvcurveto
          endchar
        </CharString>
        <CharString name="ccircumflex">
          29 callsubr
          216 -20 hstem
          33 122 vstem
          -93 callgsubr
          82 257 -86 callsubr
        </CharString>
        <CharString name="cdotaccent">
          29 callsubr
          51 122 hstemhm
          33 122 15 132 hintmask 11110000
          -93 callgsubr
          hintmask 11111000
          269 335 -88 callsubr
          endchar
        </CharString>
        <CharString name="cedilla">
          -122 -191 40 82 88 hstem
          178 91 vstem
          163 19 rmoveto
          -30 -88 -91 callsubr
          15 51 rlineto
          endchar
        </CharString>
        <CharString name="cent">
          -57 58 callsubr
          35 122 29 65 -31 66 hintmask 10111000
          35 -62 callsubr
        </CharString>
        <CharString name="cent.tf">
          -34 58 callsubr
          44 122 29 65 -31 66 hintmask 10111000
          44 -62 callsubr
        </CharString>
        <CharString name="circumflex">
          -122 641 -20 hstem
          33 298 vstem
          69 459 -86 callsubr
        </CharString>
        <CharString name="colon">
          -245 -7 125 179 123 hstem
          54 133 vstem
          187 358 rmoveto
          38 -26 24 -40 -41 -26 -24 -38 -37 26 -24 41 40 26 24 37 vhcurveto
          -302 vmoveto
          37 -26 25 -40 -41 -26 -25 -37 -38 26 -25 41 40 26 25 38 vhcurveto
          endchar
        </CharString>
        <CharString name="comma">
          -261 -164 288 hstem
          95 87 vstem
          182 29 rmoveto
          61 -32 34 -43 -38 -26 -25 -37 -27 15 -17 15 -11 vhcurveto
          12 -9 10 -1 -21 vvcurveto
          -34 -26 -42 -37 -35 vhcurveto
          22 -29 rlineto
          67 37 61 71 85 vvcurveto
          endchar
        </CharString>
        <CharString name="copyright">
          243 -46 46 97 65 257 52 99 45 hstem
          35 54 109 98 344 54 vstem
          363 97 rmoveto
          69 51 33 43 19 hvcurveto
          -24 22 rlineto
          -20 -19 -35 -13 -34 hhcurveto
          -61 -33 46 88 83 28 40 46 17 15 -7 -7 10 hvcurveto
          9 -7 2 -7 2 -9 15 -59 rcurveline
          51 hlineto
          7 40 2 40 -4 37 rrcurveto
          17 -24 -47 14 -48 hhcurveto
          -103 -76 -66 -124 -111 61 -73 104 hvcurveto
          -274 187 rmoveto
          168 114 118 162 162 113 -118 -168 -166 -114 -118 -161 -162 -114 118 166 vhcurveto
          -54 hmoveto
          -190 140 -140 190 190 139 140 190 191 -138 140 -191 -190 -140 -140 -191 vhcurveto
          endchar
        </CharString>
        <CharString name="currency">
          26 116 78 174 79 hstem
          91 83 162 85 vstem
          91 277 rmoveto
          -36 11 -32 19 -26 vhcurveto
          -81 -80 45 -47 83 84 rlineto
          -15 25 30 -9 32 hhcurveto
          32 30 9 16 25 hvcurveto
          84 -83 45 46 -82 81 rlineto
          20 28 12 35 37 vvcurveto
          36 -11 32 -19 26 vhcurveto
          82 81 -46 46 -84 -83 rlineto
          15 -25 -31 9 -32 hhcurveto
          -32 -30 -9 -16 -25 hvcurveto
          -84 83 -44 -46 83 -82 rlineto
          -20 -28 -12 -35 -37 vvcurveto
          164 -83 rmoveto
          -43 -38 38 48 45 28 43 51 44 39 -37 -51 -47 -26 -39 -55 hvcurveto
          endchar
        </CharString>
        <CharString name="d">
          14 -76 callgsubr
          endchar
        </CharString>
        <CharString name="dagger">
          -127 403 46.5 hstemhm
          120 120 -97.5 87.5 hintmask 10100000
          204 -92 rmoveto
          26 457 rlineto
          6 6 6 11 3 vhcurveto
          hintmask 11000000
          88 23 rlineto
          48 vlineto
          -100 -3 5 93 rlineto
          66 -120 -66 vlineto
          5 -93 -101 3 rlineto
          -48 vlineto
          hintmask 10100000
          88 -23 12 -3 5 -6 1 -11 rlinecurve
          25 -452 rlineto
          endchar
        </CharString>
        <CharString name="daggerdbl">
          -116 235 47 121 46.5 hstemhm
          124 121 -108.5 96.5 -81 74 hintmask 11001000
          210 -92 rmoveto
          16 286 rlineto
          6 5 6 12 3 vhcurveto
          97 26 rlineto
          49 vlineto
          hintmask 11010000
          -109 -4 4 80 rlineto
          hintmask 11100000
          1 11 5 6 11 3 88 23 rcurveline
          48 vlineto
          -100 -3 5 93 rlineto
          66 -121 -66 vlineto
          5 -93 -99 3 rlineto
          -48 vlineto
          hintmask 11010000
          87 -23 10 -2 5 -5 2 -8 rlinecurve
          5 -85 -109 4 rlineto
          -49 vlineto
          hintmask 11001000
          97 -26 9 -2 5 -5 3 -7 rlinecurve
          16 -287 rlineto
          endchar
        </CharString>
        <CharString name="dcaron">
          27 -76 callgsubr
          319 479 -41 callsubr
        </CharString>
        <CharString name="dcroat">
          14 -80 callsubr
          309.5 51 60 49 116 -20 36 -20 hstemhm
          34 120 154 114 hintmask 10110111
          179 474 rmoveto
          129 -66 hlineto
          3 -17 -22 3 -21 hhcurveto
          -134 -80 -76 -147 -140 71 -59 93 51 39 21 30 28 hvcurveto
          -32 13 27 -18 41 hhcurveto
          29 36 9 5 17 hvcurveto
          hintmask 01111011
          44 vlineto
          -38 5 rlineto
          -12 1 -7 5 16 vvcurveto
          396 52 49 -52 116 vlineto
          hintmask 10110111
          -16 16 -49 -1 -68 -9 -49 -13 rlinecurve
          -45 vlineto
          51 -8 rlineto
          11 -2 6 -7 -12 vvcurveto
          -35 -129 vlineto
          59 -466 rmoveto
          -51 -33 39 110 hvcurveto
          120 1 40 37 58 hhcurveto
          20 21 -5 -8 14 hvcurveto
          -273 vlineto
          -13 -20 -25 -7 -25 hhcurveto
          endchar
        </CharString>
        <CharString name="degree">
          -150 336 61 146 62 hstem
          32 67 137 68 vstem
          167 336 rmoveto
          76 61 57 77 73 -58 62 -79 -74 -61 -58 -77 -73 61 -61 74 hvcurveto
          1 61 rmoveto
          -38 -31 34 39 41 28 32 40 39 30 -34 -39 -42 -28 -31 -40 hvcurveto
          endchar
        </CharString>
        <CharString name="dieresis">
          -122 479 115 hstem
          40 23 callsubr
          vstem
          152 537 -97 callsubr
        </CharString>
        <CharString name="divide">
          -66 36 109 46 69 46 108 hstem
          150 120 vstem
          379 191 rmoveto
          69 -338 -69 vlineto
          229 -101 rmoveto
          33 -24 22 -36 -36 -24 -22 -33 -32 24 -22 36 36 24 22 32 vhcurveto
          270 vmoveto
          33 -24 21 -36 -36 -24 -21 -33 -33 24 -21 36 36 24 21 33 vhcurveto
          endchar
        </CharString>
        <CharString name="dollar">
          -46 41 callsubr
          44 57 callgsubr
          410 -81 callsubr
        </CharString>
        <CharString name="dollar.tf">
          -34 41 callsubr
          49 57 callgsubr
          415 -81 callsubr
        </CharString>
        <CharString name="dotaccent">
          -122 476 122 hstem
          124 132 vstem
          256 537 -88 callsubr
          endchar
        </CharString>
        <CharString name="dotlessi">
          -69 callsubr
          -93 callsubr
          endchar
        </CharString>
        <CharString name="dotlessj">
          37 callsubr
          hstem
          83 112 vstem
          180 424 -94 callsubr
          endchar
        </CharString>
        <CharString name="e">
          -29 callsubr
          hstem
          34 116 141 105 vstem
          -106 callgsubr
          endchar
        </CharString>
        <CharString name="eacute">
          -29 callsubr
          229 -20 hstem
          34 116 141 105 vstem
          -106 callgsubr
          -38 81 -95 callsubr
        </CharString>
        <CharString name="ebreve">
          -29 callsubr
          48 78 hstem
          34 116 141 105 vstem
          -106 callgsubr
          144 215 -84 callgsubr
        </CharString>
        <CharString name="ecaron">
          -29 callsubr
          229 24 callgsubr
          34 116 141 105 hintmask 11101110
          -106 callgsubr
          116 279 rmoveto
          hintmask 11110110
          -66 callsubr
          hintmask 11101110
          22 callsubr
        </CharString>
        <CharString name="ecircumflex">
          -29 callsubr
          217 -20 hstem
          34 116 141 105 vstem
          -106 callgsubr
          -115 84 -86 callsubr
        </CharString>
        <CharString name="edieresis">
          -29 callsubr
          55 115 hstemhm
          34 116 -68 23 callsubr
          -74 105 hintmask 11101001
          -106 callgsubr
          hintmask 11110110
          -32 162 -97 callsubr
        </CharString>
        <CharString name="edotaccent">
          -29 callsubr
          52 122 hstemhm
          34 116 16 132 -7 105 hintmask 11101010
          -106 callgsubr
          hintmask 11111100
          72 162 -88 callsubr
          endchar
        </CharString>
        <CharString name="egrave">
          -29 callsubr
          229 -20 hstem
          34 116 141 105 vstem
          -106 callgsubr
          -56 278 -70 callsubr
        </CharString>
        <CharString name="eight">
          -14 -11 51 422 50 hstemhm
          37 49 callsubr
          37 -76 callsubr
        </CharString>
        <CharString name="eight.tf">
          -34 -11 51 422 50 hstemhm
          27 49 callsubr
          27 -76 callsubr
        </CharString>
        <CharString name="ellipsis">
          179 -7 125 hstem
          44 134 88 133 88 134 cntrmask 01110000
          399 56 17 callgsubr
          222 hmoveto
          37 -26 25 -41 -40 -27 -25 -37 -38 27 -25 40 41 26 25 38 vhcurveto
          -443 hmoveto
          -49 callsubr
        </CharString>
        <CharString name="emacron">
          -29 callsubr
          70 67 hstemhm
          34 116 -56 259 -62 105 hintmask 11111010
          -106 callgsubr
          hintmask 11110100
          -132 119 -6 callgsubr
        </CharString>
        <CharString name="emdash">
          327 179 75 hstem
          51 712 vstem
          51 179 rmoveto
          712 75 -712 hlineto
          endchar
        </CharString>
        <CharString name="endash">
          42 179 75 hstem
          51 426 vstem
          51 179 rmoveto
          426 75 -426 hlineto
          endchar
        </CharString>
        <CharString name="eng">
          37 -188 52 -31 -21 25 -21 184 -74 callgsubr
          302.5 70 hstemhm
          90 114 145 115 hintmask 01011110
          464 8 rmoveto
          257 vlineto
          102 -29 56 -98 -53 -48 -16 -40 -37 vhcurveto
          -7 42 -17 15 -46 -1 -55 -7 -47 -78 callsubr
          -11 -2 vhcurveto
          -42 -51 callsubr
          220 47 vlineto
          -30 7 rlineto
          -11 -13 callgsubr
          15 24 27 8 25 hhcurveto
          51 18 -29 -73 hvcurveto
          -231 vlineto
          hintmask 10011110
          -70 -7 -35 -19 -19 vhcurveto
          -19 -21 -32 -6 -26 -5 rrcurveto
          hintmask 00111110
          3 -48 rlineto
          hintmask 01011110
          -3 18 21 -1 17 hhcurveto
          114 45 70 126 hvcurveto
          endchar
        </CharString>
        <CharString name="enspace">
          -59 endchar
        </CharString>
        <CharString name="eogonek">
          -56 -189 63 117 72 164 45 103 49 hstemhm
          34 116 28 89 24 105 vstemhm
          178 -115 rmoveto
          -49 43 -24 54 -1 vhcurveto
          35 39 11 17 27 hvcurveto
          -17 55 callgsubr
          -16 -4 -15 hhcurveto
          -26 -21 13 28 33 25 32 48 40 hvcurveto
          3 2 2 1 2 2 24 19 16 22 8 23 -28 21 rcurveline
          -31 -25 -41 -16 -42 hhcurveto
          hintmask 11111010
          -75 -34 45 117 hvcurveto
          2 241 vlineto
          4 17 1 22 17 vvcurveto
          86 -53 55 -107 -128 -74 -78 -142 -129 60 -84 131 vhcurveto
          hintmask 11111110
          12 11 1 1 10 hvcurveto
          -2 vlineto
          -33 -18 -47 -35 -53 vvcurveto
          hintmask 11111010
          48 490 rmoveto
          44 21 -35 -51 -7 0 -5 -1 -5 hvcurveto
          -138 hlineto
          76 7 27 27 40 hhcurveto
          endchar
        </CharString>
        <CharString name="equal">
          -43 108 73 84 74 hstem
          50 339 vstem
          389 265 rmoveto
          74 -339 -74 vlineto
          339 -157 rmoveto
          73 -339 -73 vlineto
          endchar
        </CharString>
        <CharString name="estimated">
          25 -11 52 186.5 49.5 173 48 hstem
          39 129 186 122 vstem
          168 413 rmoveto
          23 22 39 14 41 hhcurveto
          35 32 -9 -17 17 hvcurveto
          -147 -186 vlineto
          278 -239 rmoveto
          -23 42 rlineto
          -20 -29 -45 -19 -57 hhcurveto
          -53 -46 17 27 -25 hvcurveto
          143 vlineto
          304 -1 rlineto
          3 19 1 23 28 vvcurveto
          131 -3 -80 70 -120 hhcurveto
          -149 -85 -109 -144 -153 97 -103 149 65 59 20 29 37 hvcurveto
          endchar
        </CharString>
        <CharString name="eth">
          -13 -8 51 303 63 243 -20 22 -20 hstemhm
          34 123 156 119 hintmask 11011100
          432 237 rmoveto
          hintmask 11101100
          119 -46 115 -94 82 vhcurveto
          81 47 -34 52 rlineto
          hintmask 11011100
          -94 -64 -43 29 -51 22 -59 15 rlinecurve
          -20 -43 41 -21 35 -21 30 -24 rlinecurve
          -95 -58 33 -52 103 72 35 -37 24 -42 15 -49 rlinecurve
          21 -25 -33 9 -32 hhcurveto
          -75 -94 -54 -155 -135 70 -73 119 154 55 113 132 hvcurveto
          -198 -194 rmoveto
          -57 -20 63 93 113 30 34 48 29 24 -10 -19 18 hvcurveto
          5 -30 2 -32 -35 vvcurveto
          -126 -22 -51 -57 vhcurveto
          endchar
        </CharString>
        <CharString name="exclam">
          -234 -7 120 hstemhm
          60 131 -128 126 hintmask 10100000
          63 552 rmoveto
          29 -372 rlineto
          68 hlineto
          29 372 rlineto
          71 -126 vlineto
          hintmask 11000000
          128 -570 rmoveto
          36 -26 24 -39 -39 -27 -24 -36 -35 27 -25 39 39 26 25 35 vhcurveto
          endchar
        </CharString>
        <CharString name="exclamdown">
          -246 -183 -21 510 119 hstemhm
          54 131 -128 126 hintmask 11010000
          183 -204 rmoveto
          71 vlineto
          -29 372 rlineto
          -68 hlineto
          -29 -372 rlineto
          -71 vlineto
          hintmask 11100000
          128 570 rmoveto
          36 -25 23 -39 -40 -27 -23 -36 -37 27 -23 40 39 25 23 37 vhcurveto
          endchar
        </CharString>
        <CharString name="f">
          -150 0 51 299 63 149 92 47 callsubr
          vstem
          93 438 rmoveto
          -24 vlineto
          -67 -12 -78 callgsubr
          266 47 vlineto
          -75 8 rlineto
          -12 1 -7 7 12 vvcurveto
          275 118 63 -118 64 vlineto
          69 27 15 51 1 vhcurveto
          19 33 -4 -6 29 hvcurveto
          22 64 rlineto
          21 -31 -36 17 -38 hhcurveto
          -92 -95 -110 -106 hvcurveto
          endchar
        </CharString>
        <CharString name="f_b">
          317 -8 48 -40 51 299 63 -57 69 137 92 -14 -20 hstemhm
          90 112 -109 108 184 112 153 120 hintmask 0110101011000000
          295 hmoveto
          47 vlineto
          -74 8 rlineto
          -13 -48 callsubr
          120 63 vlineto
          hintmask 1010100111000000
          -121 64 hlineto
          66 45 19 50 31 10 callsubr
          hintmask 0101011011000000
          137 -69 60 -88 -47 -40 -17 -30 -29 vhcurveto
          262 vlineto
          hintmask 0110100111000000
          53 callgsubr
          -32 11 -30 hhcurveto
          -104 -107 -104 -106 hvcurveto
          -30 vlineto
          hintmask 0110101011000000
          -67 -12 -78 callgsubr
          vlineto
          hintmask 1001101011000000
          519 40 rmoveto
          -23 -17 5 7 -14 hvcurveto
          284 vlineto
          13 19 23 7 23 hhcurveto
          57 32 -37 -114 -1 hvcurveto
          -116 -2 -33 -49 -64 hhcurveto
          endchar
        </CharString>
        <CharString name="f_f">
          150 0 51 299 63 128 91 -70 92 -20 callsubr
          hintmask 11011100
          284 hmoveto
          47 vlineto
          -63 8 rlineto
          -13 -48 callsubr
          191 -275 vlineto
          -13 41 callgsubr
          -38 -51 callsubr
          262 47 vlineto
          -76 8 rlineto
          -12 -48 callsubr
          117 63 vlineto
          hintmask 11011010
          -118 64 hlineto
          69 27 15 52 1 vhcurveto
          18 34 -4 -6 29 hvcurveto
          21 67 rlineto
          19 -30 -37 16 -37 hhcurveto
          -92 -93 -110 -106 hvcurveto
          -25 -194 vlineto
          hintmask 11101100
          -89 callgsubr
          endchar
        </CharString>
        <CharString name="f_f_b">
          620 -8 48 -40 51 299 63 -57 69 116 91 -70 92 -14 -20 -20 callsubr
          184 112 152 121 hintmask 0110010110110000
          284 hmoveto
          47 vlineto
          -63 8 rlineto
          -13 -48 callsubr
          191 -275 vlineto
          -13 -6 -6 -37 callgsubr
          263 47 vlineto
          -75 8 rlineto
          -12 -48 callsubr
          119 63 vlineto
          hintmask 1010010101110000
          -120 64 hlineto
          66 45 19 49 32 10 callsubr
          hintmask 0101001110110000
          60 callgsubr
          vhcurveto
          261 vlineto
          hintmask 0110010101110000
          53 callgsubr
          -33 11 -30 hhcurveto
          -102 -108 -104 -106 hvcurveto
          -31 -194 vlineto
          hintmask 0110100110110000
          -89 callgsubr
          hintmask 1001010110110000
          821 40 rmoveto
          -22 -17 5 7 -14 hvcurveto
          284 vlineto
          13 19 22 7 24 hhcurveto
          57 32 -37 -114 -2 hvcurveto
          -116 -1 -33 -49 -65 hhcurveto
          endchar
        </CharString>
        <CharString name="f_f_h">
          658 -36 callsubr
          -60 70 118 91 -70 92 -15 -20 -20 callsubr
          193 111 146 113 hintmask 1100101101100000
          -60 callgsubr
          hintmask 1100101011100000
          -120 19 callgsubr
          32 33 -32 callsubr
          217 47 vlineto
          -30 7 rlineto
          -12 4 -5 5 13 vvcurveto
          hintmask 1010011101100000
          254 vlineto
          16 25 27 7 26 hhcurveto
          50 18 0 callgsubr
          -6 -5 -11 -4 vhcurveto
          -30 -51 callsubr
          220 47 vlineto
          -42 7 rlineto
          -11 2 -7 7 13 35 callsubr
          101 -28 57 -98 -51 -46 -15 -36 -36 vhcurveto
          267 vlineto
          hintmask 1100101011100000
          -34 callsubr
          hintmask 1101001101100000
          -89 callgsubr
          endchar
        </CharString>
        <CharString name="f_f_k">
          637 -36 callsubr
          -44 44 128 91 -70 92 -15 -20 -20 callsubr
          193 111 75 211 hintmask 1100101101000000
          -60 callgsubr
          hintmask 1100101011000000
          -120 19 callgsubr
          32 33 -4 -10 30 vhcurveto
          -472 vlineto
          -12 -7 -8 -11 -2 vhcurveto
          -41 -51 callsubr
          228 47 vlineto
          -40 7 -77 callgsubr
          59 vlineto
          55 55 8 -14 8 -16 9 -17 rlinecurve
          35 -75 rlineto
          -37 18 13 -31 23 hhcurveto
          138 47 hlineto
          -41 11 -13 3 -7 4 -6 14 rlinecurve
          -64 116 -16 30 -13 21 -16 20 rlinecurve
          hintmask 1010101101100000
          76 76 11 10 8 3 17 3 rlinecurve
          43 11 rlineto
          hintmask 1100101101100000
          44 -211 vlineto
          hintmask 1010011101100000
          -44 vlineto
          69 -12 -144 -154 rlineto
          436 vlineto
          hintmask 1100101011000000
          -34 callsubr
          hintmask 1101001101000000
          -89 callgsubr
          endchar
        </CharString>
        <CharString name="f_f_l">
          404 -36 callsubr
          128 91 -70 92 -15 -20 -20 callsubr
          193 111 hintmask 1101011010000000
          -60 callgsubr
          hintmask 1101010110000000
          -120 19 callgsubr
          32 33 -32 callsubr
          235 47 vlineto
          -47 7 -77 callgsubr
          hintmask 1100111010000000
          563 vlineto
          hintmask 1101010110000000
          -34 callsubr
          hintmask 1110011010000000
          -89 callgsubr
          endchar
        </CharString>
        <CharString name="f_h">
          355 -36 callsubr
          -60 70 139 -5 callsubr
          145 114 hintmask 1101010110000000
          285 hmoveto
          47 vlineto
          -64 8 rlineto
          -13 -48 callsubr
          120 63 vlineto
          hintmask 1101001110000000
          -121 19 callgsubr
          31 34 -32 callsubr
          217 47 vlineto
          -29 7 rlineto
          -12 4 -5 5 13 vvcurveto
          hintmask 1010110110000000
          254 vlineto
          16 24 27 7 26 hhcurveto
          50 18 0 callgsubr
          -6 -5 -11 -4 vhcurveto
          -29 -51 callsubr
          219 47 vlineto
          -42 7 38 callsubr
          13 35 callsubr
          101 -29 57 -97 -52 -45 -15 -35 -36 vhcurveto
          266 vlineto
          hintmask 1101001110000000
          -30 callsubr
          hintmask 1101010110000000
          -31 callsubr
        </CharString>
        <CharString name="f_k">
          335 -36 callsubr
          -44 44 149 -5 callsubr
          75 210 hintmask 1101010100000000
          285 hmoveto
          47 vlineto
          -64 8 rlineto
          -13 -48 callsubr
          120 63 vlineto
          hintmask 1101001100000000
          -121 19 callgsubr
          31 34 -4 -10 30 vhcurveto
          -472 vlineto
          -12 -7 -8 -11 -2 vhcurveto
          -41 -51 callsubr
          228 47 vlineto
          -40 7 1 callsubr
          13 vvcurveto
          60 vlineto
          54 54 9 -14 7 -16 9 -17 rlinecurve
          35 -75 rlineto
          -37 18 13 -31 23 hhcurveto
          138 47 hlineto
          -41 11 -13 3 -6 4 -7 14 rlinecurve
          -64 116 -16 30 -12 21 -17 20 rlinecurve
          hintmask 1011010110000000
          77 76 10 10 8 3 18 3 rlinecurve
          42 11 rlineto
          hintmask 1101010110000000
          44 -210 vlineto
          hintmask 1010110110000000
          -44 vlineto
          68 -12 -143 -153 rlineto
          435 vlineto
          hintmask 1101001100000000
          -30 callsubr
          hintmask 1101010100000000
          -31 callsubr
        </CharString>
        <CharString name="f_l">
          101 -36 callsubr
          149 -5 callsubr
          hintmask 11101010
          285 hmoveto
          47 vlineto
          -64 8 rlineto
          -13 -48 callsubr
          120 63 vlineto
          hintmask 11100110
          -121 19 callgsubr
          31 34 -32 callsubr
          235 47 vlineto
          -47 7 38 callsubr
          13 vvcurveto
          hintmask 11011010
          563 vlineto
          hintmask 11100110
          -30 callsubr
          hintmask 11101010
          -31 callsubr
        </CharString>
        <CharString name="five">
          -54 -11 70 197 70 92 83 hstem
          273 124 vstem
          56 -43 callgsubr
        </CharString>
        <CharString name="five.tf">
          -34 -11 70 197 70 92 83 hstem
          283 124 vstem
          66 -43 callgsubr
        </CharString>
        <CharString name="four">
          -30 0 150 -59 59 332 22 hstemhm
          252 106 hintmask 01110000
          34 -44 callsubr
        </CharString>
        <CharString name="four.dnom">
          -101 0 117 -49 49 228 16 hstemhm
          207 81 hintmask 01110000
          50 68 rmoveto
          157 hlineto
          hintmask 10110000
          -68 81 vlineto
          hintmask 01110000
          51 callsubr
          hintmask 10110000
          -23 callsubr
          hintmask 01110000
          6 callsubr
        </CharString>
        <CharString name="four.numr">
          -101 295 49 228 -20 20 16 hstemhm
          210 81 hintmask 11010000
          53 -31 callgsubr
        </CharString>
        <CharString name="four.tf">
          -34 0 150 -59 59 332 22 hstemhm
          250 106 hintmask 01110000
          32 -44 callsubr
        </CharString>
        <CharString name="foursuperior">
          -112 295 49 228 -20 20 16 hstemhm
          205 81 hintmask 11010000
          48 -31 callgsubr
        </CharString>
        <CharString name="fraction">
          -7 callgsubr
        </CharString>
        <CharString name="g">
          -35 callgsubr
          23 callgsubr
          hintmask 1110100010100000
          -62 callgsubr
          hintmask 1111000101000000
          -28 callgsubr
          hintmask 1110010101000000
          79 vlineto
          hintmask 1110100101000000
          -73 callsubr
          hintmask 1110100011000000
          -21 callgsubr
          hintmask 1110101001000000
          -21 callsubr
          hintmask 1110100010100000
          147 96 64 99 hvcurveto
          hintmask 1110101000100000
          -70 callgsubr
          hintmask 1110100101000000
          -55 callsubr
          endchar
        </CharString>
        <CharString name="gbreve">
          -35 callgsubr
          73 78 -86 callgsubr
          214 308 -84 callgsubr
        </CharString>
        <CharString name="gcircumflex">
          -35 callgsubr
          242 -20 -86 callgsubr
          -45 177 -86 callsubr
        </CharString>
        <CharString name="gcommaaccent">
          -35 callgsubr
          -2 callgsubr
          20 79 44 111 -62 115 hintmask 1110100010010000
          -62 callgsubr
          hintmask 1111000100100000
          -28 callgsubr
          hintmask 1110010100100000
          79 vlineto
          hintmask 1110100100100000
          -73 callsubr
          hintmask 1110100010100000
          -21 callgsubr
          hintmask 1110101000100000
          -21 callsubr
          hintmask 1110100010010000
          147 96 64 99 hvcurveto
          hintmask 1110101000010000
          -70 callgsubr
          hintmask 1110100100100000
          -55 callsubr
          hintmask 1110100101100000
          10 265 -18 callgsubr
        </CharString>
        <CharString name="gdotaccent">
          -35 callgsubr
          77 122 -2 callgsubr
          20 132 -9 111 -62 115 hintmask 1110100001001000
          -62 callgsubr
          hintmask 1111000010010000
          -28 callgsubr
          hintmask 1110010010010000
          79 vlineto
          hintmask 1110100010010000
          -73 callsubr
          hintmask 1110100001010000
          -21 callgsubr
          hintmask 1110100100010000
          -21 callsubr
          hintmask 1110100001001000
          147 96 64 99 hvcurveto
          hintmask 1110100100001000
          -70 callgsubr
          hintmask 1110100010010000
          -55 callsubr
          hintmask 1110101010100000
          142 255 -88 callsubr
          endchar
        </CharString>
        <CharString name="germandbls">
          103 -11 47 -36 -74 callgsubr
          -50.5 138 276 -20 189 71 hstemhm
          90 113 77 108 -9 115 -36 112 hintmask 1001111010000000
          570 120 rmoveto
          62 -37 33 -65 37 vhcurveto
          -50 29 -30 18 32 vvcurveto
          35 34 25 53 12 vhcurveto
          hintmask 0101110100000000
          12 32 7 33 31 vvcurveto
          100 -1 -82 55 -89 hhcurveto
          -124 -108 -102 -115 hvcurveto
          -23 vlineto
          -64 -12 rlineto
          -44 vlineto
          64 -10 rlineto
          -273 vlineto
          -12 -72 callgsubr
          -41 -51 callsubr
          172 469 vlineto
          83 33 31 52 60 31 -42 -62 -19 -3 -21 -6 -21 vhcurveto
          hintmask 1001111010000000
          -49 -23 -41 -38 -59 vvcurveto
          -57 39 -31 50 -29 vhcurveto
          51 -29 38 -22 -42 vvcurveto
          -32 -25 -20 -33 -22 -17 9 9 -11 vhcurveto
          hintmask 0011111000000000
          -9 7 -3 6 -5 17 -15 54 rcurveline
          -57 hlineto
          hintmask 1001110000000000
          -4 -21 -2 -23 -24 vvcurveto
          -16 1 -18 2 -16 vhcurveto
          -15 35 52 -16 55 hhcurveto
          hintmask 1001111010000000
          97 73 45 86 hvcurveto
          endchar
        </CharString>
        <CharString name="grave">
          -122 653 -20 hstem
          63 201 vstem
          128 653 -70 callsubr
        </CharString>
        <CharString name="gravecomb">
          653 -20 hstem
          -119 201 vstem
          -54 653 -70 callsubr
        </CharString>
        <CharString name="gravecomb.case">
          646 -20 hstem
          -138 232 vstem
          -85 773 -56 callsubr
          endchar
        </CharString>
        <CharString name="greater">
          -76 37 372 hstem
          42 339 vstem
          381 192 rmoveto
          61 vlineto
          -306 156 -33 -72 246 -114 -246 -114 33 -72 rlineto
          endchar
        </CharString>
        <CharString name="greaterequal">
          -57 0 71 hstem
          48 339 vstem
          387 264 rmoveto
          60 vlineto
          -306 145 -30 -73 245 -103 -245 -103 30 -71 rlineto
          299 -119 rmoveto
          71 -332 -71 vlineto
          endchar
        </CharString>
        <CharString name="guillemotleft">
          49 417 -20 hstem
          30 473 vstem
          256 194 -26 callgsubr
          -226 -56 -26 callgsubr
          endchar
        </CharString>
        <CharString name="guillemotright">
          45 417 -20 hstem
          32 469 vstem
          501 194 -15 callsubr
          -9 164 -15 callsubr
          endchar
        </CharString>
        <CharString name="guilsinglleft">
          -177 417 -20 hstem
          30 247 vstem
          30 194 -26 callgsubr
          endchar
        </CharString>
        <CharString name="guilsinglright">
          -177 417 -20 hstem
          32 247 vstem
          279 194 -15 callsubr
          endchar
        </CharString>
        <CharString name="h">
          -75 callgsubr
          endchar
        </CharString>
        <CharString name="hbar">
          42 0 -74 callgsubr
          293.5 69 59 48 119 -20 36 -20 hstemhm
          80 113 147 113 hintmask 11101110
          18 472 rmoveto
          62 -397 hlineto
          -12 -7 -7 -37 callgsubr
          219 47 vlineto
          -29 7 rlineto
          -12 13 callsubr
          245 vlineto
          16 24 28 7 26 hhcurveto
          50 19 -30 -72 hvcurveto
          -166 vlineto
          -13 -7 -5 -11 -4 vhcurveto
          -29 -51 callsubr
          219 47 vlineto
          -41 7 -77 callgsubr
          180 vlineto
          100 -29 57 -97 -52 -46 -15 -35 -36 vhcurveto
          109 121 48 -121 vlineto
          hintmask 11110110
          119 vlineto
          hintmask 11101110
          -16 16 -48 -1 -68 -6 -48 4 callgsubr
          -41 -62 vlineto
          endchar
        </CharString>
        <CharString name="hcircumflex">
          -75 callgsubr
          17 678 -81 callgsubr
          -24 callsubr
        </CharString>
        <CharString name="hungarumlaut">
          -122 465 194 hstem
          65 323 vstem
          101 465 -67 callsubr
        </CharString>
        <CharString name="hyphen">
          -106 180 74 hstem
          51 278 vstem
          51 180 rmoveto
          278 74 -278 hlineto
          endchar
        </CharString>
        <CharString name="i">
          -69 callsubr
          72 122 hstemhm
          74 43 callsubr
          hintmask 11101000
          -104 callgsubr
          hintmask 11110000
          2 461 -88 callsubr
          endchar
        </CharString>
        <CharString name="iacute">
          -69 callsubr
          249 -20 -93 callsubr
          -108 380 -95 callsubr
        </CharString>
        <CharString name="iacute_j.NLD">
          57 -174 -21 195 18 callsubr
          249 -20 47 callsubr
          162 112 -88 callgsubr
          -108 380 rmoveto
          70 40 72 53 34 44 -65 60 rcurveline
          -141 -162 rlineto
          397 -67 -94 callsubr
          -114 47 -95 callsubr
        </CharString>
        <CharString name="ibreve">
          -69 callsubr
          68 76 -93 callsubr
          67 514 -9 callsubr
        </CharString>
        <CharString name="icircumflex">
          -69 callsubr
          235 -20 -93 callsubr
          -171 384 -12 callgsubr
        </CharString>
        <CharString name="idieresis">
          -69 callsubr
          75 115 hstemhm
          -10 112 -12 114 -43 112 hintmask 11101000
          -104 callgsubr
          hintmask 11110100
          -102 461 -97 callsubr
        </CharString>
        <CharString name="igrave">
          -69 callsubr
          249 -20 -93 callsubr
          -126 577 -70 callsubr
        </CharString>
        <CharString name="ij">
          49 -174 -21 195 18 callsubr
          72 122 hstemhm
          74 43 callsubr
          130 132 -108 112 hintmask 11110101
          -104 callgsubr
          hintmask 11111001
          2 461 -88 callsubr
          249 -113 -94 callsubr
          hintmask 11110110
          -4 128 -88 callsubr
          endchar
        </CharString>
        <CharString name="imacron">
          -69 callsubr
          90 67 hstemhm
          13 238 -161 114 hintmask 11101000
          -104 callgsubr
          hintmask 11110000
          -191 418 rmoveto
          238 67 -238 hlineto
          endchar
        </CharString>
        <CharString name="infinity">
          225 57 65 -63 76 163 76 -62 65 hstemhm
          39 77 479 78 hintmask 10011100
          673 230 rmoveto
          hintmask 10101100
          84 -56 60 -81 -68 -54 -43 -57 -36 vhcurveto
          hintmask 01011100
          71 -58 -43 32 -64 hhcurveto
          -101 -73 -76 -96 -86 56 -60 80 68 55 43 57 36 hvcurveto
          hintmask 10011100
          -71 57 44 -31 64 hhcurveto
          100 74 75 98 hvcurveto
          hintmask 01011100
          -466 -95 rmoveto
          -53 -38 45 55 45 25 32 34 42 36 -50 -71 56 hvcurveto
          -39 -36 -33 -17 -33 hhcurveto
          hintmask 10101100
          329 -13 rmoveto
          -41 -37 50 71 -56 hvcurveto
          38 36 34 17 32 hhcurveto
          53 38 -44 -56 -45 -25 -31 -34 hvcurveto
          endchar
        </CharString>
        <CharString name="integral">
          -141 -194 66 726 66 hstemhm
          71 117 -29 117 hintmask 11010000
          276 -7 rmoveto
          hintmask 11100000
          137 -88 238 128 vvcurveto
          76 32 26 40 20 21 -6 -12 20 vhcurveto
          26 41 rlineto
          27 -26 -43 16 -44 hhcurveto
          -85 -78 -61 -127 hvcurveto
          hintmask 11010000
          -137 88 -236 -129 vvcurveto
          -77 -32 -25 -42 -19 -21 5 12 -21 vhcurveto
          -25 -40 rlineto
          -27 26 42 -16 44 hhcurveto
          87 78 61 126 hvcurveto
          endchar
        </CharString>
        <CharString name="iogonek">
          -203 -189 63 126 18 callsubr
          72 122 hstemhm
          42 91 -59 43 callsubr
          hintmask 11110010
          243 -161 rmoveto
          hintmask 11111000
          13 callgsubr
          hintmask 11110010
          42 47 hlineto
          -41 7 -77 callgsubr
          333 vlineto
          -97 callgsubr
          hintmask 11111000
          15 callsubr
          hintmask 11110010
          35 40 11 17 27 hvcurveto
          hintmask 11110100
          -37 698 -88 callsubr
          endchar
        </CharString>
        <CharString name="itilde">
          -69 callsubr
          66 18 callgsubr
          90 114 hintmask 11001100
          -104 callgsubr
          77 499 rmoveto
          hintmask 11100100
          -35 17 rlineto
          -24 -13 -19 -20 -23 hhcurveto
          hintmask 11010100
          11 callgsubr
          hintmask 11100100
          31 28 -51 47 hhcurveto
          hintmask 11001100
          54 36 51 54 13 hvcurveto
          endchar
        </CharString>
        <CharString name="j">
          37 callsubr
          72 122 hstemhm
          59 132 -108 112 hintmask 11101000
          180 424 -94 callsubr
          hintmask 11110000
          -4 128 -88 callsubr
          endchar
        </CharString>
        <CharString name="jacute">
          37 callsubr
          249 -20 hstem
          83 112 vstem
          180 424 -94 callsubr
          -114 47 -95 callsubr
        </CharString>
        <CharString name="jcircumflex">
          37 callsubr
          235 -20 hstem
          83 112 vstem
          180 424 -94 callsubr
          -177 51 -12 callgsubr
        </CharString>
        <CharString name="k">
          23 0 -74 callgsubr
          318.5 44 227 -20 35 -20 hstemhm
          80 113 75 211 hintmask 11011100
          -58 callsubr
          hintmask 11101100
          437 vlineto
          hintmask 11011100
          -10 callsubr
          endchar
        </CharString>
        <CharString name="kcommaaccent">
          23 16 callgsubr
          -74 callgsubr
          318.5 44 227 -20 35 -20 hstemhm
          80 113 67 79 -71 211 hintmask 11101101
          -58 callsubr
          hintmask 11110101
          437 vlineto
          hintmask 11101110
          -10 callsubr
          318 -111 -102 callsubr
        </CharString>
        <CharString name="l">
          -209 0 -74 callgsubr
          604.5 -20 hstem
          82 113 vstem
          -87 callgsubr
          endchar
        </CharString>
        <CharString name="lacute">
          -209 0 -74 callgsubr
          604.5 -20 112 -21 hstem
          82 113 vstem
          -87 callgsubr
          82 699 -96 callsubr
          endchar
        </CharString>
        <CharString name="lcaron">
          -196 0 -74 callgsubr
          604.5 -20 hstem
          82 113 vstem
          -87 callgsubr
          95 395 -41 callsubr
        </CharString>
        <CharString name="lcommaaccent">
          -209 16 callgsubr
          -74 callgsubr
          604.5 -20 hstemhm
          82 113 -78 79 hintmask 11110000
          -87 callgsubr
          hintmask 11101000
          1 -187 rmoveto
          43 1 -28 30 -37 hhcurveto
          hintmask 11110000
          -28 -22 -20 -26 -19 11 -9 8 -8 hvcurveto
          hintmask 11101000
          7 -4 9 -6 -15 vvcurveto
          -17 -16 -18 -17 -13 vhcurveto
          25 -28 47 22 39 38 1 50 rlinecurve
          endchar
        </CharString>
        <CharString name="ldot">
          -128 0 -74 callgsubr
          162.5 124 318 -20 hstem
          82 113 52 134 vstem
          -87 callgsubr
          186 199 12 callgsubr
        </CharString>
        <CharString name="less">
          -76 37 372 hstem
          29 338 vstem
          367 109 rmoveto
          -246 115 246 113 -33 72 -305 -156 rlineto
          -61 vlineto
          305 -155 rlineto
          endchar
        </CharString>
        <CharString name="lessequal">
          -57 0 71 hstem
          43 338 vstem
          379 191 rmoveto
          -244 104 244 103 -31 71 -305 -145 rlineto
          -60 vlineto
          305 -145 rlineto
          33 -119 rmoveto
          71 -331 -71 vlineto
          endchar
        </CharString>
        <CharString name="logicalnot">
          -22 186 74 hstem
          331 79 vstem
          51 186 rmoveto
          280 -148 79 222 -359 hlineto
          endchar
        </CharString>
        <CharString name="lslash">
          -194 0 -74 callgsubr
          362.5 -20 262 -20 hstem
          91 114 vstem
          13 234 rmoveto
          78 37 rlineto
          -196 vlineto
          -12 -6 -7 -11 -2 vhcurveto
          -47 -51 callsubr
          243 47 vlineto
          -47 7 -77 callgsubr
          238 vlineto
          78 36 rlineto
          63 vlineto
          -78 -39 rlineto
          265 vlineto
          -15 16 -50 -1 -68 -9 -48 -13 rlinecurve
          -45 vlineto
          50 -8 rlineto
          11 -2 6 -7 -12 vvcurveto
          -227 vlineto
          -78 -35 rlineto
          endchar
        </CharString>
        <CharString name="m">
          298 -54 callsubr
          47 callsubr
          139 113 139 113 vstem
          768 hmoveto
          47 vlineto
          -42 7 -77 callgsubr
          186 vlineto
          103 -28 58 -99 -53 -51 -16 -42 -37 vhcurveto
          38 -18 -34 20 -58 hhcurveto
          -51 -47 -16 -38 -34 hvcurveto
          -6 40 -17 15 -46 -1 -55 -7 -47 -78 callsubr
          -11 -2 vhcurveto
          -42 -51 callsubr
          219 47 vlineto
          -30 7 rlineto
          -11 4 -5 5 13 vvcurveto
          256 vlineto
          14 23 26 7 23 hhcurveto
          51 16 0 callgsubr
          -7 -5 -11 -4 vhcurveto
          -28 -7 -6 callsubr
          -29 7 rlineto
          -11 13 callsubr
          189 vlineto
          24 -2 22 -4 19 vhcurveto
          16 25 26 7 24 hhcurveto
          51 19 -31 -74 hvcurveto
          -172 vlineto
          -13 -6 -5 -12 -4 vhcurveto
          -28 -51 callsubr
          vlineto
          endchar
        </CharString>
        <CharString name="macron">
          -122 494 67 hstem
          52 259 vstem
          52 494 -6 callgsubr
        </CharString>
        <CharString name="minus">
          -52 186 74 hstem
          52 330 vstem
          52 186 rmoveto
          330 74 -330 hlineto
          endchar
        </CharString>
        <CharString name="minute">
          -286 408 244 hstem
          39 140 vstem
          39 408 rmoveto
          22 callgsubr
          endchar
        </CharString>
        <CharString name="multiply">
          -82 61 327 hstem
          41 321 vstem
          97 61 rmoveto
          105 114 105 -114 55 57 -109 106 109 106 -55 58 -105 -114 -105 114 -56 -58 110 -106 -110 -106 rlineto
          endchar
        </CharString>
        <CharString name="n">
          53 -54 callsubr
          47 callsubr
          146 113 vstem
          522 -103 callgsubr
          endchar
        </CharString>
        <CharString name="nacute">
          53 -54 callsubr
          230 -20 47 callsubr
          146 113 vstem
          522 -103 callgsubr
          -66 456 -95 callsubr
        </CharString>
        <CharString name="napostrophe">
          71 -54 callsubr
          226 -20 hstemhm
          21 86 1 114 146 113 hintmask 11101100
          540 -103 callgsubr
          hintmask 11110100
          -213 -25 callsubr
        </CharString>
        <CharString name="ncaron">
          53 -54 callsubr
          230 24 callgsubr
          90 114 146 113 hintmask 11011100
          522 -103 callgsubr
          88 654 rmoveto
          hintmask 11101100
          -66 callsubr
          hintmask 11011100
          22 callsubr
        </CharString>
        <CharString name="ncommaaccent">
          53 16 callgsubr
          -74 callgsubr
          302.5 70 hstemhm
          90 114 55 79 12 113 hintmask 11110100
          522 -103 callgsubr
          hintmask 11111100
          36 -111 -102 callsubr
        </CharString>
        <CharString name="nine">
          -20 -11 65 120 66 219 53 hstem
          33 113 160 121 vstem
          229 -47 callgsubr
        </CharString>
        <CharString name="nine.tf">
          -34 -11 65 120 66 219 53 hstem
          25 113 160 121 vstem
          221 -47 callgsubr
        </CharString>
        <CharString name="notequal">
          -71 108 73 84 74 hstem
          38 339 vstem
          377 108 rmoveto
          73 -158 vlineto
          35 84 rlineto
          123 74 -93 hlineto
          38 94 rlineto
          -59 hlineto
          -39 -94 rlineto
          -186 -74 156 hlineto
          -34 -84 rlineto
          -122 -73 92 hlineto
          -37 -90 rlineto
          60 hlineto
          37 90 rlineto
          endchar
        </CharString>
        <CharString name="ntilde">
          53 -54 callsubr
          47 18 callgsubr
          90 114 146 113 hintmask 11001110
          522 -103 callgsubr
          hintmask 11100110
          129 48 callgsubr
          hintmask 11010110
          -56 callgsubr
          hintmask 11100110
          -32 callgsubr
        </CharString>
        <CharString name="numbersign">
          54 0 188 -60 60 131 58 -58 180 hstemhm
          37 155.5 -64.5 85.5 -64 85.5 65.5 86 -44 85 hintmask 1001100100000000
          100 hmoveto
          86 hlineto
          hintmask 0101100100000000
          13 128 rlineto
          108 hlineto
          hintmask 1001010100000000
          -13 -128 rlineto
          86 hlineto
          hintmask 0101010100000000
          13 128 rlineto
          hintmask 0101010010000000
          97 hlineto
          hintmask 1001010010000000
          -1 60 rlineto
          -89 hlineto
          13 131 rlineto
          92 hlineto
          hintmask 1010010010000000
          1 58 rlineto
          -85 hlineto
          hintmask 1001010010000000
          13 122 rlineto
          -85 hlineto
          hintmask 1010001010000000
          -13 -122 rlineto
          -107 hlineto
          hintmask 1001001100000000
          12 122 rlineto
          -85 hlineto
          hintmask 1010001100000000
          -13 -122 rlineto
          hintmask 1010010100000000
          -94 hlineto
          hintmask 1001010100000000
          -58 86 vlineto
          -14 -131 rlineto
          hintmask 1001100100000000
          -84 hlineto
          hintmask 0101100100000000
          -60 77 vlineto
          hintmask 1001010100000000
          93 60 rmoveto
          13 131 rlineto
          107 hlineto
          -15 -131 rlineto
          endchar
        </CharString>
        <CharString name="o">
          -1 callsubr
          hstem
          33 123 162 123 vstem
          -101 callgsubr
          endchar
        </CharString>
        <CharString name="oacute">
          -1 callsubr
          228 -20 hstem
          33 123 162 123 vstem
          -101 callgsubr
          168 252 -95 callsubr
        </CharString>
        <CharString name="obreve">
          -1 callsubr
          47 78 hstem
          33 123 162 123 vstem
          -101 callgsubr
          350 386 -84 callgsubr
        </CharString>
        <CharString name="ocircumflex">
          -1 callsubr
          216 -20 hstem
          33 123 162 123 vstem
          -101 callgsubr
          91 255 -86 callsubr
        </CharString>
        <CharString name="odieresis">
          -1 callsubr
          54 115 hstemhm
          33 123 -61 23 callsubr
          -60 123 hintmask 11010010
          -101 callgsubr
          hintmask 11101100
          174 333 -97 callsubr
        </CharString>
        <CharString name="oe">
          230 -9 51 -51 72 164 45 101 52 -50 49 hstemhm
          33 123 161 119 140 106 hintmask 10110111
          156 209 rmoveto
          122 25 42 54 61 21 -52 -114 -123 -24 -42 -55 -62 -20 54 113 vhcurveto
          524 -118 rmoveto
          hintmask 01101111
          -28 19 rlineto
          -31 -24 -42 -16 -42 hhcurveto
          -74 -34 45 117 hvcurveto
          2 241 vlineto
          3 17 2 22 17 vvcurveto
          86 -54 55 -104 -60 -49 -19 -35 -33 vhcurveto
          hintmask 10110111
          36 -30 -48 19 -64 hhcurveto
          -114 -93 -63 -157 -141 71 -73 123 63 52 18 39 34 hvcurveto
          -36 30 46 -21 62 hhcurveto
          79 67 35 65 20 hvcurveto
          hintmask 10101111
          -169 284 rmoveto
          45 20 -35 -51 hvcurveto
          -17 -138 vlineto
          76 7 27 27 39 hhcurveto
          endchar
        </CharString>
        <CharString name="ogonek">
          -122 -189 63 hstem
          82 90 vstem
          281 -35 callsubr
        </CharString>
        <CharString name="ograve">
          -1 callsubr
          228 -20 hstem
          33 123 162 123 vstem
          -101 callgsubr
          150 449 -70 callsubr
        </CharString>
        <CharString name="ohungarumlaut">
          -1 callsubr
          hstem
          33 123 162 123 vstem
          -101 callgsubr
          123 261 -67 callsubr
        </CharString>
        <CharString name="omacron">
          -1 callsubr
          69 67 hstemhm
          33 123 -49 259 -48 123 hintmask 11110100
          -101 callgsubr
          hintmask 11101000
          74 290 -6 callgsubr
        </CharString>
        <CharString name="one">
          -130 0 46 457 -20 30 -20 hstemhm
          143 111 hintmask 11010000
          254 -40 callsubr
        </CharString>
        <CharString name="one.dnom">
          -101 0 46 hstem
          169 85 vstem
          254 355 -82 callgsubr
          endchar
        </CharString>
        <CharString name="one.numr">
          -101 227 46 hstem
          166 85 vstem
          251 582 -82 callgsubr
          endchar
        </CharString>
        <CharString name="one.tf">
          -34 0 46 457 -20 30 -20 hstemhm
          189 111 hintmask 11010000
          300 -40 callsubr
        </CharString>
        <CharString name="onehalf">
          392 0 57 170 46 30 61 204 -20 hstemhm
          139 85 505 94 hintmask 11011100
          224 582 -82 callgsubr
          73 -302 rmoveto
          -19 callgsubr
          347 hmoveto
          -51 callgsubr
          hintmask 11111100
          60 -46 52 -86 -75 -44 -39 -39 -13 vhcurveto
          22 -21 rlineto
          -37 callsubr
        </CharString>
        <CharString name="onequarter">
          400 0 117 -49 49 110 46 72 16 207 -20 hstemhm
          141 85 493 81 hintmask 10111110
          226 582 -82 callgsubr
          73 -302 rmoveto
          -19 callgsubr
          hintmask 01111110
          341 68 rmoveto
          157 hlineto
          hintmask 10111110
          -68 81 vlineto
          hintmask 01111110
          51 callsubr
          hintmask 10111110
          -23 callsubr
          hintmask 01111110
          6 callsubr
        </CharString>
        <CharString name="onesuperior">
          -139 227 46 hstem
          147 85 vstem
          232 582 -82 callgsubr
          endchar
        </CharString>
        <CharString name="ordfeminine">
          -84 247 -74 callgsubr
          -50.5 55 80 38 90 65 hstemhm
          37 105 84 99 hintmask 01111100
          134 247 rmoveto
          41 35 13 25 23 hvcurveto
          hintmask 10111100
          -28 12 23 -10 33 hhcurveto
          24 29 7 4 15 hvcurveto
          38 vlineto
          -29 3 rlineto
          -10 1 -5 4 12 vvcurveto
          136 vlineto
          81 -40 42 -92 -77 -49 -29 -49 -19 vhcurveto
          23 -19 rlineto
          21 26 30 11 35 hhcurveto
          43 21 -14 -45 hvcurveto
          -31 vlineto
          -59 -3 rlineto
          hintmask 01111100
          -68 -3 -62 -31 -59 vvcurveto
          -46 38 -31 59 vhcurveto
          43 55 rmoveto
          -25 -10 11 23 24 12 19 39 2 hvcurveto
          33 2 rlineto
          -68 vlineto
          -8 -14 -17 -5 -18 hhcurveto
          endchar
        </CharString>
        <CharString name="ordmasculine">
          -83 243 43 245 43 hstem
          35 109 114 110 vstem
          258 404 rmoveto
          -89 -18 -29 -37 -45 -14 34 92 90 19 29 37 45 13 -33 -94 vhcurveto
          -223 1 rmoveto
          -111 60 -51 102 97 74 44 125 111 -59 51 -102 -98 -74 -45 -124 vhcurveto
          endchar
        </CharString>
        <CharString name="oslash">
          -11 -9 49 -22 -21 379 49 -7 -20 hstemhm
          33 114 181 113 hintmask 10101100
          441 211 rmoveto
          hintmask 10011100
          89 -28 63 -54 33 vhcurveto
          31 64 -49 26 -34 -68 rlineto
          hintmask 01101100
          5 -19 -21 2 -23 hhcurveto
          -118 -93 -61 -160 -91 29 -62 56 -33 hvcurveto
          -33 -69 49 -26 36 74 rlineto
          hintmask 10101100
          -4 19 20 -2 22 hhcurveto
          119 91 60 160 hvcurveto
          -294 2 rmoveto
          120 31 43 57 21 16 -5 -10 13 vhcurveto
          -123 -268 rlineto
          -11 28 -4 40 52 vvcurveto
          93 -173 rmoveto
          -19 -16 4 8 -13 hvcurveto
          122 267 rlineto
          10 -28 4 -38 -51 vvcurveto
          -119 -31 -43 -57 vhcurveto
          endchar
        </CharString>
        <CharString name="otilde">
          -1 callsubr
          45 18 callgsubr
          33 123 162 123 hintmask 11001110
          -101 callgsubr
          hintmask 11100110
          363 371 -18 callsubr
          hintmask 11010110
          -56 callgsubr
          hintmask 11100110
          -32 callgsubr
        </CharString>
        <CharString name="p">
          16 -180 50 122 48 -22 -21 359 69 hstemhm
          82 114 152 121 hintmask 11011100
          249 40 rmoveto
          -20 -18 3 8 -15 hvcurveto
          285 vlineto
          11 16 23 9 27 hhcurveto
          60 27 -45 -104 -1 hvcurveto
          -126 -39 -41 -60 vhcurveto
          220 187 rmoveto
          137 -68 61 -89 -54 -39 -21 -32 -28 vhcurveto
          -7 37 -17 15 -46 -1 -57 -8 -45 -12 rlinecurve
          -48 vlineto
          47 -8 rlineto
          11 -2 5 -48 callgsubr
          -431 vlineto
          -11 -6 9 callsubr
          hintmask 10111100
          103 vlineto
          hintmask 11011100
          -4 18 18 -1 16 hhcurveto
          136 85 83 152 hvcurveto
          endchar
        </CharString>
        <CharString name="paragraph">
          74 0 47 469 62 -10 -20 hstemhm
          190 89 81 90 hintmask 11011000
          106 -139 rmoveto
          129 36 44 47 135 vvcurveto
          437 vlineto
          25 34 -3 -1 22 hvcurveto
          -512 165 47 vlineto
          -58 44 callsubr
          11 vvcurveto
          hintmask 10111000
          409 vlineto
          11 6 8 12 2 vhcurveto
          53 11 rlineto
          49 -81 vlineto
          -90 -75 10 -61 hhcurveto
          hintmask 11011000
          -131 -58 -68 -92 -114 84 -51 81 -8 hvcurveto
          -131 vlineto
          -115 -19 -43 -86 -45 vhcurveto
          endchar
        </CharString>
        <CharString name="parenleft">
          -218 -168 907 61 callgsubr
          54 -83 132 2 243 1 219 77 127 37 58 -37 37 rcurveline
          -38 -31 -146 -159 -262 vvcurveto
          -286 153 -141 31 -28 vhcurveto
          endchar
        </CharString>
        <CharString name="parenright">
          -218 -168 907 hstem
          129 106 vstem
          235 283 rmoveto
          287 -153 141 -31 28 vhcurveto
          -37 -37 34 -56 83 -131 -2 -242 rlinecurve
          -1 -220 -77 -127 -37 -57 37 -37 rcurveline
          38 31 146 158 262 vvcurveto
          endchar
        </CharString>
        <CharString name="partialdiff">
          6 -9 68 258 55 199 72 hstem
          33 120 192 114 vstem
          33 164 rmoveto
          -105 62 -68 109 173 82 170 182 182 -84 118 -150 -70 -55 -25 -41 -33 vhcurveto
          22 -36 rlineto
          19 27 31 11 34 hhcurveto
          109 43 -111 -110 10 hvcurveto
          16 -30 -36 6 -34 hhcurveto
          -115 -95 -77 -131 hvcurveto
          200 -105 rmoveto
          -53 -27 54 66 77 36 61 69 29 33 -9 -20 25 hvcurveto
          -108 -2 -30 -121 -80 hhcurveto
          endchar
        </CharString>
        <CharString name="percent">
          251 3 callsubr
          hintmask 0110011111000000
          9 callgsubr
          hintmask 1010101111000000
          91 -53 30 callgsubr
          -91 53 -62 90 vhcurveto
          hintmask 0110011111000000
          54 callgsubr
          hvcurveto
          hintmask 1010101111000000
          4 callsubr
          hintmask 1001101111000000
          92 -54 30 callgsubr
          -92 53 -62 91 vhcurveto
          hintmask 1010101111000000
          54 callgsubr
          hvcurveto
          hintmask 1001101111000000
          6 callgsubr
          endchar
        </CharString>
        <CharString name="period">
          -264 -7 125 hstem
          44 134 vstem
          178 56 rmoveto
          -49 callsubr
        </CharString>
        <CharString name="periodcentered">
          -254 180 125 hstem
          50 134 vstem
          184 243 rmoveto
          -49 callsubr
        </CharString>
        <CharString name="perthousand">
          590 3 callsubr
          45 91 111 93 hintmask 0110010100000000
          9 callgsubr
          hintmask 0010101100000000
          91 -53 30 callgsubr
          -91 53 -62 90 vhcurveto
          hintmask 0110010100000000
          54 callgsubr
          hvcurveto
          hintmask 1010101101000000
          4 callsubr
          hintmask 1001000011000000
          92 -54 30 callgsubr
          -92 53 -62 91 vhcurveto
          hintmask 1010101101000000
          54 callgsubr
          hvcurveto
          hintmask 1001000011110000
          6 callgsubr
          544 -1 rmoveto
          92 -53 62 -91 -80 -71 -56 -109 -92 52 -62 91 54 callgsubr
          vhcurveto
          -204 1 rmoveto
          71 18 35 34 39 20 -42 -76 -72 -18 -35 -34 -37 -22 41 78 vhcurveto
          endchar
        </CharString>
        <CharString name="pi">
          53 -11 81 -60 -21 331 93 -12 12 hstemhm
          300 95 hintmask 01101000
          239 230 rmoveto
          18 90 rlineto
          69 hlineto
          -20 -170 rlineto
          -3 -24 -3 -32 -18 vvcurveto
          -58 25 -29 49 43 52 25 32 33 vhcurveto
          hintmask 10101000
          -17 42 rlineto
          -12 -23 -27 -6 -15 hhcurveto
          -22 -9 17 41 2 hvcurveto
          8 192 rlineto
          99 hlineto
          hintmask 01011000
          25 81 rlineto
          hintmask 01101000
          -16 14 -324 -2 rlineto
          -89 -44 -36 -93 -23 hvcurveto
          41 -20 rlineto
          36 24 25 20 42 hhcurveto
          39 hlineto
          -9 -33 -37 -123 -60 -69 -62 -28 rlinecurve
          -1 -21 67 -61 76 51 43 75 24 119 rlinecurve
          endchar
        </CharString>
        <CharString name="plus">
          -81 187 72 hstem
          164 77 vstem
          241 52 rmoveto
          80 vlineto
          -2 58 57 -3 rlineto
          76 72 -76 hlineto
          -57 -3 2 57 rlineto
          82 -77 -82 vlineto
          3 -57 -57 3 rlineto
          -76 -72 76 hlineto
          57 3 -3 -58 rlineto
          -80 vlineto
          endchar
        </CharString>
        <CharString name="plusminus">
          -57 0 69 167 69 hstem
          176 77 vstem
          253 115 rmoveto
          67 vlineto
          -2 56 56 -2 rlineto
          77 69 -77 hlineto
          -56 -2 2 58 rlineto
          70 -77 -70 vlineto
          3 -58 -57 2 rlineto
          -77 -69 77 hlineto
          57 2 -3 -56 rlineto
          -67 vlineto
          204 -115 rmoveto
          69 -331 -69 vlineto
          endchar
        </CharString>
        <CharString name="product">
          146 -84 47 551 54 hstem
          105 119 185 119 vstem
          528 487 rmoveto
          12 5 7 12 3 vhcurveto
          57 10 rlineto
          49 -572 -49 vlineto
          58 -45 callgsubr
          37 callgsubr
          -492 vlineto
          -11 -6 -7 -11 -3 43 callgsubr
          251 47 vlineto
          -40 10 rlineto
          -11 3 -6 8 11 vvcurveto
          519 185 -519 vlineto
          -11 -6 -8 -11 -3 vhcurveto
          -37 -10 rlineto
          -47 247 47 vlineto
          -57 11 rlineto
          -12 3 -5 7 11 vvcurveto
          endchar
        </CharString>
        <CharString name="q">
          -1 -180 50 122 65 317 51 -3 -20 hstemhm
          34 120 153 114 hintmask 11101100
          198 -8 rmoveto
          47 36 18 27 26 hvcurveto
          -143 vlineto
          -12 -6 -7 -12 -1 vhcurveto
          -62 -8 rlineto
          -46 246 46 vlineto
          -34 8 rlineto
          -11 2 -7 7 11 vvcurveto
          hintmask 11011100
          513 vlineto
          -19 15 rlineto
          hintmask 11101100
          -50 -22 rlineto
          15 -30 -40 10 -38 hhcurveto
          -130 -80 -85 -145 -142 70 -61 94 hvcurveto
          40 65 rmoveto
          -51 -33 39 117 117 39 44 58 23 19 -6 -11 14 hvcurveto
          -280 vlineto
          -12 -20 -24 -8 -25 hhcurveto
          endchar
        </CharString>
        <CharString name="question">
          -75 -7 120 468 57 hstemhm
          116 130 -127 96 53 118 hintmask 11011000
          211 180 rmoveto
          8 56 5 34 4 1 38 30 rlinecurve
          68 49 52 45 76 vvcurveto
          92 -76 75 -118 -68 -60 -26 -31 -37 vhcurveto
          2 -47 10 -52 14 -43 rrcurveto
          67 hlineto
          10 82 2 17 3 9 9 10 rlinecurve
          12 11 20 12 25 hhcurveto
          42 26 -34 -46 -48 -25 -34 -53 -49 hvcurveto
          -41 -37 -30 -21 -44 vvcurveto
          -28 16 -36 12 -24 vhcurveto
          hintmask 11100000
          99 -127 rmoveto
          36 -26 24 -39 -40 -25 -24 -36 -35 25 -25 40 39 26 25 35 vhcurveto
          endchar
        </CharString>
        <CharString name="questiondown">
          -81 -219 56 469 119 hstemhm
          22 119 20 131 -99.5 96.5 hintmask 11101000
          196 240 rmoveto
          -7 -57 -5 -34 -4 -2 -39 -29 rlinecurve
          -68 -49 -51 -46 -75 vvcurveto
          -92 76 -75 118 67 61 25 32 37 vhcurveto
          -2 47 -9 51 -15 43 rrcurveto
          -67 hlineto
          -9 -81 -3 -17 -3 -9 -9 -11 rlinecurve
          -11 -11 -20 -13 -25 hhcurveto
          -42 -25 35 45 49 24 33 53 49 hvcurveto
          41 38 30 21 43 vvcurveto
          29 -16 36 -12 25 vhcurveto
          hintmask 11010000
          -100 126 rmoveto
          -36 26 -24 40 40 25 23 37 36 -25 23 -40 -40 -26 -24 -35 vhcurveto
          endchar
        </CharString>
        <CharString name="quotedbl">
          -88 320 305 hstem
          54 86 119 86 vstem
          268 320 26 callsubr
          -187 -305 26 callsubr
          endchar
        </CharString>
        <CharString name="quotedblbase">
          -87 -113 272 hstem
          97 85 84 -27 callsubr
          169 -19 callsubr
        </CharString>
        <CharString name="quotedblleft">
          -107 425 271 hstem
          31 85 83 85 vstem
          199 519 rmoveto
          -50 callsubr
          -168 hmoveto
          -50 callsubr
          endchar
        </CharString>
        <CharString name="quotedblright">
          -107 417 272 hstem
          98 85 83 -27 callgsubr
          168 -19 callsubr
        </CharString>
        <CharString name="quoteleft">
          -276 425 271 hstem
          31 85 vstem
          31 519 rmoveto
          -50 callsubr
          endchar
        </CharString>
        <CharString name="quoteright">
          -275 417 272 hstem
          98 -27 callgsubr
          endchar
        </CharString>
        <CharString name="quotesinglbase">
          -256 -113 272 hstem
          97 -27 callsubr
          endchar
        </CharString>
        <CharString name="quotesingle">
          -292 320 305 hstem
          54 86 vstem
          63 320 26 callsubr
          endchar
        </CharString>
        <CharString name="r">
          -25 callgsubr
          hstemhm
          90 114 hintmask 10001010
          -85 callsubr
          hintmask 10100010
          -22 callgsubr
          hintmask 11000010
          13 -46 rlineto
          50 hlineto
          hintmask 10010010
          29 callgsubr
          hintmask 10000110
          -8 callgsubr
          endchar
        </CharString>
        <CharString name="racute">
          -25 callgsubr
          248 -20 hstemhm
          90 114 hintmask 10001011
          -85 callsubr
          hintmask 10100011
          -22 callgsubr
          hintmask 11000011
          13 -46 rlineto
          50 hlineto
          hintmask 10010011
          29 callgsubr
          hintmask 10000111
          -8 callgsubr
          -15 118 -95 callsubr
        </CharString>
        <CharString name="radical">
          71 -141 821 hstem
          -10 572 vstem
          8 151 rmoveto
          59 14 14 3 10 -3 5 -13 rlinecurve
          118 -293 96 12 252 809 rlineto
          -79 hlineto
          -204 -708 -104 293 -22 12 -46 -14 -78 -38 -39 -32 rlinecurve
          endchar
        </CharString>
        <CharString name="rcaron">
          -25 callgsubr
          248 24 callgsubr
          90 114 hintmask 1000100110000000
          -85 callsubr
          hintmask 1010000110000000
          -22 callgsubr
          hintmask 1100000110000000
          13 -46 rlineto
          50 hlineto
          hintmask 1001000110000000
          29 callgsubr
          hintmask 1000010110000000
          -8 callgsubr
          139 316 rmoveto
          hintmask 1000011010000000
          -66 callsubr
          hintmask 1000010110000000
          22 callsubr
        </CharString>
        <CharString name="rcommaaccent">
          -83 16 callgsubr
          -74 callgsubr
          210.5 164 -96 96 -11 -20 30 24 callgsubr
          90 114 -65 79 hintmask 1100010100000000
          -85 callsubr
          hintmask 1101000100000000
          -22 callgsubr
          hintmask 1110000100000000
          13 -46 rlineto
          50 hlineto
          hintmask 1100100100000000
          29 callgsubr
          hintmask 1100001010000000
          -8 callgsubr
          20 -449 rmoveto
          43 1 -28 30 -37 hhcurveto
          hintmask 1100001100000000
          -28 -22 -20 -26 -19 11 -9 8 -8 hvcurveto
          hintmask 1100001010000000
          7 -4 9 -6 -15 vvcurveto
          -17 -16 -18 -17 -13 vhcurveto
          25 -28 47 22 39 38 1 50 rlinecurve
          endchar
        </CharString>
        <CharString name="registered">
          149 115 42 88 32.5 89 36.5 114 36 83 42 hstem
          36 49 125 72 85 77 106 48 vstem
          85 397 rmoveto
          140 97 99 136 137 95 -99 -140 -141 -96 -99 -136 -136 -97 99 141 vhcurveto
          -49 hmoveto
          -162 120 -120 162 162 118 120 162 162 -118 119 -162 -162 -120 -118 -163 vhcurveto
          284 6 rmoveto
          -12 -11 0 1 -15 hvcurveto
          109 vlineto
          3 11 10 1 9 hhcurveto
          39 16 -16 -39 -40 -19 -19 -28 hvcurveto
          -3 -128 rmoveto
          -23 5 rlineto
          -8 1 -4 5 8 vvcurveto
          72 vlineto
          43 1 7 -9 7 -12 6 -16 rlinecurve
          19 -50 rlineto
          -21 7 9 -14 14 hhcurveto
          75 33 hlineto
          -24 7 -6 2 -7 14 -21 45 rcurveline
          -7 18 -9 10 -18 7 rrcurveto
          49 12 18 34 39 vvcurveto
          61 -36 26 -86 -24 -25 -2 1 -28 vhcurveto
          -67 -34 hlineto
          20 -5 rlineto
          8 -2 4 -5 -7 vvcurveto
          -204 vlineto
          -7 -4 -5 -7 -2 vhcurveto
          -21 -6 rlineto
          -30 139 vlineto
          endchar
        </CharString>
        <CharString name="ring">
          -122 464 45 92 45 hstem
          74 64 88 64 vstem
          290 555 -67 callgsubr
        </CharString>
        <CharString name="s">
          46 callsubr
          27 callgsubr
          hintmask 11011000
          -95 callgsubr
          hintmask 11101000
          -40 callgsubr
          hintmask 11011000
          -8 callsubr
          endchar
        </CharString>
        <CharString name="sacute">
          46 callsubr
          229 62 callgsubr
          hintmask 11101100
          -95 callgsubr
          hintmask 11110100
          -40 callgsubr
          hintmask 11101100
          -8 callsubr
          120 435 -95 callsubr
        </CharString>
        <CharString name="scaron">
          46 callsubr
          229 -20 21 62 callgsubr
          hintmask 11010110
          -95 callgsubr
          hintmask 11011010
          -40 callgsubr
          hintmask 11010110
          -8 callsubr
          274 633 rmoveto
          hintmask 11100110
          -66 callsubr
          hintmask 11010110
          22 callsubr
        </CharString>
        <CharString name="scedilla">
          -85 42 callgsubr
          23 45 343 45 54 callsubr
          39 91 -19 112 hintmask 10110101
          41 21 rmoveto
          hintmask 10110110
          31 -13 42 -13 47 -4 rrcurveto
          hintmask 11110110
          -20 -60 -91 callsubr
          6 21 rlineto
          hintmask 10110101
          98 2 70 43 82 vvcurveto
          78 -63 30 -69 29 vhcurveto
          -48 20 -43 14 42 vvcurveto
          33 25 17 35 vhcurveto
          17 -1 15 -4 13 -7 11 -7 4 -7 3 -13 15 -51 rcurveline
          54 hlineto
          7 36 2 40 -3 35 rrcurveto
          14 -35 -55 10 -46 hhcurveto
          -110 -58 -49 -76 -64 43 -31 62 -29 hvcurveto
          66 -30 46 -14 -42 vvcurveto
          -30 -22 -23 -41 vhcurveto
          hintmask 10111001
          -40 callgsubr
          hintmask 10110101
          -8 callsubr
          endchar
        </CharString>
        <CharString name="scircumflex">
          46 callsubr
          217 62 callgsubr
          hintmask 11101100
          -95 callgsubr
          hintmask 11110100
          -40 callgsubr
          hintmask 11101100
          -8 callsubr
          43 438 -86 callsubr
        </CharString>
        <CharString name="scommaaccent">
          -85 -172 -21 182 47 343 45 54 callsubr
          25 79 7 112 hintmask 11101010
          -95 callgsubr
          hintmask 11110010
          -40 callgsubr
          hintmask 11101010
          -8 callsubr
          hintmask 11101100
          210 -132 -102 callsubr
        </CharString>
        <CharString name="second">
          -103 408 244 hstem
          39 323 vstem
          39 408 rmoveto
          22 callgsubr
          111 hmoveto
          22 callgsubr
          endchar
        </CharString>
        <CharString name="section">
          -23 -104 49 609 49 -36 -20 hstemhm
          37 81 -57 97 155 98 -65 81 hintmask 10110010
          56 -63 rmoveto
          -15 26 68 -26 78 hhcurveto
          hintmask 10110100
          129 54 63 68 43 -18 29 -35 25 hvcurveto
          hintmask 11001010
          38 21 31 45 58 vvcurveto
          73 -54 39 -79 36 vhcurveto
          -91 43 -45 17 43 vvcurveto
          32 24 23 48 26 26 -8 -10 14 vhcurveto
          12 -9 3 -8 2 -8 12 -64 rcurveline
          65 hlineto
          hintmask 10110010
          7 40 3 40 -3 40 rrcurveto
          hintmask 11001010
          14 -24 -65 22 -70 hhcurveto
          -127 -50 -64 -67 -42 16 -29 33 -25 hvcurveto
          hintmask 10110100
          -39 -21 -34 -45 -60 vvcurveto
          -72 53 -40 81 -36 vhcurveto
          97 -43 45 -17 -42 vvcurveto
          -32 -28 -23 -49 -31 -30 8 15 -18 vhcurveto
          -12 8 -3 9 -1 8 -13 64 rcurveline
          -65 hlineto
          hintmask 10110010
          -7 -41 -2 -40 2 -39 rrcurveto
          202 240 rmoveto
          -95 42 -45 25 47 vvcurveto
          20 10 25 15 18 vhcurveto
          18 -11 21 -10 25 -12 rrcurveto
          94 -42 45 -24 -47 vvcurveto
          -20 -10 -24 -14 -18 vhcurveto
          -18 10 -22 10 -24 11 rrcurveto
          endchar
        </CharString>
        <CharString name="semicolon">
          -238 297 125 hstemhm
          57 133 -81 86 hintmask 10100000
          195 29 rmoveto
          61 -31 34 -44 -37 -26 -25 -37 -27 14 -17 15 -11 vhcurveto
          13 -9 10 -1 -21 vvcurveto
          -34 -26 -42 -38 -35 vhcurveto
          22 -29 rlineto
          67 37 61 71 85 vvcurveto
          hintmask 11000000
          -5 331 17 callgsubr
          endchar
        </CharString>
        <CharString name="seven">
          -67 21 callgsubr
          121 120 hintmask 10101000
          335 -41 callgsubr
        </CharString>
        <CharString name="seven.tf">
          -34 21 callgsubr
          138 120 hintmask 10101000
          352 -41 callgsubr
        </CharString>
        <CharString name="six">
          -19 -11 53 220 65 122 63 hstem
          39 121 160 113 vstem
          241 -49 callgsubr
        </CharString>
        <CharString name="six.tf">
          -34 -11 53 220 65 122 63 hstem
          32 121 160 113 vstem
          234 -49 callgsubr
        </CharString>
        <CharString name="slash">
          -118 633 -20 hstem
          22 325 vstem
          114 -105 rmoveto
          233 738 rlineto
          -91 hlineto
          -234 -738 rlineto
          endchar
        </CharString>
        <CharString name="space">
          -289 endchar
        </CharString>
        <CharString name="sterling">
          14 26 callgsubr
          113 116 156 82 hintmask 10010111
          467 47 callgsubr
          -3 -25 -6 -17 rrcurveto
          -30 -8 -18 -15 -36 hhcurveto
          hintmask 01110110
          -35 -42 16 -40 hhcurveto
          16 23 18 41 63 vvcurveto
          16 112 51 -112 78 vlineto
          87 27 20 24 14 13 -4 -8 11 14 callsubr
          -4 44 rrcurveto
          15 -34 -42 12 -48 hhcurveto
          -119 -64 51 callgsubr
          -41 -34 -43 -24 vhcurveto
          30 -58 34 7 37 18 29 24 rlinecurve
          hintmask 10010110
          67 56 -54 77 hhcurveto
          hintmask 10010111
          60 48 30 78 hvcurveto
          endchar
        </CharString>
        <CharString name="sterling.tf">
          -34 26 callgsubr
          91 116 143 82 hintmask 10010111
          432 47 callgsubr
          -4 -25 -4 -17 rrcurveto
          -30 -9 -17 -15 -37 hhcurveto
          hintmask 01110110
          -30 -38 16 -36 hhcurveto
          16 23 18 41 63 vvcurveto
          16 110 51 -110 78 vlineto
          87 24 20 21 12 13 -3 -9 8 14 callsubr
          -3 44 rrcurveto
          15 -33 -42 12 -47 hhcurveto
          -113 -62 51 callgsubr
          -39 -34 -39 -24 vhcurveto
          29 -58 33 7 35 18 27 24 rlinecurve
          hintmask 10010110
          62 53 -54 72 hhcurveto
          hintmask 10010111
          59 49 30 78 hvcurveto
          endchar
        </CharString>
        <CharString name="summation">
          36 -84 74 409 169 -51 51 -40 40 hstemhm
          400 57 hintmask 10101000
          469 -84 rmoveto
          9 66 5 70 59 vvcurveto
          -56 11 -30 -99 -4 -13 -5 -7 -11 -5 rlinecurve
          -5 -13 -28 -3 -29 hhcurveto
          -172 hlineto
          201 283 -161 244 rlineto
          113 hlineto
          28 24 -3 -5 14 hvcurveto
          hintmask 11001000
          11 -5 6 -6 4 -14 25 -85 rcurveline
          57 hlineto
          hintmask 10101000
          5 65 -2 55 -7 49 rrcurveto
          -403 hlineto
          hintmask 10011000
          -20 -40 198 -294 -203 -280 19 -38 rlineto
          endchar
        </CharString>
        <CharString name="t">
          -145 -7 76 284 61 hstem
          77 115 vstem
          77 116 rmoveto
          -95 48 -28 71 63 53 25 51 23 vhcurveto
          -24 26 rlineto
          -71 callgsubr
          endchar
        </CharString>
        <CharString name="tbar">
          -144 -7 76 145 54 82 64 hstem
          78 114 vstem
          23 214 rmoveto
          55 -98 hlineto
          -95 48 -28 70 64 52 25 51 24 vhcurveto
          -24 26 rlineto
          -18 -20 -24 -8 -23 hhcurveto
          -34 -19 17 58 hvcurveto
          70 116 54 -116 82 120 64 -121 vlineto
          -4 130 rlineto
          -63 hlineto
          -36 -113 -3 -12 -7 -5 -13 -3 rlinecurve
          -45 -8 rlineto
          -46 vlineto
          58 -10 rlineto
          -79 -55 vlineto
          endchar
        </CharString>
        <CharString name="tcaron">
          -145 -7 76 284 61 hstem
          77 115 vstem
          77 116 rmoveto
          -95 48 -28 71 63 53 25 51 23 vhcurveto
          -24 26 rlineto
          -71 callgsubr
          208 121 -41 callsubr
        </CharString>
        <CharString name="thorn">
          -4 -180 50 122 48 -21 -21 358 69 215 -20 35 -20 hstemhm
          63 113 153 120 hintmask 11010111
          229 40 rmoveto
          -20 -18 3 8 -15 hvcurveto
          286 vlineto
          11 16 24 8 26 hhcurveto
          59 29 -43 -106 -1 hvcurveto
          -126 -1 -39 -41 -60 hhcurveto
          220 187 rmoveto
          138 -68 60 -90 -50 -37 -19 -28 -28 vhcurveto
          hintmask 11011011
          262 vlineto
          hintmask 10110111
          -15 15 -49 -1 -68 -9 -49 -13 rlinecurve
          -45 vlineto
          50 -8 rlineto
          11 -2 7 -7 -12 vvcurveto
          -664 vlineto
          -11 -7 9 callsubr
          104 vlineto
          hintmask 11010111
          -4 18 18 -2 16 hhcurveto
          135 86 83 152 hvcurveto
          endchar
        </CharString>
        <CharString name="three">
          -57 -11 70 178 31 171 73 hstemhm
          245 120 -96 124 hintmask 11101000
          393 -58 callgsubr
        </CharString>
        <CharString name="three.dnom">
          -101 -5 56 105 43 106 59 hstemhm
          220 88 -69 94 hintmask 11101000
          46 43 -28 callsubr
          hintmask 11110000
          -60 callsubr
          -34 -28 -24 -60 hvcurveto
          -10 -43 hlineto
          hintmask 11101000
          38 hlineto
          -13 callsubr
          endchar
        </CharString>
        <CharString name="three.numr">
          -101 57 callsubr
          223 88 -69 94 hintmask 11010100
          49 -57 callsubr
        </CharString>
        <CharString name="three.tf">
          -34 -11 70 178 31 171 73 hstemhm
          256 120 -96 124 hintmask 11101000
          404 -58 callgsubr
        </CharString>
        <CharString name="threequarters">
          395 0 117 -49 49 105 56 67 16 22 33 -33 43 106 59 -23 -20 hstemhm
          203 88 -69 94 398 81 hintmask 1010100101100000
          29 270 -28 callsubr
          hintmask 1010101010100000
          -60 callsubr
          hvcurveto
          hintmask 1010010110100000
          -34 -28 -24 -60 vhcurveto
          -10 hlineto
          hintmask 1010100101100000
          -43 38 vlineto
          -13 callsubr
          243 -305 rmoveto
          -19 callgsubr
          hintmask 0110100101100000
          341 68 rmoveto
          157 hlineto
          hintmask 1010100101100000
          -68 81 vlineto
          hintmask 0110100101100000
          51 callsubr
          hintmask 1011100101100000
          -23 callsubr
          hintmask 0110100101100000
          6 callsubr
        </CharString>
        <CharString name="threesuperior">
          -134 57 callsubr
          207 88 -69 94 hintmask 11010100
          33 -57 callsubr
        </CharString>
        <CharString name="tilde">
          -122 470 78 -27 78 hstemhm
          23 318 hintmask 10100000
          341 48 callgsubr
          hintmask 01100000
          -56 callgsubr
          hintmask 10100000
          -32 callgsubr
        </CharString>
        <CharString name="tildecomb">
          470 78 -27 78 hstemhm
          -159 318 hintmask 10100000
          159 48 callgsubr
          hintmask 01100000
          -56 callgsubr
          hintmask 10100000
          -32 callgsubr
        </CharString>
        <CharString name="tildecomb.case">
          615 50 callgsubr
          -165 330 hintmask 10010000
          165 717 -17 callsubr
          hintmask 01110000
          -37 -33 49 -56 hhcurveto
          hintmask 01010000
          -55 -39 -50 -52 -15 hvcurveto
          35 -19 rlineto
          hintmask 01110000
          24 16 19 21 25 hhcurveto
          hintmask 10010000
          37 33 -49 56 hhcurveto
          55 39 50 52 15 hvcurveto
          endchar
        </CharString>
        <CharString name="trademark">
          360 273 33 224 38 -35.5 35.5 hstemhm
          144 81 118 124 182 154 hintmask 11011100
          280 273 rmoveto
          30 vlineto
          -40 6 rlineto
          -9 2 -6 6 10 vvcurveto
          203 37 vlineto
          11 5 -4 -9 2 hvcurveto
          13 -61 rlineto
          35 hlineto
          3 41 -1 37 -4 34 rrcurveto
          -281 hlineto
          -6 -34 -2 -35 3 -43 rrcurveto
          35 hlineto
          16 61 rlineto
          9 2 6 4 11 hhcurveto
          34 -204 hlineto
          -9 -5 -5 -10 -3 vhcurveto
          -36 -6 rlineto
          -30 vlineto
          374 hmoveto
          30 vlineto
          -39 7 26 207 80 -246 rlineto
          54 hlineto
          74 241 25 -202 -38 -7 rlineto
          -30 154 30 vlineto
          -25 6 -8 3 -5 5 -2 9 rlinecurve
          hintmask 10111100
          -24 186 -1 10 5 6 10 2 rlinecurve
          hintmask 11011100
          26 5 rlineto
          33 -142 vlineto
          -59 -193 -58 193 rlineto
          -152 -33 hlineto
          27 -6 10 -2 6 -4 -1 -11 rlinecurve
          -26 -186 -2 -12 -4 -2 -9 -3 rlinecurve
          -26 -6 rlineto
          -30 vlineto
          endchar
        </CharString>
        <CharString name="two">
          -37 0 73 352 87 hstem
          262 123 vstem
          396 -52 callsubr
        </CharString>
        <CharString name="two.dnom">
          -101 0 57 246 61 hstem
          218 94 vstem
          55 hmoveto
          -51 callgsubr
          60 -46 52 -86 -75 -44 -39 -39 -13 vhcurveto
          22 -21 rlineto
          -37 callsubr
        </CharString>
        <CharString name="two.numr">
          -101 227 57 229 -20 37 61 hstemhm
          220 94 hintmask 11010000
          57 -44 callgsubr
        </CharString>
        <CharString name="two.tf">
          -34 0 73 352 87 hstem
          264 123 vstem
          398 -52 callsubr
        </CharString>
        <CharString name="twosuperior">
          -111 227 57 229 -20 37 61 hstemhm
          215 94 hintmask 11010000
          52 -44 callgsubr
        </CharString>
        <CharString name="u">
          -77 callsubr
          -17 callgsubr
          hintmask 10111000
          499 7 rmoveto
          hintmask 01111000
          -99 callsubr
          hintmask 10111000
          -105 callgsubr
          endchar
        </CharString>
        <CharString name="uacute">
          -77 callsubr
          249 -20 -17 callgsubr
          hintmask 10111100
          499 7 rmoveto
          hintmask 01111100
          -99 callsubr
          hintmask 10111100
          -105 callgsubr
          -286 449 -95 callsubr
        </CharString>
        <CharString name="ubreve">
          -77 callsubr
          68 78 -17 callgsubr
          hintmask 10111100
          499 7 rmoveto
          hintmask 01111100
          -99 callsubr
          hintmask 10111100
          -105 callgsubr
          -104 583 -84 callgsubr
        </CharString>
        <CharString name="ucircumflex">
          -77 callsubr
          237 -20 -17 callgsubr
          hintmask 10111100
          499 7 rmoveto
          hintmask 01111100
          -99 callsubr
          hintmask 10111100
          -105 callgsubr
          -363 452 -86 callsubr
        </CharString>
        <CharString name="udieresis">
          -77 callsubr
          75 115 hstemhm
          77 113 -83 23 callsubr
          -62 114 hintmask 10111001
          499 7 rmoveto
          hintmask 01111001
          -99 callsubr
          hintmask 10111001
          -105 callgsubr
          hintmask 10110110
          -280 530 -97 callsubr
        </CharString>
        <CharString name="ugrave">
          -77 callsubr
          249 -20 -17 callgsubr
          hintmask 10111100
          499 7 rmoveto
          hintmask 01111100
          -99 callsubr
          hintmask 10111100
          -105 callgsubr
          -304 646 -70 callsubr
        </CharString>
        <CharString name="uhungarumlaut">
          -77 callsubr
          -17 callgsubr
          hintmask 10111000
          499 7 rmoveto
          hintmask 01111000
          -99 callsubr
          hintmask 10111000
          -105 callgsubr
          -331 458 -67 callsubr
        </CharString>
        <CharString name="umacron">
          -77 callsubr
          90 67 -17 callgsubr
          hintmask 10111100
          499 7 rmoveto
          hintmask 01111100
          -99 callsubr
          hintmask 10111100
          -105 callgsubr
          -380 487 -6 callgsubr
        </CharString>
        <CharString name="underscore">
          151 -146 55 hstem
          0 637 vstem
          -91 vmoveto
          -55 637 55 vlineto
          endchar
        </CharString>
        <CharString name="uni000D">
          endchar
        </CharString>
        <CharString name="uni00A0">
          -289 endchar
        </CharString>
        <CharString name="uni00AD">
          -96 180 74 hstem
          51 288 vstem
          51 180 rmoveto
          288 74 -288 hlineto
          endchar
        </CharString>
        <CharString name="uni00B5">
          59 31 callsubr
          76 56 callgsubr
          175 -59 callgsubr
        </CharString>
        <CharString name="uni0162">
          88 42 callgsubr
          32 47 325 -4 callsubr
          -64 91 112 65 hintmask 1110101010000000
          -61 callsubr
          hintmask 1111001010000000
          31 callgsubr
          hintmask 1110111010000000
          -11 callgsubr
          hintmask 1111011010000000
          -3 callsubr
          hintmask 1110101010000000
          -54 callgsubr
          hintmask 1110100110000000
          138 hlineto
          -24 -69 -91 callsubr
          9 32 rlineto
          endchar
        </CharString>
        <CharString name="uni0163">
          -145 42 callgsubr
          25 76 -50 -21 355 61 hstemhm
          77 115 -17 91 hintmask 10011100
          77 116 rmoveto
          -74 29 -33 47 -11 vhcurveto
          hintmask 11011010
          -23 -67 -91 callsubr
          hintmask 10101010
          7 25 rlineto
          2 1 0 1 hhcurveto
          63 53 25 51 23 hvcurveto
          -24 26 rlineto
          hintmask 10101100
          -71 callgsubr
          endchar
        </CharString>
        <CharString name="uni018F">
          74 -11 53 182 56.5 246.5 51 hstem
          36 125 231 130 vstem
          260 -11 rmoveto
          159 103 104 191 196 -109 98 -168 -72 -69 -18 -30 -48 hvcurveto
          -42 5 -57 12 -46 vhcurveto
          69 hlineto
          18 91 2 10 4 9 10 9 rlinecurve
          12 15 24 11 33 hhcurveto
          93 47 -95 -152 4 hvcurveto
          -351 1 rlineto
          -2 -10 -3 -31 -28 vvcurveto
          -153 94 -70 130 vhcurveto
          8 53 rmoveto
          -74 -33 60 79 16 2 16 1 11 hvcurveto
          227 hlineto
          -113 -7 -37 -69 -79 hhcurveto
          endchar
        </CharString>
        <CharString name="uni0192">
          -64 -176 -21 416 63 160 70 0 -20 hstemhm
          93.5 112.5 -99.5 112.5 hintmask 11101000
          141 -119 rmoveto
          26 31 22 50 11 126 12 131 rcurveline
          115 63 hlineto
          hintmask 11100100
          -111 hlineto
          6 68 rlineto
          67 6 22 25 36 hhcurveto
          9 10 -3 -6 7 hvcurveto
          6 -5 2 -8 1 -10 7 -55 rcurveline
          58 hlineto
          hintmask 11011000
          10 43 10 43 2 49 rrcurveto
          hintmask 11100100
          15 -24 -35 7 -27 hhcurveto
          -102 -100 -98 -109 -12 hvcurveto
          -3 -21 rlineto
          hintmask 11101000
          -70 -12 rlineto
          -44 vlineto
          64 -11 -11 -128 -11 -128 -14 -54 -81 -56 rlinecurve
          26 -48 54 17 49 25 30 36 rlinecurve
          endchar
        </CharString>
        <CharString name="uni01FC">
          -79 callgsubr
          351 437 -96 callsubr
          endchar
        </CharString>
        <CharString name="uni01FD">
          25 callsubr
          229 -20 32 callgsubr
          111 140 106 hintmask 1001011111000000
          -39 callsubr
          hintmask 0111101111000000
          -12 callsubr
          hintmask 1001011111000000
          -7 callsubr
          hintmask 0111011111000000
          -9 callgsubr
          113 399 -95 callsubr
        </CharString>
        <CharString name="uni021A">
          88 16 callgsubr
          47 325 -4 callsubr
          -78 79 138 65 hintmask 11010101
          -61 callsubr
          hintmask 11100101
          31 callgsubr
          hintmask 11011101
          -11 callgsubr
          hintmask 11101101
          -3 callsubr
          hintmask 11010101
          -54 callgsubr
          hintmask 11010011
          224 -111 -102 callsubr
        </CharString>
        <CharString name="uni021B">
          -145 -172 -21 186 76 284 61 hstemhm
          77 115 -32 79 hintmask 11110000
          77 116 rmoveto
          -95 48 -28 71 63 53 25 51 23 vhcurveto
          -24 26 rlineto
          -71 callgsubr
          hintmask 11101000
          162 -461 -102 callsubr
        </CharString>
        <CharString name="uni0259">
          -58 -9 50 131 45 136 71 hstem
          32 106 140 117 vstem
          395 210 rmoveto
          134 -68 80 -124 -74 -58 -28 -53 -30 vhcurveto
          27 -25 rlineto
          21 25 33 14 40 hhcurveto
          70 35 -41 -95 6 hvcurveto
          -239 hlineto
          -4 -16 -2 -25 -23 vvcurveto
          -106 61 -56 104 123 75 78 141 vhcurveto
          -191 -169 rmoveto
          -41 -25 29 69 14 1 10 2 9 hvcurveto
          137 hlineto
          -105 -3 -30 -26 -41 hhcurveto
          endchar
        </CharString>
        <CharString name="uni02BC">
          -207 649 -20 hstem
          112 86 vstem
          198 -25 callsubr
        </CharString>
        <CharString name="uni02C9">
          -122 496 68 hstem
          52 259 vstem
          52 496 rmoveto
          259 68 -259 hlineto
          endchar
        </CharString>
        <CharString name="uni0302">
          641 -20 hstem
          -149 298 vstem
          -113 459 -86 callsubr
        </CharString>
        <CharString name="uni0302.case">
          639 44 callgsubr
          -155 309 hintmask 01100000
          -123 603 -81 callgsubr
          rlineto
          hintmask 10100000
          -24 callsubr
        </CharString>
        <CharString name="uni0304">
          494 67 hstem
          -130 259 vstem
          -130 494 -6 callgsubr
        </CharString>
        <CharString name="uni0304.case">
          636 68 hstem
          -134 268 vstem
          -134 636 19 callsubr
          endchar
        </CharString>
        <CharString name="uni0306">
          472 78 hstem
          -146 292 vstem
          146 590 -84 callgsubr
        </CharString>
        <CharString name="uni0306.case">
          613 78 58 -21 hstem
          -149 298 vstem
          149 728 -87 callsubr
          endchar
        </CharString>
        <CharString name="uni0307">
          476 122 hstem
          -58 132 vstem
          74 537 -88 callsubr
          endchar
        </CharString>
        <CharString name="uni0307.case">
          620 124 hstem
          -67 134 vstem
          67 682 -53 callgsubr
        </CharString>
        <CharString name="uni0308">
          479 115 hstem
          -142 23 callsubr
          vstem
          -30 537 -97 callsubr
        </CharString>
        <CharString name="uni0308.case">
          615 116 hstem
          -151 55 callsubr
          vstem
          -39 673 -90 callgsubr
          endchar
        </CharString>
        <CharString name="uni030A">
          464 45 92 45 hstem
          -108 64 88 64 vstem
          108 555 -67 callgsubr
        </CharString>
        <CharString name="uni030A.case">
          597 47 95 47 hstem
          -111 66 91 64 vstem
          110 692 -29 callgsubr
        </CharString>
        <CharString name="uni030B">
          465 194 hstem
          -117 323 vstem
          -81 465 -67 callsubr
        </CharString>
        <CharString name="uni030B.case">
          631 -20 22 -20 hstemhm
          -135 353 hintmask 01100000
          -102 599 rmoveto
          46 32 63 48 36 41 -68 53 rcurveline
          hintmask 10100000
          -110 -142 rlineto
          199 -32 rmoveto
          49 29 66 49 39 37 -64 59 rcurveline
          hintmask 01100000
          -121 -140 rlineto
          endchar
        </CharString>
        <CharString name="uni030C">
          653 24 callgsubr
          -143 297 hintmask 01100000
          118 654 rmoveto
          hintmask 10100000
          -66 callsubr
          hintmask 01100000
          22 callsubr
        </CharString>
        <CharString name="uni030C.case">
          747 -21 24 -21 hstemhm
          -155 309 hintmask 10100000
          122 765 -65 callgsubr
          hintmask 01100000
          -4 callgsubr
        </CharString>
        <CharString name="uni0326">
          -172 -21 hstem
          -18 79 vstem
          61 -111 -102 callsubr
        </CharString>
        <CharString name="uni0327">
          -191 40 82 88 hstem
          -4 91 vstem
          -19 19 rmoveto
          -30 -88 -91 callsubr
          15 51 rlineto
          endchar
        </CharString>
        <CharString name="uni0328">
          -189 63 hstem
          -100 90 vstem
          99 -35 callsubr
        </CharString>
        <CharString name="uni0394">
          -38 callsubr
        </CharString>
        <CharString name="uni03A9">
          229 0 63 456 59 hstem
          95 131 269 130 vstem
          302 -68 callgsubr
        </CharString>
        <CharString name="uni03BC">
          33 31 callsubr
          66 56 callgsubr
          165 -59 callgsubr
        </CharString>
        <CharString name="uni1E9E">
          145 -10 51 -41 47 -47 170 357 51 hstemhm
          92 116 275 117 hintmask 10011100
          600 158 rmoveto
          105 -79 57 -88 29 vhcurveto
          109 161 -5 25 rlineto
          26 -66 -80 17 -65 hhcurveto
          -149 -85 -86 -162 hvcurveto
          hintmask 01011100
          -251 vlineto
          -11 -4 -8 -13 30 callsubr
          191 358 vlineto
          104 36 65 73 38 42 -18 -23 30 vhcurveto
          -104 -184 10 -20 rlineto
          hintmask 10011100
          77 -22 73 -40 -92 vvcurveto
          -57 -28 -30 -41 -20 -20 8 8 -10 vhcurveto
          hintmask 00111100
          -9 7 -2 6 -2 10 -12 90 rcurveline
          -68 hlineto
          hintmask 10011100
          -8 -48 -5 -58 3 -44 rrcurveto
          -15 34 59 -15 54 hhcurveto
          119 73 68 100 hvcurveto
          endchar
        </CharString>
        <CharString name="uni2003">
          226 endchar
        </CharString>
        <CharString name="uni2009">
          -357 endchar
        </CharString>
        <CharString name="uni20B9">
          -13 45 callgsubr
          46 385 -205 127 hintmask 11101100
          412 -55 callgsubr
        </CharString>
        <CharString name="uni20B9.tf">
          -34 45 callgsubr
          33 385 -205 127 hintmask 11101100
          399 -55 callgsubr
        </CharString>
        <CharString name="uni20BA">
          24 0 64 437 -20 hstem
          123 112 135 108 vstem
          204 hmoveto
          191 83 81 127 13 0 11 -2 9 hvcurveto
          -106 -13 rlineto
          -110 -39 -54 -96 vhcurveto
          165 vlineto
          121 51 rlineto
          52 vlineto
          -121 -52 rlineto
          57 vlineto
          122 52 rlineto
          52 vlineto
          -122 -53 rlineto
          113 -112 -161 vlineto
          -84 -36 rlineto
          -51 vlineto
          84 36 rlineto
          -57 vlineto
          -85 -36 rlineto
          -51 vlineto
          85 36 rlineto
          -181 vlineto
          endchar
        </CharString>
        <CharString name="uni20BA.tf">
          -34 0 64 437 -20 hstem
          89 112 116 110 vstem
          170 hmoveto
          177 80 78 124 13 -2 10 -1 9 hvcurveto
          -107 -12 rlineto
          -106 -34 -52 -82 vhcurveto
          165 vlineto
          110 46 rlineto
          52 vlineto
          -110 -47 rlineto
          57 vlineto
          111 47 rlineto
          52 vlineto
          -111 -48 rlineto
          113 -112 -160 vlineto
          -76 -33 rlineto
          -51 vlineto
          76 32 rlineto
          -56 vlineto
          -77 -33 rlineto
          -51 vlineto
          77 32 rlineto
          -181 vlineto
          endchar
        </CharString>
        <CharString name="uni20BD">
          43 36 callsubr
          136 108 138 119 hintmask 10110110
          244 454 rmoveto
          1 12 19 4 21 hhcurveto
          56 30 -24 -63 -72 -41 -27 -63 hvcurveto
          -34 hlineto
          hintmask 01110110
          -192 -149 rmoveto
          84 hlineto
          hintmask 10110110
          -47 vlineto
          -10 -7 -7 -9 -2 vhcurveto
          -59 -11 rlineto
          -47 287 24 callsubr
          160 vlineto
          hintmask 10101110
          46 -160 56 53 vlineto
          129 75 54 97 94 -66 33 -121 2 hvcurveto
          hintmask 10110110
          1 -47 -46 -6 -30 hhcurveto
          -130 -49 hlineto
          60 -12 rlineto
          9 -2 6 -8 -9 vvcurveto
          -148 -84 -47 84 -56 -84 vlineto
          endchar
        </CharString>
        <CharString name="uni20BD.tf">
          -34 36 callsubr
          108 105 111 119 hintmask 10110110
          213 454 rmoveto
          1 10 14 4 18 hhcurveto
          44 25 -24 -63 -72 -34 -27 -53 hvcurveto
          -24 hlineto
          hintmask 01110110
          -184 -149 rmoveto
          79 hlineto
          hintmask 10110110
          -47 vlineto
          -10 -7 -7 -10 -2 vhcurveto
          -59 -11 rlineto
          -47 285 24 callsubr
          144 vlineto
          hintmask 10101110
          46 -144 56 42 vlineto
          118 70 54 97 94 -61 33 -109 2 hvcurveto
          hintmask 10110110
          1 -44 -41 -6 -28 hhcurveto
          -128 -49 hlineto
          60 -12 rlineto
          9 -2 7 -8 -9 vvcurveto
          -148 -79 -47 79 -56 -79 vlineto
          endchar
        </CharString>
        <CharString name="uni2113">
          -61 -9 77 484 57 hstem
          87 96 121 102 vstem
          340 132 rmoveto
          -36 -19 -28 -28 -32 hhcurveto
          -27 -21 21 38 -13 hvcurveto
          141 116 65 134 105 vvcurveto
          81 -40 46 -60 -112 -107 -165 -218 -41 4 -36 7 -30 vhcurveto
          -24 -17 -25 -17 -28 -15 23 -45 rcurveline
          25 13 24 14 23 15 rrcurveto
          -50 24 38 -26 51 hhcurveto
          71 52 52 68 24 hvcurveto
          -193 147 rmoveto
          144 42 150 47 19 13 -24 -57 -104 -41 -93 -77 -80 vhcurveto
          -2 19 -1 22 23 vvcurveto
          endchar
        </CharString>
        <CharString name="uni2126">
          227 0 63 456 59 hstem
          92 131 269 130 vstem
          299 -68 callgsubr
        </CharString>
        <CharString name="uni2190">
          81 53 callsubr
          37 483 vstem
          520 246 rmoveto
          77 -292 vlineto
          2 callsubr
          endchar
        </CharString>
        <CharString name="uni2191">
          81 48 483 hstem
          245 77 vstem
          245 48 rmoveto
          77 292 hlineto
          -6 56 134 -135 52 51 -219 219 -218 -219 52 -51 134 135 -6 -56 rlineto
          endchar
        </CharString>
        <CharString name="uni2192">
          75 53 callsubr
          44 483 vstem
          308 66 rmoveto
          219 218 -219 218 -51 -51 134 -134 -55 6 rlineto
          -292 -77 292 hlineto
          55 5 -134 -134 rlineto
          endchar
        </CharString>
        <CharString name="uni2193">
          81 52 483 hstem
          245 77 vstem
          245 535 rmoveto
          -292 vlineto
          6 -56 -134 135 -52 -51 218 -219 219 219 -52 51 -134 -135 6 56 rlineto
          292 vlineto
          endchar
        </CharString>
        <CharString name="uni2194">
          452 53 callsubr
          37 878 vstem
          915 284 rmoveto
          -218 218 -52 -51 135 -134 -55 6 rlineto
          -497 hlineto
          2 callsubr
          497 hlineto
          55 5 -135 -134 52 -51 rlineto
          endchar
        </CharString>
        <CharString name="uni2195">
          81 503 -20 hstem
          244 78 vstem
          283 721 rmoveto
          -218 -218 52 -52 133 135 -6 -55 rlineto
          -497 vlineto
          6 -55 -133 134 -52 -51 218 -219 218 219 -51 51 -134 -135 6 56 rlineto
          497 vlineto
          -6 55 134 -135 51 52 rlineto
          endchar
        </CharString>
        <CharString name="uni2206">
          -38 callsubr
        </CharString>
        <CharString name="uni2215">
          -7 callgsubr
        </CharString>
        <CharString name="uni25CA">
          -34 13 -21 hstem
          23 406 vstem
          226 127 rmoveto
          -96 141 -7 12 97 136 7 10 97 -136 7 -11 -97 -142 rlineto
          -8 -145 rmoveto
          51 70 152 217 -49 70 -153 211 -50 -67 -154 -213 48 -72 rlineto
          endchar
        </CharString>
        <CharString name="uogonek">
          34 -189 63 118 65 -40 -21 428 -20 hstemhm
          77 113 103 90 -55 114 hintmask 11011010
          491 -161 rmoveto
          hintmask 11011100
          -17 45 rlineto
          -6 -14 33 callsubr
          hintmask 11011010
          13 3 11 3 8 2 rrcurveto
          -99 callsubr
          -247 vlineto
          -15 -22 -25 -8 -25 hhcurveto
          -47 -19 25 72 hvcurveto
          255 vlineto
          -15 15 -47 -1 -61 -6 -48 -12 rlinecurve
          -48 vlineto
          41 -9 rlineto
          12 -2 5 -48 callgsubr
          -188 vlineto
          -100 42 -46 88 vhcurveto
          hintmask 11011100
          60 38 19 32 31 hvcurveto
          hintmask 10111100
          10 -25 18 -16 27 -6 rrcurveto
          -1 vlineto
          -49 50 callsubr
          hintmask 11011010
          34 39 11 17 27 hvcurveto
          endchar
        </CharString>
        <CharString name="uring">
          -77 callsubr
          60 45 92 45 hstemhm
          77 113 -49 64 88 64 -29 114 hintmask 1011110010000000
          499 7 rmoveto
          hintmask 0111110010000000
          -99 callsubr
          hintmask 1011110010000000
          -105 callgsubr
          hintmask 1011101100000000
          -142 548 -67 callgsubr
        </CharString>
        <CharString name="utilde">
          -77 callsubr
          66 78 -27 78 -24 -20 -17 callgsubr
          hintmask 10100111
          499 7 rmoveto
          hintmask 01100111
          -99 callsubr
          hintmask 10100111
          -105 callgsubr
          hintmask 10110011
          -91 568 -18 callsubr
          hintmask 10101011
          -56 callgsubr
          hintmask 10110011
          -32 callgsubr
        </CharString>
        <CharString name="v">
          -21 -6 97 -76 -21 362 58 -47 47 hstemhm
          4 224 68 162 hintmask 01011100
          187 -6 rmoveto
          99 hlineto
          124 348 4 10 7 4 10 3 rlinecurve
          27 9 rlineto
          46 -162 -47 vlineto
          hintmask 10101100
          55 -11 -89 -265 -90 265 rlineto
          hintmask 01011100
          56 11 rlineto
          47 -224 -46 vlineto
          27 -9 9 -3 6 -5 4 -9 rlinecurve
          endchar
        </CharString>
        <CharString name="w">
          -20 callgsubr
          hstemhm
          6 206 296 160 hintmask 01011100
          164 -6 rmoveto
          92 hlineto
          81 293 89 -293 rlineto
          90 hlineto
          106 347 4 11 6 5 10 3 rlinecurve
          26 8 rlineto
          46 -160 -47 vlineto
          hintmask 10101100
          54 -11 -67 -251 rlineto
          hintmask 10011100
          -86 309 rlineto
          -95 hlineto
          -83 -310 rlineto
          hintmask 01101100
          -71 252 rlineto
          hintmask 01011100
          52 11 rlineto
          47 -206 -46 vlineto
          26 -8 10 -3 6 -5 3 -10 rlinecurve
          endchar
        </CharString>
        <CharString name="wacute">
          -20 callgsubr
          239 -83 callgsubr
          265 114 -95 callsubr
        </CharString>
        <CharString name="wcircumflex">
          -20 callgsubr
          227 -83 callgsubr
          188 117 -86 callsubr
        </CharString>
        <CharString name="wdieresis">
          -20 callgsubr
          65 115 hstemhm
          6 206 -2 23 callsubr
          15 160 hintmask 0101101010000000
          164 -6 rmoveto
          92 hlineto
          81 293 89 -293 rlineto
          90 hlineto
          106 347 4 11 6 5 10 3 rlinecurve
          26 8 rlineto
          46 -160 -47 vlineto
          hintmask 1010101010000000
          54 -11 -67 -251 rlineto
          hintmask 1001110010000000
          -86 309 rlineto
          -95 hlineto
          -83 -310 rlineto
          hintmask 0110110010000000
          -71 252 rlineto
          hintmask 0101110010000000
          52 11 rlineto
          47 -206 -46 vlineto
          26 -8 10 -3 6 -5 3 -10 rlinecurve
          hintmask 0101101110000000
          271 195 -97 callsubr
        </CharString>
        <CharString name="wgrave">
          -20 callgsubr
          239 -83 callgsubr
          247 311 -70 callsubr
        </CharString>
        <CharString name="x">
          -8 0 46 -46 49 316.5 48.5 -45 45 hstemhm
          16 180 -176 222 3 221 -176 164 hintmask 10011001
          196 hmoveto
          46 vlineto
          -54 10 rlineto
          hintmask 10011010
          76 103 71 -103 -44 -10 rlineto
          -46 221 46 vlineto
          hintmask 01011010
          -30 6 -10 2 -7 4 -5 8 rlinecurve
          -118 155 rlineto
          hintmask 10101001
          103 128 6 7 7 4 9 2 rlinecurve
          hintmask 10010101
          33 7 rlineto
          45 -164 -45 vlineto
          45 -11 -73 -98 -68 98 48 11 rlineto
          45 -222 -45 vlineto
          30 -7 9 -2 6 -4 6 -8 rlinecurve
          111 -148 rlineto
          hintmask 01011001
          -107 -134 -7 -8 -6 -4 -10 -1 rlinecurve
          hintmask 10011001
          -36 -7 rlineto
          -46 vlineto
          endchar
        </CharString>
        <CharString name="y">
          -22 callsubr
          hstemhm
          7 227 65 163 hintmask 01111100
          18 -123 rmoveto
          -56 vlineto
          hintmask 10111100
          -91 callgsubr
          hintmask 01111100
          8 callsubr
          endchar
        </CharString>
        <CharString name="yacute">
          -22 callsubr
          239 -20 hstemhm
          7 227 65 163 hintmask 01111110
          18 -123 rmoveto
          -56 vlineto
          hintmask 10111110
          -91 callgsubr
          hintmask 01111110
          8 callsubr
          196 579 -95 callsubr
        </CharString>
        <CharString name="ycircumflex">
          -22 callsubr
          227 -20 hstemhm
          7 227 65 163 hintmask 01111110
          18 -123 rmoveto
          -56 vlineto
          hintmask 10111110
          -91 callgsubr
          hintmask 01111110
          8 callsubr
          119 582 -86 callsubr
        </CharString>
</ttFont>
